<?xml version="1.0" encoding="UTF-8"?>
<!DOCTYPE svg PUBLIC "-//W3C//DTD SVG 1.1//EN" "http://www.w3.org/Graphics/SVG/1.1/DTD/svg11.dtd">
<svg xmlns="http://www.w3.org/2000/svg" version="1.1" width="530px" height="501px" style="shape-rendering:geometricPrecision; text-rendering:geometricPrecision; image-rendering:optimizeQuality; fill-rule:evenodd; clip-rule:evenodd" xmlns:xlink="http://www.w3.org/1999/xlink">
<g><path style="opacity:1" fill="#161514" d="M 340.5,72.5 C 340.973,73.9063 341.973,74.573 343.5,74.5C 346.971,78.8031 350.971,82.6365 355.5,86C 365.637,90.7149 375.97,95.0482 386.5,99C 401.874,109.007 406.208,122.507 399.5,139.5C 397.302,139.12 395.635,139.787 394.5,141.5C 394.5,141.833 394.5,142.167 394.5,142.5C 392.284,142.275 390.617,143.108 389.5,145C 393.822,157.445 396.155,170.278 396.5,183.5C 396.009,185.411 396.009,187.411 396.5,189.5C 397.167,189.5 397.5,189.833 397.5,190.5C 396.244,192.941 396.244,195.274 397.5,197.5C 396.962,199.117 396.629,200.784 396.5,202.5C 397.355,203.531 398.022,204.697 398.5,206C 398.108,207.011 397.441,207.511 396.5,207.5C 396.863,208.183 397.196,208.85 397.5,209.5C 395.568,210.976 395.235,212.643 396.5,214.5C 396.167,215.167 395.833,215.833 395.5,216.5C 395.393,222.283 394.893,227.95 394,233.5C 399.843,227.984 405.843,227.651 412,232.5C 428.38,260.579 424.547,285.246 400.5,306.5C 400.318,304.409 400.652,302.409 401.5,300.5C 401.145,299.478 400.478,298.811 399.5,298.5C 404.662,292.14 409.495,285.474 414,278.5C 417.95,263.369 415.783,249.202 407.5,236C 402.425,236.549 398.092,238.716 394.5,242.5C 395.937,238.869 394.77,236.203 391,234.5C 389.989,235.337 388.822,235.67 387.5,235.5C 387.472,237.582 388.139,239.416 389.5,241C 388.552,241.483 387.552,241.649 386.5,241.5C 389.45,234.616 387.784,229.283 381.5,225.5C 382.002,224.479 382.668,224.312 383.5,225C 384.667,226.167 385.833,227.333 387,228.5C 387.667,227.167 387.667,225.833 387,224.5C 384.705,222.92 383.372,220.92 383,218.5C 384.351,220.019 385.851,221.352 387.5,222.5C 387.833,222.167 388.167,221.833 388.5,221.5C 386.5,219.167 384.5,216.833 382.5,214.5C 382.667,214.167 382.833,213.833 383,213.5C 384.351,215.019 385.851,216.352 387.5,217.5C 388.583,216.635 388.749,215.635 388,214.5C 382.049,209.069 382.549,208.236 389.5,212C 386.833,209.667 384.167,207.333 381.5,205C 384.146,205.92 386.646,207.42 389,209.5C 389.87,208.892 390.37,208.059 390.5,207C 387.362,203.534 383.862,200.367 380,197.5C 379.308,196.563 379.475,195.897 380.5,195.5C 379.2,194.399 378.7,193.066 379,191.5C 382.387,194.553 386.053,197.22 390,199.5C 390.684,198.216 390.517,197.049 389.5,196C 385.673,194.254 382.007,192.254 378.5,190C 377.549,189.282 377.383,188.449 378,187.5C 382.182,190.855 386.682,192.855 391.5,193.5C 387.036,190.43 382.369,187.597 377.5,185C 376.117,183.539 376.451,182.706 378.5,182.5C 377.77,181.288 376.77,180.288 375.5,179.5C 375.833,179.167 376.167,178.833 376.5,178.5C 381.367,181.6 386.367,184.1 391.5,186C 389.76,184.483 388.094,182.983 386.5,181.5C 387.583,181.539 388.583,181.873 389.5,182.5C 390.386,181.675 390.719,180.675 390.5,179.5C 390.5,178.167 390.5,176.833 390.5,175.5C 383.642,173.404 377.309,170.238 371.5,166C 371.833,165.833 372.167,165.667 372.5,165.5C 373.85,166.95 375.516,167.617 377.5,167.5C 381.492,169.918 385.658,172.252 390,174.5C 390.464,173.906 390.631,173.239 390.5,172.5C 390.371,170.784 390.038,169.117 389.5,167.5C 388.026,166.325 386.36,165.325 384.5,164.5C 385.98,163.887 387.313,163.554 388.5,163.5C 387.5,162.833 386.5,162.167 385.5,161.5C 387.641,159.747 386.974,158.747 383.5,158.5C 385.054,159.895 384.721,160.561 382.5,160.5C 380.845,159.772 379.179,159.605 377.5,160C 379.377,161.185 381.377,162.185 383.5,163C 380.692,163.238 378.026,162.904 375.5,162C 376.91,163.372 378.577,164.205 380.5,164.5C 379.432,165.434 378.099,165.768 376.5,165.5C 372.423,163.233 368.589,161.233 365,159.5C 360.4,162.585 355.233,164.085 349.5,164C 341.278,171.323 333.278,171.157 325.5,163.5C 324.061,165.36 322.395,167.027 320.5,168.5C 313.923,170.369 307.757,173.036 302,176.5C 299.248,175.414 296.748,173.914 294.5,172C 292.866,171.506 291.199,171.34 289.5,171.5C 286.644,178.328 281.81,179.995 275,176.5C 274.586,176.957 274.086,177.291 273.5,177.5C 270.072,174.707 266.572,172.04 263,169.5C 262.5,169.833 262,170.167 261.5,170.5C 263.167,172.5 264.833,174.5 266.5,176.5C 258.339,179.783 250.006,180.283 241.5,178C 236.488,173.598 231.655,169.098 227,164.5C 226.505,166.473 226.338,168.473 226.5,170.5C 217.494,170.334 208.494,170.5 199.5,171C 198.328,171.419 197.328,172.085 196.5,173C 193.059,173.016 189.726,173.183 186.5,173.5C 179.069,169.882 174.903,163.882 174,155.5C 173.908,150.684 173.742,146.018 173.5,141.5C 170.762,140.965 168.928,141.965 168,144.5C 165.624,151.41 166.457,157.91 170.5,164C 167.907,163.454 165.74,161.954 164,159.5C 153.54,136.336 159.04,118.003 180.5,104.5C 177.52,103.989 174.52,104.489 171.5,106C 157.118,118.839 152.284,134.339 157,152.5C 153.095,149.91 150.762,146.244 150,141.5C 149.641,131.974 151.307,122.974 155,114.5C 151.126,117.58 148.792,121.58 148,126.5C 144.507,141.042 149.007,152.209 161.5,160C 159.893,160.115 158.393,159.615 157,158.5C 156.5,158.667 156,158.833 155.5,159C 156.416,159.278 157.082,159.778 157.5,160.5C 156.475,160.897 156.308,161.563 157,162.5C 160.472,164.479 163.638,166.812 166.5,169.5C 166.333,169.833 166.167,170.167 166,170.5C 162.492,168.413 159.158,166.08 156,163.5C 158.224,167.375 161.557,170.375 166,172.5C 166.667,173.167 166.667,173.833 166,174.5C 165.329,173.748 164.496,173.414 163.5,173.5C 164.23,174.712 165.23,175.712 166.5,176.5C 166.167,176.833 165.833,177.167 165.5,177.5C 162.003,174.917 158.336,172.584 154.5,170.5C 154.167,171 153.833,171.5 153.5,172C 157.222,175.38 161.222,178.547 165.5,181.5C 164.998,182.521 164.332,182.688 163.5,182C 160.5,179.833 157.5,177.667 154.5,175.5C 154.167,176 153.833,176.5 153.5,177C 157.222,180.38 161.222,183.547 165.5,186.5C 165.333,186.833 165.167,187.167 165,187.5C 161.333,185.167 157.667,182.833 154,180.5C 152.418,182.624 152.251,184.79 153.5,187C 157.496,188.663 161.163,190.829 164.5,193.5C 164.167,193.833 163.833,194.167 163.5,194.5C 159.905,192.898 156.571,190.898 153.5,188.5C 153.167,189 152.833,189.5 152.5,190C 156.005,193 159.671,195.833 163.5,198.5C 163.333,198.833 163.167,199.167 163,199.5C 159.7,197.698 156.533,195.698 153.5,193.5C 153.167,194.167 152.833,194.833 152.5,195.5C 155.578,198.22 158.911,200.72 162.5,203C 158.747,202.955 155.581,201.455 153,198.5C 152.833,198.833 152.667,199.167 152.5,199.5C 155.28,202.064 158.28,204.397 161.5,206.5C 161.167,206.833 160.833,207.167 160.5,207.5C 157.914,205.957 155.414,204.291 153,202.5C 152.202,204.259 152.369,205.926 153.5,207.5C 156.507,208.492 158.173,210.159 158.5,212.5C 156.76,210.789 154.76,209.956 152.5,210C 154.5,211.667 156.5,213.333 158.5,215C 156.953,215.333 155.62,214.833 154.5,213.5C 154.167,213.833 153.833,214.167 153.5,214.5C 154.945,216.063 156.611,217.396 158.5,218.5C 157.167,218.833 155.833,219.167 154.5,219.5C 155.263,220.719 156.263,221.719 157.5,222.5C 153.475,223.091 153.475,224.758 157.5,227.5C 156.833,228.167 156.167,228.833 155.5,229.5C 156.309,231.071 156.643,232.738 156.5,234.5C 152.115,234.777 148.115,235.777 144.5,237.5C 142.324,235.701 139.99,235.368 137.5,236.5C 134.442,240.785 131.775,245.285 129.5,250C 130.094,250.464 130.761,250.631 131.5,250.5C 131.5,251.5 131.5,252.5 131.5,253.5C 130.778,253.082 130.278,252.416 130,251.5C 129.601,251.728 129.435,252.062 129.5,252.5C 128.542,252.047 127.708,251.381 127,250.5C 125.989,251.337 124.822,251.67 123.5,251.5C 124.699,243.599 127.699,236.433 132.5,230C 136.055,228.741 139.722,228.741 143.5,230C 144.817,231.659 146.483,232.826 148.5,233.5C 149.125,225.915 148.459,218.415 146.5,211C 146.629,207.045 146.629,202.878 146.5,198.5C 147.388,195.946 147.721,193.279 147.5,190.5C 146.334,186.004 146.334,181.337 147.5,176.5C 148.265,173.904 148.599,171.237 148.5,168.5C 148.552,164.802 148.886,161.135 149.5,157.5C 142.443,155.601 138.276,150.934 137,143.5C 134.694,131.92 137.86,122.253 146.5,114.5C 147.674,113.486 148.34,112.153 148.5,110.5C 157.114,104.055 165.281,97.055 173,89.5C 178.159,78.5047 186.659,71.6714 198.5,69C 204.554,67.5644 210.554,67.0644 216.5,67.5C 220.718,68.7662 224.718,68.4328 228.5,66.5C 238.394,66.6562 248.227,64.9896 258,61.5C 261.747,62.1207 265.247,63.454 268.5,65.5C 279.786,59.5252 291.786,55.8586 304.5,54.5C 318.953,55.7263 330.953,61.7263 340.5,72.5 Z M 383.5,109.5 C 394.198,114.242 397.698,122.242 394,133.5C 393.156,129.789 392.156,126.123 391,122.5C 388.477,118.112 385.977,113.778 383.5,109.5 Z"/></g>
<g><path style="opacity:0.886" fill="#484848" d="M 216.5,67.5 C 220.298,66.5166 224.298,66.1832 228.5,66.5C 224.718,68.4328 220.718,68.7662 216.5,67.5 Z"/></g>
<g><path style="opacity:0.243" fill="#b7b7b7" d="M 340.5,72.5 C 342.027,72.427 343.027,73.0937 343.5,74.5C 341.973,74.573 340.973,73.9063 340.5,72.5 Z"/></g>
<g><path style="opacity:1" fill="#030303" d="M 236.5,86.5 C 248.026,87.1317 259.026,89.7984 269.5,94.5C 269,94.8333 268.5,95.1667 268,95.5C 259.153,92.3392 249.987,90.3392 240.5,89.5C 234.141,90.8396 227.808,92.3396 221.5,94C 220.304,94.6543 220.304,95.1543 221.5,95.5C 224.77,93.8395 228.103,93.5061 231.5,94.5C 217.478,98.8135 210.478,108.48 210.5,123.5C 210.512,129.05 211.846,134.217 214.5,139C 213.568,143.559 212.402,148.059 211,152.5C 209.356,155.311 207.19,157.644 204.5,159.5C 209.718,160.038 213.385,157.705 215.5,152.5C 215.833,153 216.167,153.5 216.5,154C 210.911,165.609 204.078,166.443 196,156.5C 194.654,150.049 195.654,150.049 199,156.5C 204.588,157.633 208.254,155.3 210,149.5C 210.759,146.374 211.259,143.207 211.5,140C 210.018,134.202 208.684,128.368 207.5,122.5C 208.45,112.469 212.45,103.969 219.5,97C 216.564,97.8931 214.064,99.7264 212,102.5C 204.049,112.624 203.216,123.124 209.5,134C 208.551,134.617 207.718,134.451 207,133.5C 199.351,117.923 202.518,104.756 216.5,94C 223.04,90.7697 229.707,88.2697 236.5,86.5 Z"/></g>
<g><path style="opacity:1" fill="#050504" d="M 186.5,173.5 C 186.918,174.222 187.584,174.722 188.5,175C 177.598,171.888 167.264,167.055 157.5,160.5C 157.082,159.778 156.416,159.278 155.5,159C 156,158.833 156.5,158.667 157,158.5C 158.393,159.615 159.893,160.115 161.5,160C 149.007,152.209 144.507,141.042 148,126.5C 148.792,121.58 151.126,117.58 155,114.5C 151.307,122.974 149.641,131.974 150,141.5C 150.762,146.244 153.095,149.91 157,152.5C 152.284,134.339 157.118,118.839 171.5,106C 174.52,104.489 177.52,103.989 180.5,104.5C 159.04,118.003 153.54,136.336 164,159.5C 165.74,161.954 167.907,163.454 170.5,164C 166.457,157.91 165.624,151.41 168,144.5C 168.928,141.965 170.762,140.965 173.5,141.5C 173.742,146.018 173.908,150.684 174,155.5C 174.903,163.882 179.069,169.882 186.5,173.5 Z"/></g>
<g><path style="opacity:0.357" fill="#8c8c8c" d="M 148.5,110.5 C 148.34,112.153 147.674,113.486 146.5,114.5C 146.229,112.62 146.896,111.287 148.5,110.5 Z"/></g>
<g><path style="opacity:0.239" fill="#acacac" d="M 399.5,139.5 C 398.205,140.488 396.872,141.488 395.5,142.5C 395.5,141.833 395.167,141.5 394.5,141.5C 395.635,139.787 397.302,139.12 399.5,139.5 Z"/></g>
<g><path style="opacity:0.004" fill="#fdfefd" d="M 394.5,142.5 C 394.833,142.5 395.167,142.5 395.5,142.5C 395.315,143.17 394.981,143.17 394.5,142.5 Z"/></g>
<g><path style="opacity:1" fill="#d8b68e" d="M 383.5,158.5 C 382.5,158.5 381.5,158.5 380.5,158.5C 380.5,157.167 380.5,155.833 380.5,154.5C 382.39,154.703 383.89,154.037 385,152.5C 386.44,153.93 386.774,155.597 386,157.5C 383.553,156.004 382.719,156.337 383.5,158.5 Z"/></g>
<g><path style="opacity:1" fill="#e2bf95" d="M 376.5,165.5 C 376.833,166.167 377.167,166.833 377.5,167.5C 375.516,167.617 373.85,166.95 372.5,165.5C 372.167,165.667 371.833,165.833 371.5,166C 377.309,170.238 383.642,173.404 390.5,175.5C 390.5,176.833 390.5,178.167 390.5,179.5C 384.654,177.159 379.154,174.159 374,170.5C 373.83,172.983 374.664,175.149 376.5,177C 379.736,178.786 383.07,180.286 386.5,181.5C 388.094,182.983 389.76,184.483 391.5,186C 386.367,184.1 381.367,181.6 376.5,178.5C 376.167,178.833 375.833,179.167 375.5,179.5C 376.77,180.288 377.77,181.288 378.5,182.5C 376.451,182.706 376.117,183.539 377.5,185C 382.369,187.597 387.036,190.43 391.5,193.5C 386.682,192.855 382.182,190.855 378,187.5C 377.383,188.449 377.549,189.282 378.5,190C 382.007,192.254 385.673,194.254 389.5,196C 390.517,197.049 390.684,198.216 390,199.5C 386.053,197.22 382.387,194.553 379,191.5C 378.7,193.066 379.2,194.399 380.5,195.5C 379.475,195.897 379.308,196.563 380,197.5C 383.862,200.367 387.362,203.534 390.5,207C 390.37,208.059 389.87,208.892 389,209.5C 386.646,207.42 384.146,205.92 381.5,205C 384.167,207.333 386.833,209.667 389.5,212C 382.549,208.236 382.049,209.069 388,214.5C 388.749,215.635 388.583,216.635 387.5,217.5C 385.851,216.352 384.351,215.019 383,213.5C 382.833,213.833 382.667,214.167 382.5,214.5C 384.5,216.833 386.5,219.167 388.5,221.5C 388.167,221.833 387.833,222.167 387.5,222.5C 385.851,221.352 384.351,220.019 383,218.5C 383.372,220.92 384.705,222.92 387,224.5C 387.667,225.833 387.667,227.167 387,228.5C 385.833,227.333 384.667,226.167 383.5,225C 382.668,224.312 382.002,224.479 381.5,225.5C 387.784,229.283 389.45,234.616 386.5,241.5C 384.937,255.713 383.103,270.046 381,284.5C 380.665,272.794 379.831,261.127 378.5,249.5C 377.914,249.709 377.414,250.043 377,250.5C 376.667,253.167 376.333,255.833 376,258.5C 374.633,257.476 373.8,257.976 373.5,260C 373.833,261 374.167,262 374.5,263C 373.19,265.802 371.523,268.302 369.5,270.5C 370.479,272.279 370.146,273.945 368.5,275.5C 367.731,278.115 367.397,280.781 367.5,283.5C 366.883,283.389 366.383,283.056 366,282.5C 365.333,283.833 364.667,285.167 364,286.5C 363.82,289.956 363.153,293.289 362,296.5C 359.448,295.513 357.948,296.513 357.5,299.5C 357.5,299.833 357.5,300.167 357.5,300.5C 356.5,301.5 355.5,302.5 354.5,303.5C 352.837,305.438 352.171,307.772 352.5,310.5C 350.5,310.5 349.5,311.5 349.5,313.5C 348.065,320.251 348.398,326.917 350.5,333.5C 350.192,334.308 349.692,334.975 349,335.5C 348.093,329.527 347.427,323.527 347,317.5C 347.07,320.992 346.237,323.992 344.5,326.5C 343.508,326.328 342.842,326.662 342.5,327.5C 341.647,330.187 340.147,332.521 338,334.5C 337.51,335.793 337.343,337.127 337.5,338.5C 335.897,338.312 334.563,338.812 333.5,340C 335.187,341.913 335.687,344.08 335,346.5C 333.647,345.315 332.48,343.981 331.5,342.5C 330.461,345.047 331.295,347.047 334,348.5C 334.667,350.167 334.667,351.833 334,353.5C 333.768,352.263 333.268,351.263 332.5,350.5C 330.511,347.194 328.511,343.861 326.5,340.5C 325.614,341.325 325.281,342.325 325.5,343.5C 323.801,343.473 322.467,342.806 321.5,341.5C 320.861,340.903 320.528,340.07 320.5,339C 322.3,335.736 322.8,332.236 322,328.5C 319.67,326.174 317.336,323.841 315,321.5C 312.446,323.208 310.946,325.542 310.5,328.5C 305.829,327.455 301.496,327.788 297.5,329.5C 293.503,327.172 289.503,324.839 285.5,322.5C 284.808,323.025 284.308,323.692 284,324.5C 283.009,323.061 281.676,322.061 280,321.5C 278.714,327.876 277.714,327.542 277,320.5C 274.284,319.403 272.45,320.403 271.5,323.5C 271.981,326.083 272.648,328.583 273.5,331C 271.567,331.251 269.734,331.751 268,332.5C 268.732,328.469 269.399,324.469 270,320.5C 268.644,321.38 267.144,321.714 265.5,321.5C 265.657,322.873 265.49,324.207 265,325.5C 264.601,319.22 262.934,318.887 260,324.5C 259.586,324.043 259.086,323.709 258.5,323.5C 256.833,324.833 255.167,326.167 253.5,327.5C 252.914,327.291 252.414,326.957 252,326.5C 249.73,327.727 247.897,329.394 246.5,331.5C 245.914,331.291 245.414,330.957 245,330.5C 239.586,337.471 233.419,338.304 226.5,333C 229.23,331.768 229.063,330.935 226,330.5C 219.458,332.917 217.124,337.584 219,344.5C 221.169,348.01 224.336,350.177 228.5,351C 225.702,355.097 223.869,359.597 223,364.5C 221.088,366.657 219.421,368.991 218,371.5C 217.632,370.09 216.799,369.09 215.5,368.5C 214.692,366.577 214.192,364.577 214,362.5C 212.75,361.427 211.416,361.427 210,362.5C 207.52,361.878 207.02,360.544 208.5,358.5C 207.917,356.998 207.084,355.665 206,354.5C 205.667,348.5 205.333,342.5 205,336.5C 204.522,332.072 203.355,327.905 201.5,324C 201.667,322.833 201.833,321.667 202,320.5C 202.417,323.422 203.417,326.089 205,328.5C 205.5,328 206,327.5 206.5,327C 205.787,322.482 204.454,318.149 202.5,314C 201.833,313.333 201.167,313.333 200.5,314C 201.576,315.726 201.743,317.559 201,319.5C 200.169,315.828 198.335,312.828 195.5,310.5C 194.5,311.833 193.5,311.833 192.5,310.5C 191.172,307.176 189.339,304.176 187,301.5C 186.517,302.448 186.351,303.448 186.5,304.5C 185.291,301.778 183.458,299.444 181,297.5C 180.833,298 180.667,298.5 180.5,299C 183.892,303.341 185.726,308.174 186,313.5C 181.897,308.295 178.563,302.628 176,296.5C 176.014,291.248 176.847,286.082 178.5,281C 178.026,279.392 177.359,279.226 176.5,280.5C 175.653,283.554 174.653,286.554 173.5,289.5C 172.847,284.41 173.514,279.41 175.5,274.5C 175.192,273.692 174.692,273.025 174,272.5C 172.577,274.345 171.41,276.345 170.5,278.5C 170.167,278.333 169.833,278.167 169.5,278C 171.4,273.934 172.066,269.768 171.5,265.5C 170.197,268.043 169.197,270.71 168.5,273.5C 165.343,275.46 164.676,278.126 166.5,281.5C 165.83,286.196 164.996,290.863 164,295.5C 162.413,286.995 163.246,278.662 166.5,270.5C 166.167,269.5 165.5,268.833 164.5,268.5C 163.27,271.513 162.104,274.513 161,277.5C 159.088,263.203 157.588,248.87 156.5,234.5C 156.643,232.738 156.309,231.071 155.5,229.5C 156.167,228.833 156.833,228.167 157.5,227.5C 153.475,224.758 153.475,223.091 157.5,222.5C 156.263,221.719 155.263,220.719 154.5,219.5C 155.833,219.167 157.167,218.833 158.5,218.5C 156.611,217.396 154.945,216.063 153.5,214.5C 153.833,214.167 154.167,213.833 154.5,213.5C 155.62,214.833 156.953,215.333 158.5,215C 156.5,213.333 154.5,211.667 152.5,210C 154.76,209.956 156.76,210.789 158.5,212.5C 158.173,210.159 156.507,208.492 153.5,207.5C 152.369,205.926 152.202,204.259 153,202.5C 155.414,204.291 157.914,205.957 160.5,207.5C 160.833,207.167 161.167,206.833 161.5,206.5C 158.28,204.397 155.28,202.064 152.5,199.5C 152.667,199.167 152.833,198.833 153,198.5C 155.581,201.455 158.747,202.955 162.5,203C 158.911,200.72 155.578,198.22 152.5,195.5C 152.833,194.833 153.167,194.167 153.5,193.5C 156.533,195.698 159.7,197.698 163,199.5C 163.167,199.167 163.333,198.833 163.5,198.5C 159.671,195.833 156.005,193 152.5,190C 152.833,189.5 153.167,189 153.5,188.5C 156.571,190.898 159.905,192.898 163.5,194.5C 163.833,194.167 164.167,193.833 164.5,193.5C 161.163,190.829 157.496,188.663 153.5,187C 152.251,184.79 152.418,182.624 154,180.5C 157.667,182.833 161.333,185.167 165,187.5C 165.167,187.167 165.333,186.833 165.5,186.5C 161.222,183.547 157.222,180.38 153.5,177C 153.833,176.5 154.167,176 154.5,175.5C 157.5,177.667 160.5,179.833 163.5,182C 164.332,182.688 164.998,182.521 165.5,181.5C 161.222,178.547 157.222,175.38 153.5,172C 153.833,171.5 154.167,171 154.5,170.5C 158.336,172.584 162.003,174.917 165.5,177.5C 165.833,177.167 166.167,176.833 166.5,176.5C 165.23,175.712 164.23,174.712 163.5,173.5C 164.496,173.414 165.329,173.748 166,174.5C 166.667,173.833 166.667,173.167 166,172.5C 161.557,170.375 158.224,167.375 156,163.5C 159.158,166.08 162.492,168.413 166,170.5C 166.167,170.167 166.333,169.833 166.5,169.5C 163.638,166.812 160.472,164.479 157,162.5C 156.308,161.563 156.475,160.897 157.5,160.5C 167.264,167.055 177.598,171.888 188.5,175C 187.584,174.722 186.918,174.222 186.5,173.5C 189.726,173.183 193.059,173.016 196.5,173C 197.328,172.085 198.328,171.419 199.5,171C 208.494,170.5 217.494,170.334 226.5,170.5C 226.338,168.473 226.505,166.473 227,164.5C 231.655,169.098 236.488,173.598 241.5,178C 250.006,180.283 258.339,179.783 266.5,176.5C 264.833,174.5 263.167,172.5 261.5,170.5C 262,170.167 262.5,169.833 263,169.5C 266.572,172.04 270.072,174.707 273.5,177.5C 274.086,177.291 274.586,176.957 275,176.5C 281.81,179.995 286.644,178.328 289.5,171.5C 291.199,171.34 292.866,171.506 294.5,172C 296.748,173.914 299.248,175.414 302,176.5C 307.757,173.036 313.923,170.369 320.5,168.5C 322.395,167.027 324.061,165.36 325.5,163.5C 333.278,171.157 341.278,171.323 349.5,164C 355.233,164.085 360.4,162.585 365,159.5C 368.589,161.233 372.423,163.233 376.5,165.5 Z"/></g>
<g><path style="opacity:1" fill="#aa8f70" d="M 383.5,158.5 C 386.974,158.747 387.641,159.747 385.5,161.5C 386.5,162.167 387.5,162.833 388.5,163.5C 387.313,163.554 385.98,163.887 384.5,164.5C 386.36,165.325 388.026,166.325 389.5,167.5C 386.257,167.086 383.257,166.086 380.5,164.5C 378.577,164.205 376.91,163.372 375.5,162C 378.026,162.904 380.692,163.238 383.5,163C 381.377,162.185 379.377,161.185 377.5,160C 379.179,159.605 380.845,159.772 382.5,160.5C 384.721,160.561 385.054,159.895 383.5,158.5 Z"/></g>
<g><path style="opacity:1" fill="#655542" d="M 380.5,164.5 C 383.257,166.086 386.257,167.086 389.5,167.5C 390.038,169.117 390.371,170.784 390.5,172.5C 386.267,170.549 381.934,168.883 377.5,167.5C 377.167,166.833 376.833,166.167 376.5,165.5C 378.099,165.768 379.432,165.434 380.5,164.5 Z"/></g>
<g><path style="opacity:1" fill="#cbab86" d="M 163.5,173.5 C 160.042,172.265 157.042,170.265 154.5,167.5C 155.002,166.479 155.668,166.312 156.5,167C 158.907,169.183 161.24,171.35 163.5,173.5 Z"/></g>
<g><path style="opacity:0.01" fill="#d7d7d7" d="M 148.5,168.5 C 148.599,171.237 148.265,173.904 147.5,176.5C 146.903,176.265 146.57,175.765 146.5,175C 146.99,172.654 147.657,170.487 148.5,168.5 Z"/></g>
<g><path style="opacity:1" fill="#cbab86" d="M 377.5,167.5 C 381.934,168.883 386.267,170.549 390.5,172.5C 390.631,173.239 390.464,173.906 390,174.5C 385.658,172.252 381.492,169.918 377.5,167.5 Z"/></g>
<g><path style="opacity:1" fill="#473c2f" d="M 390.5,179.5 C 390.719,180.675 390.386,181.675 389.5,182.5C 388.583,181.873 387.583,181.539 386.5,181.5C 383.07,180.286 379.736,178.786 376.5,177C 374.664,175.149 373.83,172.983 374,170.5C 379.154,174.159 384.654,177.159 390.5,179.5 Z"/></g>
<g><path style="opacity:0.043" fill="#bebebe" d="M 396.5,183.5 C 397.573,185.347 397.573,187.347 396.5,189.5C 396.009,187.411 396.009,185.411 396.5,183.5 Z"/></g>
<g><path style="opacity:1" fill="#dbb990" d="M 378.5,182.5 C 382.711,184.037 386.711,186.037 390.5,188.5C 391.521,189.002 391.688,189.668 391,190.5C 386.391,188.365 382.224,185.698 378.5,182.5 Z"/></g>
<g><path style="opacity:0.055" fill="#d6d6d6" d="M 397.5,190.5 C 397.737,192.737 397.737,195.07 397.5,197.5C 396.244,195.274 396.244,192.941 397.5,190.5 Z"/></g>
<g><path style="opacity:0.31" fill="#cbcbcb" d="M 147.5,190.5 C 147.721,193.279 147.388,195.946 146.5,198.5C 145.957,198.44 145.624,198.107 145.5,197.5C 146.067,195.018 146.734,192.684 147.5,190.5 Z"/></g>
<g><path style="opacity:1" fill="#d3b28b" d="M 380.5,195.5 C 383.444,197.311 386.444,199.144 389.5,201C 390.451,201.718 390.617,202.551 390,203.5C 386.484,201.172 383.318,198.505 380.5,195.5 Z"/></g>
<g><path style="opacity:0.009" fill="#e5e5e5" d="M 397.5,197.5 C 398.678,199.338 398.345,201.005 396.5,202.5C 396.629,200.784 396.962,199.117 397.5,197.5 Z"/></g>
<g><path style="opacity:1" fill="#120f0c" d="M 246.5,212.5 C 246.277,214.754 245.944,217.088 245.5,219.5C 244.713,218.758 244.047,217.925 243.5,217C 239.178,215.725 234.844,214.558 230.5,213.5C 230.158,212.662 229.492,212.328 228.5,212.5C 223.514,211.67 218.68,210.337 214,208.5C 209.811,209.563 205.644,209.563 201.5,208.5C 194.634,211.093 187.634,213.426 180.5,215.5C 176.942,214.184 173.775,214.85 171,217.5C 169.926,216.382 168.76,215.382 167.5,214.5C 169.711,211.304 172.544,209.971 176,210.5C 179.3,208.698 182.467,206.698 185.5,204.5C 186.719,205.263 187.719,206.263 188.5,207.5C 193.854,205.487 199.187,203.487 204.5,201.5C 213.756,202.126 222.923,203.126 232,204.5C 234.562,204.262 236.896,205.262 239,207.5C 239.718,206.549 240.551,206.383 241.5,207C 242.833,209.191 244.5,211.024 246.5,212.5 Z"/></g>
<g><path style="opacity:1" fill="#110e0b" d="M 333.5,201.5 C 338.528,202.235 343.194,204.068 347.5,207C 345.89,208.495 344.224,208.661 342.5,207.5C 341.312,208.84 339.812,209.507 338,209.5C 333.821,208.331 329.654,208.331 325.5,209.5C 316.421,212.607 307.421,215.607 298.5,218.5C 297.833,216.833 297.167,215.167 296.5,213.5C 295.914,213.709 295.414,214.043 295,214.5C 294.128,211.028 294.961,208.028 297.5,205.5C 298.281,206.729 298.781,208.062 299,209.5C 302.331,207.282 305.831,205.282 309.5,203.5C 310.086,203.709 310.586,204.043 311,204.5C 318.588,203.414 326.088,202.414 333.5,201.5 Z"/></g>
<g><path style="opacity:1" fill="#14110e" d="M 363.5,209.5 C 363.511,211.017 364.177,212.184 365.5,213C 363.699,213.317 363.366,213.984 364.5,215C 363.167,215.667 361.833,215.667 360.5,215C 355.783,212.459 351.783,208.959 348.5,204.5C 351.12,205.253 353.954,205.253 357,204.5C 359.287,206.054 361.454,207.721 363.5,209.5 Z"/></g>
<g><path style="opacity:1" fill="#13100d" d="M 363.5,209.5 C 363.369,208.624 363.702,207.957 364.5,207.5C 370.224,209.11 375.057,212.11 379,216.5C 379.667,217.167 379.667,217.833 379,218.5C 377.587,216.586 375.753,215.253 373.5,214.5C 373.089,215.262 372.923,216.262 373,217.5C 371.509,215.996 369.676,215.163 367.5,215C 366.968,212.537 365.634,210.703 363.5,209.5 Z"/></g>
<g><path style="opacity:1" fill="#201c17" d="M 246.5,212.5 C 245.657,210.164 245.157,207.831 245,205.5C 247.916,208.255 249.249,211.588 249,215.5C 248.148,214.429 247.315,213.429 246.5,212.5 Z"/></g>
<g><path style="opacity:0.725" fill="#7c7c7c" d="M 397.5,209.5 C 398.043,209.56 398.376,209.893 398.5,210.5C 397.147,211.524 396.48,212.857 396.5,214.5C 395.235,212.643 395.568,210.976 397.5,209.5 Z"/></g>
<g><path style="opacity:0.012" fill="#dfdfdf" d="M 396.5,214.5 C 397.757,215.623 397.424,216.289 395.5,216.5C 395.833,215.833 396.167,215.167 396.5,214.5 Z"/></g>
<g><path style="opacity:1" fill="#26201a" d="M 313.5,214.5 C 314.376,214.369 315.043,214.702 315.5,215.5C 311.584,219.545 310.917,219.212 313.5,214.5 Z"/></g>
<g><path style="opacity:1" fill="#453b2e" d="M 228.5,212.5 C 229.492,212.328 230.158,212.662 230.5,213.5C 230.062,213.435 229.728,213.601 229.5,214C 233.675,217.528 237.008,221.695 239.5,226.5C 239.167,226.833 238.833,227.167 238.5,227.5C 235.687,222.857 232.187,218.857 228,215.5C 227.53,214.423 227.697,213.423 228.5,212.5 Z"/></g>
<g><path style="opacity:1" fill="#451f18" d="M 168.5,219.5 C 172.1,220.473 174.767,222.64 176.5,226C 172.549,225.561 169.883,223.394 168.5,219.5 Z"/></g>
<g><path style="opacity:1" fill="#0d0c09" d="M 239.5,237.5 C 235.428,233.941 230.928,230.941 226,228.5C 225.73,231.224 225.23,233.891 224.5,236.5C 223.386,237.776 222.386,237.776 221.5,236.5C 225.313,230.042 223.646,227.542 216.5,229C 217.647,227.719 217.313,227.386 215.5,228C 214.332,229.406 214.665,230.572 216.5,231.5C 216.167,232.5 215.5,233.167 214.5,233.5C 211.628,230.177 208.628,229.843 205.5,232.5C 200.381,235.211 195.048,237.544 189.5,239.5C 192.221,241.734 195.221,243.401 198.5,244.5C 191.798,246.287 185.631,244.954 180,240.5C 179.685,239.092 180.018,237.759 181,236.5C 193.116,230.693 205.616,225.859 218.5,222C 221.899,221.454 225.232,221.787 228.5,223C 232.64,227.14 236.806,231.306 241,235.5C 241.528,236.816 241.028,237.483 239.5,237.5 Z"/></g>
<g><path style="opacity:1" fill="#0a0908" d="M 344.5,244.5 C 348.117,243.336 351.45,241.503 354.5,239C 350.737,238.08 347.237,236.58 344,234.5C 342.736,236.607 340.903,237.607 338.5,237.5C 341.52,234.473 340.854,232.473 336.5,231.5C 333.733,234.094 331.4,233.594 329.5,230C 328.667,229.833 327.833,229.667 327,229.5C 325.624,229.684 324.791,230.351 324.5,231.5C 322.952,231.179 322.285,230.179 322.5,228.5C 315.521,229.155 309.854,232.155 305.5,237.5C 304.5,237.5 303.5,237.5 302.5,237.5C 303.091,234.386 304.758,231.886 307.5,230C 311.11,228.056 314.443,225.723 317.5,223C 321.167,222.333 324.833,222.333 328.5,223C 341.528,227.349 354.194,232.516 366.5,238.5C 360.687,243.581 353.854,245.914 346,245.5C 345.235,245.43 344.735,245.097 344.5,244.5 Z"/></g>
<g><path style="opacity:1" fill="#625240" d="M 308.5,220.5 C 309.043,220.56 309.376,220.893 309.5,221.5C 302.268,229.383 301.934,229.049 308.5,220.5 Z"/></g>
<g><path style="opacity:1" fill="#421d16" d="M 370.5,222.5 C 373.907,222.125 374.407,223.125 372,225.5C 370.401,227.036 368.567,227.536 366.5,227C 368.041,225.629 369.375,224.129 370.5,222.5 Z"/></g>
<g><path style="opacity:1" fill="#3c1611" d="M 166.5,229.5 C 167.449,228.848 168.615,228.514 170,228.5C 174.798,228.724 175.298,229.724 171.5,231.5C 169.486,231.563 167.819,230.897 166.5,229.5 Z"/></g>
<g><path style="opacity:1" fill="#2e251b" d="M 221.5,236.5 C 216.583,237.05 211.75,238.05 207,239.5C 203.627,237.646 203.793,236.313 207.5,235.5C 208.386,234.675 208.719,233.675 208.5,232.5C 207.5,232.5 206.5,232.5 205.5,232.5C 208.628,229.843 211.628,230.177 214.5,233.5C 215.5,233.167 216.167,232.5 216.5,231.5C 214.665,230.572 214.332,229.406 215.5,228C 217.313,227.386 217.647,227.719 216.5,229C 223.646,227.542 225.313,230.042 221.5,236.5 Z"/></g>
<g><path style="opacity:1" fill="#e1d4cf" d="M 324.5,231.5 C 327.676,231.67 329.676,233.337 330.5,236.5C 333.148,238.442 335.815,238.776 338.5,237.5C 340.903,237.607 342.736,236.607 344,234.5C 347.237,236.58 350.737,238.08 354.5,239C 351.45,241.503 348.117,243.336 344.5,244.5C 330.886,244.838 317.886,242.504 305.5,237.5C 309.854,232.155 315.521,229.155 322.5,228.5C 322.285,230.179 322.952,231.179 324.5,231.5 Z"/></g>
<g><path style="opacity:1" fill="#dccec9" d="M 239.5,237.5 C 233.589,239.096 227.256,240.93 220.5,243C 213.177,243.721 205.844,244.221 198.5,244.5C 195.221,243.401 192.221,241.734 189.5,239.5C 195.048,237.544 200.381,235.211 205.5,232.5C 206.5,232.5 207.5,232.5 208.5,232.5C 208.719,233.675 208.386,234.675 207.5,235.5C 203.793,236.313 203.627,237.646 207,239.5C 211.75,238.05 216.583,237.05 221.5,236.5C 222.386,237.776 223.386,237.776 224.5,236.5C 225.23,233.891 225.73,231.224 226,228.5C 230.928,230.941 235.428,233.941 239.5,237.5 Z"/></g>
<g><path style="opacity:1" fill="#462118" d="M 369.5,228.5 C 372.028,229.518 371.861,230.518 369,231.5C 368.5,231.167 368,230.833 367.5,230.5C 368.243,229.818 368.909,229.151 369.5,228.5 Z"/></g>
<g><path style="opacity:1" fill="#352b20" d="M 338.5,237.5 C 335.815,238.776 333.148,238.442 330.5,236.5C 329.676,233.337 327.676,231.67 324.5,231.5C 324.791,230.351 325.624,229.684 327,229.5C 327.833,229.667 328.667,229.833 329.5,230C 331.4,233.594 333.733,234.094 336.5,231.5C 340.854,232.473 341.52,234.473 338.5,237.5 Z"/></g>
<g><path style="opacity:1" fill="#debb92" d="M 144.5,237.5 C 147.139,239.309 149.306,241.642 151,244.5C 151.462,248.904 151.795,253.238 152,257.5C 147.147,253.645 142.647,249.478 138.5,245C 134.89,244.918 132.557,246.752 131.5,250.5C 130.761,250.631 130.094,250.464 129.5,250C 131.775,245.285 134.442,240.785 137.5,236.5C 139.99,235.368 142.324,235.701 144.5,237.5 Z"/></g>
<g><path style="opacity:1" fill="#debb92" d="M 399.5,298.5 C 395.047,303.084 390.38,307.417 385.5,311.5C 384.833,311.333 384.167,311.167 383.5,311C 385.816,307.615 386.816,303.782 386.5,299.5C 388.677,299.414 390.677,298.747 392.5,297.5C 394.333,295.167 396.167,292.833 398,290.5C 398.783,288.681 398.283,287.348 396.5,286.5C 394.534,288.968 392.368,291.301 390,293.5C 389.598,287.591 392.432,284.591 398.5,284.5C 399.167,282.5 399.833,280.5 400.5,278.5C 399.5,278.5 398.5,278.5 397.5,278.5C 398.066,271.512 398.566,264.512 399,257.5C 399.71,256.027 400.876,255.36 402.5,255.5C 404.107,260.048 406.274,264.381 409,268.5C 409.667,267.167 409.667,265.833 409,264.5C 407.097,261.192 405.597,257.692 404.5,254C 404.709,252.129 405.709,250.962 407.5,250.5C 411.851,254.871 413.018,254.204 411,248.5C 409.978,247.646 409.145,246.646 408.5,245.5C 407.277,244.386 405.944,244.219 404.5,245C 401.018,248.812 397.185,252.312 393,255.5C 392.269,251.016 392.769,246.682 394.5,242.5C 398.092,238.716 402.425,236.549 407.5,236C 415.783,249.202 417.95,263.369 414,278.5C 409.495,285.474 404.662,292.14 399.5,298.5 Z"/></g>
<g><path style="opacity:1" fill="#0c0a08" d="M 156.5,234.5 C 157.588,248.87 159.088,263.203 161,277.5C 162.104,274.513 163.27,271.513 164.5,268.5C 165.5,268.833 166.167,269.5 166.5,270.5C 163.246,278.662 162.413,286.995 164,295.5C 164.996,290.863 165.83,286.196 166.5,281.5C 164.676,278.126 165.343,275.46 168.5,273.5C 169.197,270.71 170.197,268.043 171.5,265.5C 172.066,269.768 171.4,273.934 169.5,278C 169.833,278.167 170.167,278.333 170.5,278.5C 171.41,276.345 172.577,274.345 174,272.5C 174.692,273.025 175.192,273.692 175.5,274.5C 173.514,279.41 172.847,284.41 173.5,289.5C 174.653,286.554 175.653,283.554 176.5,280.5C 177.359,279.226 178.026,279.392 178.5,281C 176.847,286.082 176.014,291.248 176,296.5C 178.563,302.628 181.897,308.295 186,313.5C 185.726,308.174 183.892,303.341 180.5,299C 180.667,298.5 180.833,298 181,297.5C 183.458,299.444 185.291,301.778 186.5,304.5C 186.351,303.448 186.517,302.448 187,301.5C 189.339,304.176 191.172,307.176 192.5,310.5C 193.5,311.833 194.5,311.833 195.5,310.5C 198.335,312.828 200.169,315.828 201,319.5C 201.743,317.559 201.576,315.726 200.5,314C 201.167,313.333 201.833,313.333 202.5,314C 204.454,318.149 205.787,322.482 206.5,327C 206,327.5 205.5,328 205,328.5C 203.417,326.089 202.417,323.422 202,320.5C 201.833,321.667 201.667,322.833 201.5,324C 203.355,327.905 204.522,332.072 205,336.5C 205.333,342.5 205.667,348.5 206,354.5C 207.084,355.665 207.917,356.998 208.5,358.5C 207.02,360.544 207.52,361.878 210,362.5C 211.416,361.427 212.75,361.427 214,362.5C 214.192,364.577 214.692,366.577 215.5,368.5C 216.799,369.09 217.632,370.09 218,371.5C 219.421,368.991 221.088,366.657 223,364.5C 223.869,359.597 225.702,355.097 228.5,351C 224.336,350.177 221.169,348.01 219,344.5C 217.124,337.584 219.458,332.917 226,330.5C 229.063,330.935 229.23,331.768 226.5,333C 233.419,338.304 239.586,337.471 245,330.5C 245.414,330.957 245.914,331.291 246.5,331.5C 247.897,329.394 249.73,327.727 252,326.5C 252.414,326.957 252.914,327.291 253.5,327.5C 255.167,326.167 256.833,324.833 258.5,323.5C 259.086,323.709 259.586,324.043 260,324.5C 262.934,318.887 264.601,319.22 265,325.5C 265.49,324.207 265.657,322.873 265.5,321.5C 267.144,321.714 268.644,321.38 270,320.5C 269.399,324.469 268.732,328.469 268,332.5C 269.734,331.751 271.567,331.251 273.5,331C 272.648,328.583 271.981,326.083 271.5,323.5C 272.45,320.403 274.284,319.403 277,320.5C 277.714,327.542 278.714,327.876 280,321.5C 281.676,322.061 283.009,323.061 284,324.5C 284.308,323.692 284.808,323.025 285.5,322.5C 289.503,324.839 293.503,327.172 297.5,329.5C 301.496,327.788 305.829,327.455 310.5,328.5C 310.946,325.542 312.446,323.208 315,321.5C 317.336,323.841 319.67,326.174 322,328.5C 322.8,332.236 322.3,335.736 320.5,339C 320.528,340.07 320.861,340.903 321.5,341.5C 321.336,344.187 321.503,346.854 322,349.5C 322.494,347.866 322.66,346.199 322.5,344.5C 324.359,344.461 325.692,345.294 326.5,347C 325.296,348.353 324.629,350.019 324.5,352C 324.508,353.707 324.842,355.207 325.5,356.5C 325.177,360.226 325.511,363.893 326.5,367.5C 327.437,362.188 327.437,356.854 326.5,351.5C 326.369,350.624 326.702,349.957 327.5,349.5C 328.172,350.949 328.839,352.282 329.5,353.5C 329.491,355.308 329.991,356.975 331,358.5C 331.384,356.803 331.218,355.137 330.5,353.5C 331.167,352.5 331.833,351.5 332.5,350.5C 333.268,351.263 333.768,352.263 334,353.5C 334.667,351.833 334.667,350.167 334,348.5C 331.295,347.047 330.461,345.047 331.5,342.5C 332.48,343.981 333.647,345.315 335,346.5C 335.687,344.08 335.187,341.913 333.5,340C 334.563,338.812 335.897,338.312 337.5,338.5C 337.343,337.127 337.51,335.793 338,334.5C 340.147,332.521 341.647,330.187 342.5,327.5C 343.097,327.735 343.43,328.235 343.5,329C 341.737,334.728 341.237,340.562 342,346.5C 342.511,339.781 343.345,333.114 344.5,326.5C 346.237,323.992 347.07,320.992 347,317.5C 347.427,323.527 348.093,329.527 349,335.5C 349.692,334.975 350.192,334.308 350.5,333.5C 348.398,326.917 348.065,320.251 349.5,313.5C 350.363,312.537 351.03,312.537 351.5,313.5C 350.049,319.561 350.216,325.561 352,331.5C 352.075,324.415 352.241,317.415 352.5,310.5C 352.171,307.772 352.837,305.438 354.5,303.5C 355.354,304.632 355.354,305.965 354.5,307.5C 353.698,313.152 353.531,318.818 354,324.5C 355.404,318.956 355.904,313.29 355.5,307.5C 356.612,305.401 357.279,303.067 357.5,300.5C 357.5,300.167 357.5,299.833 357.5,299.5C 358.492,299.328 359.158,299.662 359.5,300.5C 358.454,307.13 358.287,313.797 359,320.5C 359.333,315.833 359.667,311.167 360,306.5C 360.77,305.402 361.603,305.402 362.5,306.5C 362.875,308.698 363.542,310.698 364.5,312.5C 365.383,305.998 366.049,299.332 366.5,292.5C 367.468,290.393 367.802,288.059 367.5,285.5C 367.5,284.833 367.5,284.167 367.5,283.5C 367.397,280.781 367.731,278.115 368.5,275.5C 370.146,273.945 370.479,272.279 369.5,270.5C 371.523,268.302 373.19,265.802 374.5,263C 374.167,262 373.833,261 373.5,260C 373.8,257.976 374.633,257.476 376,258.5C 376.333,255.833 376.667,253.167 377,250.5C 377.414,250.043 377.914,249.709 378.5,249.5C 379.831,261.127 380.665,272.794 381,284.5C 383.103,270.046 384.937,255.713 386.5,241.5C 387.552,241.649 388.552,241.483 389.5,241C 388.139,239.416 387.472,237.582 387.5,235.5C 388.822,235.67 389.989,235.337 391,234.5C 394.77,236.203 395.937,238.869 394.5,242.5C 392.769,246.682 392.269,251.016 393,255.5C 397.185,252.312 401.018,248.812 404.5,245C 405.944,244.219 407.277,244.386 408.5,245.5C 409.145,246.646 409.978,247.646 411,248.5C 413.018,254.204 411.851,254.871 407.5,250.5C 405.709,250.962 404.709,252.129 404.5,254C 405.597,257.692 407.097,261.192 409,264.5C 409.667,265.833 409.667,267.167 409,268.5C 406.274,264.381 404.107,260.048 402.5,255.5C 400.876,255.36 399.71,256.027 399,257.5C 398.566,264.512 398.066,271.512 397.5,278.5C 398.5,278.5 399.5,278.5 400.5,278.5C 399.833,280.5 399.167,282.5 398.5,284.5C 392.432,284.591 389.598,287.591 390,293.5C 392.368,291.301 394.534,288.968 396.5,286.5C 398.283,287.348 398.783,288.681 398,290.5C 396.167,292.833 394.333,295.167 392.5,297.5C 390.677,298.747 388.677,299.414 386.5,299.5C 386.816,303.782 385.816,307.615 383.5,311C 384.167,311.167 384.833,311.333 385.5,311.5C 390.38,307.417 395.047,303.084 399.5,298.5C 400.478,298.811 401.145,299.478 401.5,300.5C 400.652,302.409 400.318,304.409 400.5,306.5C 397.698,309.476 395.031,312.642 392.5,316C 389.535,318.33 386.368,318.83 383,317.5C 380.677,325.609 378.511,333.609 376.5,341.5C 376.442,335.014 375.776,335.014 374.5,341.5C 371.287,348.637 367.787,355.637 364,362.5C 358.6,368.561 353.6,374.894 349,381.5C 347.604,389.08 347.104,396.747 347.5,404.5C 348.873,404.343 350.207,404.51 351.5,405C 362.91,411.742 372.41,420.575 380,431.5C 392.324,454.818 405.158,477.818 418.5,500.5C 416.833,500.5 415.167,500.5 413.5,500.5C 401.183,479.208 389.35,457.541 378,435.5C 372.381,429.093 366.881,422.593 361.5,416C 357.752,413.376 353.919,410.876 350,408.5C 347.762,412.844 346.595,417.51 346.5,422.5C 347.135,431.852 347.968,441.186 349,450.5C 355.733,466.531 359.9,483.198 361.5,500.5C 353.167,500.5 344.833,500.5 336.5,500.5C 341.975,498 347.641,495.667 353.5,493.5C 354.655,490.554 354.821,487.554 354,484.5C 342.475,471.431 336.975,456.098 337.5,438.5C 338.203,430.014 338.703,421.347 339,412.5C 333.787,424.443 326.953,435.276 318.5,445C 312.185,450.394 304.852,452.394 296.5,451C 288.263,447.74 280.263,444.073 272.5,440C 260.275,430.71 248.608,420.71 237.5,410C 232.986,408.82 229.653,406.154 227.5,402C 224.333,400.167 221.167,398.333 218,396.5C 217.692,397.308 217.192,397.975 216.5,398.5C 214.814,397.143 213.148,395.81 211.5,394.5C 211.157,396.225 210.157,396.725 208.5,396C 206.342,394.543 204.509,392.71 203,390.5C 202.833,392.333 202.667,394.167 202.5,396C 205.032,414.763 205.865,433.597 205,452.5C 203.193,461.113 201.693,469.78 200.5,478.5C 201.128,485.227 202.128,491.894 203.5,498.5C 205.026,498.994 206.359,499.661 207.5,500.5C 204.5,500.5 201.5,500.5 198.5,500.5C 196.742,492.949 195.742,485.282 195.5,477.5C 196.637,464.981 197.97,452.481 199.5,440C 198.565,435.259 198.565,430.592 199.5,426C 198.975,425.308 198.308,424.808 197.5,424.5C 189.38,427.78 182.88,433.114 178,440.5C 172.263,449.307 167.597,458.64 164,468.5C 157.055,479.414 149.888,490.081 142.5,500.5C 140.5,500.5 138.5,500.5 136.5,500.5C 138.109,499.102 138.942,497.435 139,495.5C 136.021,497.067 133.188,498.734 130.5,500.5C 126.833,500.5 123.167,500.5 119.5,500.5C 128.36,496.334 137.027,491.667 145.5,486.5C 155.318,474.846 162.818,461.846 168,447.5C 172.738,438.694 178.905,431.027 186.5,424.5C 189.618,422.607 192.951,421.274 196.5,420.5C 196.833,418.333 197.167,416.167 197.5,414C 196.655,401.981 195.822,390.148 195,378.5C 179.215,361.269 168.382,341.269 162.5,318.5C 158.327,318.581 154.661,317.248 151.5,314.5C 143.509,305.673 135.676,296.673 128,287.5C 122.274,276.008 120.774,264.008 123.5,251.5C 124.822,251.67 125.989,251.337 127,250.5C 127.708,251.381 128.542,252.047 129.5,252.5C 126.771,262.996 127.271,273.329 131,283.5C 138.824,292.99 146.991,302.157 155.5,311C 156.793,311.49 158.127,311.657 159.5,311.5C 159.019,307.798 158.352,304.131 157.5,300.5C 155.664,299.081 153.664,297.914 151.5,297C 150.023,294.555 148.19,292.388 146,290.5C 145.333,289.167 145.333,287.833 146,286.5C 148.43,289.386 151.097,292.053 154,294.5C 154.367,288.908 151.867,285.408 146.5,284C 145.167,282.333 143.833,280.667 142.5,279C 144.521,278.599 145.855,277.432 146.5,275.5C 144.828,269.208 143.995,262.541 144,255.5C 143.333,254.167 142.667,254.167 142,255.5C 139.936,259.961 137.602,264.294 135,268.5C 134.333,266.833 134.333,265.167 135,263.5C 136.754,259.921 138.254,256.254 139.5,252.5C 139.113,251.28 138.28,250.613 137,250.5C 134.743,251.09 133.076,252.423 132,254.5C 131.601,254.272 131.435,253.938 131.5,253.5C 131.5,252.5 131.5,251.5 131.5,250.5C 132.557,246.752 134.89,244.918 138.5,245C 142.647,249.478 147.147,253.645 152,257.5C 151.795,253.238 151.462,248.904 151,244.5C 149.306,241.642 147.139,239.309 144.5,237.5C 148.115,235.777 152.115,234.777 156.5,234.5 Z"/></g>
<g><path style="opacity:1" fill="#c9a984" d="M 151.5,269.5 C 152.748,270.334 153.415,271.667 153.5,273.5C 154.338,278.179 154.838,282.846 155,287.5C 153.935,283.704 151.435,281.37 147.5,280.5C 149.238,276.951 150.571,273.284 151.5,269.5 Z"/></g>
<g><path style="opacity:1" fill="#d7b58e" d="M 390.5,268.5 C 393.134,272.395 394.801,276.728 395.5,281.5C 393.278,281.178 391.444,281.845 390,283.5C 390.051,278.522 390.218,273.522 390.5,268.5 Z"/></g>
<g><path style="opacity:1" fill="#4b3f31" d="M 262.5,255.5 C 263.794,257.048 264.461,259.048 264.5,261.5C 264.333,263.5 264.167,265.5 264,267.5C 262.576,263.703 262.076,259.703 262.5,255.5 Z"/></g>
<g><path style="opacity:1" fill="#796650" d="M 267.5,260.5 C 269.026,261.492 269.693,262.992 269.5,265C 269.167,266.167 268.833,267.333 268.5,268.5C 267.52,265.914 267.187,263.247 267.5,260.5 Z"/></g>
<g><path style="opacity:1" fill="#1a1713" d="M 252.5,245.5 C 254.293,245.884 255.293,247.05 255.5,249C 254.428,256.836 254.261,264.67 255,272.5C 253.473,270.779 252.473,268.779 252,266.5C 251.325,259.472 251.492,252.472 252.5,245.5 Z"/></g>
<g><path style="opacity:1" fill="#dcba91" d="M 129.5,252.5 C 129.435,252.062 129.601,251.728 130,251.5C 130.278,252.416 130.778,253.082 131.5,253.5C 131.435,253.938 131.601,254.272 132,254.5C 133.076,252.423 134.743,251.09 137,250.5C 138.28,250.613 139.113,251.28 139.5,252.5C 138.254,256.254 136.754,259.921 135,263.5C 134.333,265.167 134.333,266.833 135,268.5C 137.602,264.294 139.936,259.961 142,255.5C 142.667,254.167 143.333,254.167 144,255.5C 143.995,262.541 144.828,269.208 146.5,275.5C 145.855,277.432 144.521,278.599 142.5,279C 143.833,280.667 145.167,282.333 146.5,284C 151.867,285.408 154.367,288.908 154,294.5C 151.097,292.053 148.43,289.386 146,286.5C 145.333,287.833 145.333,289.167 146,290.5C 148.19,292.388 150.023,294.555 151.5,297C 153.664,297.914 155.664,299.081 157.5,300.5C 158.352,304.131 159.019,307.798 159.5,311.5C 158.127,311.657 156.793,311.49 155.5,311C 146.991,302.157 138.824,292.99 131,283.5C 127.271,273.329 126.771,262.996 129.5,252.5 Z"/></g>
<g><path style="opacity:1" fill="#5d4e3d" d="M 362.5,248.5 C 363.289,248.783 363.956,249.283 364.5,250C 363.167,250.667 361.833,251.333 360.5,252C 362.271,252.535 362.604,253.369 361.5,254.5C 359.954,253.316 358.287,252.316 356.5,251.5C 358.594,250.482 360.594,249.482 362.5,248.5 Z"/></g>
<g><path style="opacity:1" fill="#473c2f" d="M 179.5,248.5 C 182.147,249.665 184.814,250.832 187.5,252C 183.917,252.705 181.251,251.538 179.5,248.5 Z"/></g>
<g><path style="opacity:1" fill="#4c4032" d="M 177.5,242.5 C 182.644,245.217 187.978,247.55 193.5,249.5C 188.224,249.581 183.224,248.081 178.5,245C 177.748,244.329 177.414,243.496 177.5,242.5 Z"/></g>
<g><path style="opacity:1" fill="#443a2d" d="M 364.5,242.5 C 366.549,242.706 366.883,243.539 365.5,245C 361.057,246.972 356.557,248.805 352,250.5C 351.5,250.167 351,249.833 350.5,249.5C 355.446,247.531 360.113,245.198 364.5,242.5 Z"/></g>
<g><path style="opacity:1" fill="#302d2c" d="M 324.5,237.5 C 325.849,236.203 327.182,236.37 328.5,238C 327.181,238.195 325.847,238.028 324.5,237.5 Z"/></g>
<g><path style="opacity:1" fill="#14110e" d="M 409.5,270.5 C 412.747,277.712 410.58,283.045 403,286.5C 402.5,286.167 402,285.833 401.5,285.5C 403.5,283.167 405.5,280.833 407.5,278.5C 408.169,275.803 408.836,273.137 409.5,270.5 Z"/></g>
<g><path style="opacity:1" fill="#0d0b09" d="M 132.5,270.5 C 134,275.809 136.834,280.476 141,284.5C 141.688,285.332 141.521,285.998 140.5,286.5C 134.018,282.871 131.352,277.538 132.5,270.5 Z"/></g>
<g><path style="opacity:1" fill="#d2b18a" d="M 167.5,287.5 C 169.099,288.799 169.599,290.465 169,292.5C 167.731,291.095 167.231,289.429 167.5,287.5 Z"/></g>
<g><path style="opacity:1" fill="#2a231d" d="M 367.5,283.5 C 367.5,284.167 367.5,284.833 367.5,285.5C 365.896,286.287 365.229,287.62 365.5,289.5C 364.737,297.142 364.403,304.809 364.5,312.5C 363.542,310.698 362.875,308.698 362.5,306.5C 362.817,303.428 362.484,300.428 361.5,297.5C 360.824,298.602 360.158,299.602 359.5,300.5C 359.158,299.662 358.492,299.328 357.5,299.5C 357.948,296.513 359.448,295.513 362,296.5C 363.153,293.289 363.82,289.956 364,286.5C 364.667,285.167 365.333,283.833 366,282.5C 366.383,283.056 366.883,283.389 367.5,283.5 Z"/></g>
<g><path style="opacity:1" fill="#7a6750" d="M 367.5,285.5 C 367.802,288.059 367.468,290.393 366.5,292.5C 366.737,291.209 366.404,290.209 365.5,289.5C 365.229,287.62 365.896,286.287 367.5,285.5 Z"/></g>
<g><path style="opacity:1" fill="#bb9e7b" d="M 164.5,296.5 C 165.787,297.871 166.453,299.705 166.5,302C 166.333,303.833 166.167,305.667 166,307.5C 164.763,303.94 164.263,300.273 164.5,296.5 Z"/></g>
<g><path style="opacity:1" fill="#ddba91" d="M 362.5,306.5 C 361.603,305.402 360.77,305.402 360,306.5C 359.667,311.167 359.333,315.833 359,320.5C 358.287,313.797 358.454,307.13 359.5,300.5C 360.158,299.602 360.824,298.602 361.5,297.5C 362.484,300.428 362.817,303.428 362.5,306.5 Z"/></g>
<g><path style="opacity:1" fill="#ddbb92" d="M 365.5,289.5 C 366.404,290.209 366.737,291.209 366.5,292.5C 366.049,299.332 365.383,305.998 364.5,312.5C 364.403,304.809 364.737,297.142 365.5,289.5 Z"/></g>
<g><path style="opacity:1" fill="#120f0c" d="M 247.5,296.5 C 248.675,296.281 249.675,296.614 250.5,297.5C 248.973,300.66 248.307,303.993 248.5,307.5C 251.32,307.248 253.986,307.748 256.5,309C 260.205,311.845 263.872,314.678 267.5,317.5C 262.694,318.106 258.694,316.439 255.5,312.5C 253.365,311.355 251.199,311.355 249,312.5C 245.857,311.057 244.357,308.557 244.5,305C 244.622,301.796 245.622,298.963 247.5,296.5 Z"/></g>
<g><path style="opacity:1" fill="#15120f" d="M 289.5,293.5 C 290.496,293.414 291.329,293.748 292,294.5C 294.608,299.399 294.942,304.399 293,309.5C 290.25,311.718 287.083,313.051 283.5,313.5C 282.49,316.502 280.49,317.668 277.5,317C 276.549,316.282 276.383,315.449 277,314.5C 278.812,311.72 280.979,309.22 283.5,307C 285.859,306.792 288.026,306.626 290,306.5C 290.309,305.234 290.809,304.067 291.5,303C 290.568,299.915 289.901,296.748 289.5,293.5 Z"/></g>
<g><path style="opacity:1" fill="#7d6952" d="M 357.5,300.5 C 357.279,303.067 356.612,305.401 355.5,307.5C 355.167,307.5 354.833,307.5 354.5,307.5C 355.354,305.965 355.354,304.632 354.5,303.5C 355.5,302.5 356.5,301.5 357.5,300.5 Z"/></g>
<g><path style="opacity:1" fill="#e0bd94" d="M 354.5,307.5 C 354.833,307.5 355.167,307.5 355.5,307.5C 355.904,313.29 355.404,318.956 354,324.5C 353.531,318.818 353.698,313.152 354.5,307.5 Z"/></g>
<g><path style="opacity:1" fill="#cdad87" d="M 174.5,306.5 C 177.753,309.366 178.253,312.7 176,316.5C 175.545,313.146 175.045,309.813 174.5,306.5 Z"/></g>
<g><path style="opacity:1" fill="#2e271f" d="M 340.5,308.5 C 341.376,308.369 342.043,308.702 342.5,309.5C 338.392,319.927 337.725,319.594 340.5,308.5 Z"/></g>
<g><path style="opacity:1" fill="#7b6751" d="M 368.5,306.5 C 370.088,308.527 370.588,310.861 370,313.5C 368.798,311.323 368.298,308.989 368.5,306.5 Z"/></g>
<g><path style="opacity:1" fill="#74624d" d="M 352.5,310.5 C 352.241,317.415 352.075,324.415 352,331.5C 350.216,325.561 350.049,319.561 351.5,313.5C 351.03,312.537 350.363,312.537 349.5,313.5C 349.5,311.5 350.5,310.5 352.5,310.5 Z"/></g>
<g><path style="opacity:1" fill="#c9aa84" d="M 195.5,314.5 C 197.326,316.437 197.493,318.437 196,320.5C 195.505,318.527 195.338,316.527 195.5,314.5 Z"/></g>
<g><path style="opacity:1" fill="#2d271f" d="M 346.5,308.5 C 347.497,308.47 348.164,308.97 348.5,310C 345.828,314.18 343.828,318.68 342.5,323.5C 341.386,322.277 341.219,320.944 342,319.5C 343.791,315.964 345.291,312.297 346.5,308.5 Z"/></g>
<g><path style="opacity:1" fill="#c9a984" d="M 184.5,315.5 C 186.129,316.625 187.629,317.959 189,319.5C 189.562,323.3 188.562,323.967 186,321.5C 185.495,319.482 184.995,317.482 184.5,315.5 Z"/></g>
<g><path style="opacity:1" fill="#d4b28c" d="M 367.5,318.5 C 369.403,326.845 368.236,334.845 364,342.5C 365.634,334.652 366.801,326.652 367.5,318.5 Z"/></g>
<g><path style="opacity:1" fill="#e0bc93" d="M 197.5,326.5 C 199.435,330.945 199.768,335.612 198.5,340.5C 197.507,335.88 197.173,331.214 197.5,326.5 Z"/></g>
<g><path style="opacity:1" fill="#d9b78f" d="M 316.5,328.5 C 318.722,328.559 319.722,329.725 319.5,332C 318.895,334.801 317.229,335.801 314.5,335C 315.167,334 315.833,333 316.5,332C 315.316,330.855 315.316,329.688 316.5,328.5 Z"/></g>
<g><path style="opacity:1" fill="#6b5a46" d="M 263.5,326.5 C 265.898,327.882 266.065,329.549 264,331.5C 263.506,329.866 263.34,328.199 263.5,326.5 Z"/></g>
<g><path style="opacity:1" fill="#cbab86" d="M 345.5,330.5 C 348.174,334.244 348.008,337.911 345,341.5C 344.55,337.812 344.717,334.146 345.5,330.5 Z"/></g>
<g><path style="opacity:1" fill="#ceae88" d="M 310.5,331.5 C 311.675,331.281 312.675,331.614 313.5,332.5C 312.131,334.124 310.464,334.624 308.5,334C 309.381,333.292 310.047,332.458 310.5,331.5 Z"/></g>
<g><path style="opacity:1" fill="#ded0cb" d="M 270.5,335.5 C 272.199,335.34 273.866,335.506 275.5,336C 280.5,338.833 285.5,341.667 290.5,344.5C 290.023,345.478 289.357,346.311 288.5,347C 279.524,350.912 270.19,352.245 260.5,351C 255.746,349.788 251.412,347.788 247.5,345C 253.404,344.379 258.237,341.879 262,337.5C 264.996,336.965 267.829,336.298 270.5,335.5 Z"/></g>
<g><path style="opacity:1" fill="#bb9e7b" d="M 186.5,304.5 C 193.528,317.978 196.195,332.311 194.5,347.5C 194.167,347.5 193.833,347.5 193.5,347.5C 193.687,341.938 192.687,336.771 190.5,332C 190.667,330.5 190.833,329 191,327.5C 191.413,330.232 192.08,332.899 193,335.5C 192.31,324.884 190.143,314.551 186.5,304.5 Z"/></g>
<g><path style="opacity:1" fill="#cfc1be" d="M 288.5,337.5 C 290.148,338.81 291.814,340.143 293.5,341.5C 293.192,342.308 292.692,342.975 292,343.5C 289.735,342.084 288.569,340.084 288.5,337.5 Z"/></g>
<g><path style="opacity:0.625" fill="#787878" d="M 376.5,341.5 C 375.833,341.5 375.167,341.5 374.5,341.5C 375.776,335.014 376.442,335.014 376.5,341.5 Z"/></g>
<g><path style="opacity:1" fill="#a48a6c" d="M 201.5,332.5 C 202.222,332.918 202.722,333.584 203,334.5C 203.667,341.167 203.667,347.833 203,354.5C 201.798,352.323 201.298,349.989 201.5,347.5C 200.5,347.5 199.5,347.5 198.5,347.5C 198.259,344.001 199.092,343.668 201,346.5C 202.387,341.965 202.554,337.299 201.5,332.5 Z"/></g>
<g><path style="opacity:1" fill="#7d6952" d="M 220.5,337.5 C 221.649,337.791 222.316,338.624 222.5,340C 222.333,340.833 222.167,341.667 222,342.5C 220.991,340.975 220.491,339.308 220.5,337.5 Z"/></g>
<g><path style="opacity:1" fill="#ddba92" d="M 316.5,347.5 C 317.051,350.807 317.384,354.14 317.5,357.5C 316.89,358.391 316.557,359.391 316.5,360.5C 314.856,360.286 313.356,360.62 312,361.5C 311.501,365.821 311.334,370.154 311.5,374.5C 309.861,376.639 307.861,376.973 305.5,375.5C 304.749,376.376 304.249,377.376 304,378.5C 303.79,375.766 302.956,373.266 301.5,371C 300.065,371.311 298.732,371.145 297.5,370.5C 296.614,371.325 296.281,372.325 296.5,373.5C 295.5,373.5 294.5,373.5 293.5,373.5C 293.5,374.833 293.5,376.167 293.5,377.5C 292.5,377.5 291.5,377.5 290.5,377.5C 290.579,376.07 290.246,374.736 289.5,373.5C 288.726,372.289 287.893,372.289 287,373.5C 286.692,372.692 286.192,372.025 285.5,371.5C 284.193,372.816 282.693,373.816 281,374.5C 279.654,368.356 281.82,364.022 287.5,361.5C 287.167,361.167 286.833,360.833 286.5,360.5C 283.63,361.122 280.796,361.789 278,362.5C 277.692,361.692 277.192,361.025 276.5,360.5C 275.289,361.39 273.955,361.39 272.5,360.5C 270.971,360.529 269.804,361.196 269,362.5C 268.092,360.561 266.592,359.561 264.5,359.5C 264.671,362.488 263.338,364.488 260.5,365.5C 261.491,366.665 262.491,367.832 263.5,369C 263.167,370 262.833,371 262.5,372C 263.646,372.759 264.646,373.426 265.5,374C 264.815,376.795 264.315,379.628 264,382.5C 263.818,379.774 263.318,377.107 262.5,374.5C 261.808,375.025 261.308,375.692 261,376.5C 260.667,379.833 260.333,383.167 260,386.5C 259.753,372.671 258.753,372.337 257,385.5C 256.111,386.888 255.611,386.722 255.5,385C 256.55,381.545 256.717,378.045 256,374.5C 254.648,376.594 254.148,378.927 254.5,381.5C 253.325,381.719 252.325,381.386 251.5,380.5C 251.678,377.664 251.844,374.664 252,371.5C 251.487,372.527 250.987,373.527 250.5,374.5C 250.167,374.5 249.833,374.5 249.5,374.5C 250.795,372.628 250.628,370.962 249,369.5C 247.085,372.862 246.085,376.529 246,380.5C 244.855,379.364 243.688,378.364 242.5,377.5C 245.229,374.245 246.229,370.578 245.5,366.5C 244.416,367.665 243.583,368.998 243,370.5C 242.536,369.906 242.369,369.239 242.5,368.5C 243.234,367.292 243.567,365.959 243.5,364.5C 240.654,364.809 239.154,366.475 239,369.5C 238.072,366.965 236.238,365.965 233.5,366.5C 234.425,362.728 235.759,359.061 237.5,355.5C 237.267,354.068 236.6,353.568 235.5,354C 234.296,357.122 232.629,359.956 230.5,362.5C 230.654,355.167 234.654,351.001 242.5,350C 243.354,348.978 244.354,348.145 245.5,347.5C 261.835,357.296 277.669,356.629 293,345.5C 293.414,345.957 293.914,346.291 294.5,346.5C 295.711,345.726 295.711,344.893 294.5,344C 296.585,343.471 298.418,343.971 300,345.5C 302.226,345.022 304.392,344.355 306.5,343.5C 305.624,342.749 304.624,342.249 303.5,342C 302.304,341.346 302.304,340.846 303.5,340.5C 307.797,341.463 312.13,341.463 316.5,340.5C 316.5,342.833 316.5,345.167 316.5,347.5 Z"/></g>
<g><path style="opacity:1" fill="#5a4c3c" d="M 226.5,340.5 C 227.937,341.722 229.437,341.722 231,340.5C 232.722,340.611 232.888,341.111 231.5,342C 233.167,342.333 234.833,342.667 236.5,343C 234.972,344.361 233.305,345.528 231.5,346.5C 230.808,345.975 230.308,345.308 230,344.5C 227.956,345.772 226.122,345.439 224.5,343.5C 225.262,343.089 226.262,342.923 227.5,343C 226.748,342.329 226.414,341.496 226.5,340.5 Z"/></g>
<g><path style="opacity:1" fill="#7a6650" d="M 342.5,327.5 C 342.842,326.662 343.508,326.328 344.5,326.5C 343.345,333.114 342.511,339.781 342,346.5C 341.237,340.562 341.737,334.728 343.5,329C 343.43,328.235 343.097,327.735 342.5,327.5 Z"/></g>
<g><path style="opacity:1" fill="#2c261f" d="M 332.5,350.5 C 331.833,351.5 331.167,352.5 330.5,353.5C 330.167,353.5 329.833,353.5 329.5,353.5C 328.839,352.282 328.172,350.949 327.5,349.5C 326.702,349.957 326.369,350.624 326.5,351.5C 325.549,352.919 325.216,354.585 325.5,356.5C 324.842,355.207 324.508,353.707 324.5,352C 324.629,350.019 325.296,348.353 326.5,347C 325.692,345.294 324.359,344.461 322.5,344.5C 322.66,346.199 322.494,347.866 322,349.5C 321.503,346.854 321.336,344.187 321.5,341.5C 322.467,342.806 323.801,343.473 325.5,343.5C 325.281,342.325 325.614,341.325 326.5,340.5C 328.511,343.861 330.511,347.194 332.5,350.5 Z"/></g>
<g><path style="opacity:1" fill="#4a3e31" d="M 193.5,347.5 C 193.833,347.5 194.167,347.5 194.5,347.5C 195.647,351.646 195.814,355.98 195,360.5C 194.417,356.168 193.917,351.835 193.5,347.5 Z"/></g>
<g><path style="opacity:1" fill="#9c8467" d="M 344.5,346.5 C 346.332,347.14 346.665,348.14 345.5,349.5C 344.614,348.675 344.281,347.675 344.5,346.5 Z"/></g>
<g><path style="opacity:1" fill="#887259" d="M 357.5,340.5 C 358.335,346.525 357.502,352.525 355,358.5C 355.499,352.488 356.333,346.488 357.5,340.5 Z"/></g>
<g><path style="opacity:1" fill="#c2a480" d="M 190.5,354.5 C 192.326,356.455 192.826,358.788 192,361.5C 191.023,359.26 190.523,356.927 190.5,354.5 Z"/></g>
<g><path style="opacity:1" fill="#534637" d="M 323.5,355.5 C 322.167,355.5 321.5,356.167 321.5,357.5C 321.666,361.846 321.499,366.179 321,370.5C 320.667,367.167 320.333,363.833 320,360.5C 319.623,359.058 318.79,358.058 317.5,357.5C 317.384,354.14 317.051,350.807 316.5,347.5C 317.158,346.602 317.824,345.602 318.5,344.5C 319.452,345.533 319.452,346.7 318.5,348C 318.611,349.722 319.111,349.888 320,348.5C 320.273,350.101 320.773,351.601 321.5,353C 320.833,353.333 320.167,353.667 319.5,354C 321.058,354.21 322.391,354.71 323.5,355.5 Z"/></g>
<g><path style="opacity:1" fill="#debb92" d="M 323.5,355.5 C 323.5,356.833 322.833,357.5 321.5,357.5C 321.5,356.167 322.167,355.5 323.5,355.5 Z"/></g>
<g><path style="opacity:1" fill="#967e63" d="M 329.5,353.5 C 329.833,353.5 330.167,353.5 330.5,353.5C 331.218,355.137 331.384,356.803 331,358.5C 329.991,356.975 329.491,355.308 329.5,353.5 Z"/></g>
<g><path style="opacity:1" fill="#debb92" d="M 316.5,362.5 C 316.271,365.337 316.104,368.337 316,371.5C 315.722,372.416 315.222,373.082 314.5,373.5C 313.604,369.387 313.771,365.387 315,361.5C 315.383,362.056 315.883,362.389 316.5,362.5 Z"/></g>
<g><path style="opacity:1" fill="#937c61" d="M 204.5,367.5 C 204.167,367.5 203.833,367.5 203.5,367.5C 202.737,364.859 202.57,362.192 203,359.5C 203.822,362.117 204.322,364.784 204.5,367.5 Z"/></g>
<g><path style="opacity:1" fill="#332c23" d="M 316.5,360.5 C 316.5,361.167 316.5,361.833 316.5,362.5C 315.883,362.389 315.383,362.056 315,361.5C 313.771,365.387 313.604,369.387 314.5,373.5C 313.698,372.048 313.198,370.382 313,368.5C 312.809,370.708 312.309,372.708 311.5,374.5C 311.334,370.154 311.501,365.821 312,361.5C 313.356,360.62 314.856,360.286 316.5,360.5 Z"/></g>
<g><path style="opacity:1" fill="#8e785d" d="M 326.5,351.5 C 327.437,356.854 327.437,362.188 326.5,367.5C 325.511,363.893 325.177,360.226 325.5,356.5C 325.216,354.585 325.549,352.919 326.5,351.5 Z"/></g>
<g><path style="opacity:1" fill="#625241" d="M 195.5,363.5 C 196.775,365.608 197.275,367.942 197,370.5C 195.798,368.323 195.298,365.989 195.5,363.5 Z"/></g>
<g><path style="opacity:1" fill="#c3a480" d="M 235.5,369.5 C 236.995,369.415 237.995,370.081 238.5,371.5C 237.302,371.94 236.135,372.273 235,372.5C 234.53,371.423 234.697,370.423 235.5,369.5 Z"/></g>
<g><path style="opacity:1" fill="#483d30" d="M 203.5,367.5 C 203.833,367.5 204.167,367.5 204.5,367.5C 205.498,367.344 206.498,367.844 207.5,369C 206.299,369.903 205.465,371.069 205,372.5C 204.667,372.167 204.333,371.833 204,371.5C 203.585,374.707 203.918,377.707 205,380.5C 202.267,376.56 200.934,372.227 201,367.5C 201.705,369.986 202.538,369.986 203.5,367.5 Z"/></g>
<g><path style="opacity:1" fill="#c8a984" d="M 276.5,369.5 C 277.788,371.035 277.788,372.701 276.5,374.5C 275.566,372.905 275.566,371.239 276.5,369.5 Z"/></g>
<g><path style="opacity:1" fill="#332b23" d="M 242.5,377.5 C 241.394,376.851 240.394,376.517 239.5,376.5C 240.754,373.806 241.754,371.139 242.5,368.5C 242.369,369.239 242.536,369.906 243,370.5C 243.583,368.998 244.416,367.665 245.5,366.5C 246.229,370.578 245.229,374.245 242.5,377.5 Z"/></g>
<g><path style="opacity:1" fill="#75634d" d="M 231.5,367.5 C 232.043,367.56 232.376,367.893 232.5,368.5C 231.164,371.51 229.831,374.51 228.5,377.5C 228.167,377.333 227.833,377.167 227.5,377C 228.034,373.473 229.368,370.306 231.5,367.5 Z"/></g>
<g><path style="opacity:1" fill="#998165" d="M 299.5,373.5 C 301.326,375.455 301.826,377.788 301,380.5C 300.023,378.26 299.523,375.927 299.5,373.5 Z"/></g>
<g><path style="opacity:1" fill="#7b6751" d="M 249.5,374.5 C 249.833,374.5 250.167,374.5 250.5,374.5C 250.024,378.095 248.858,381.428 247,384.5C 247.013,380.93 247.846,377.597 249.5,374.5 Z"/></g>
<g><path style="opacity:1" fill="#c8a984" d="M 273.5,377.5 C 274.777,378.694 275.444,380.36 275.5,382.5C 275.333,384.167 275.167,385.833 275,387.5C 274.39,384.173 273.89,380.839 273.5,377.5 Z"/></g>
<g><path style="opacity:1" fill="#836e56" d="M 296.5,375.5 C 298.088,377.527 298.588,379.861 298,382.5C 297.023,380.26 296.523,377.927 296.5,375.5 Z"/></g>
<g><path style="opacity:1" fill="#c9a984" d="M 269.5,377.5 C 270.694,381.389 270.528,385.389 269,389.5C 268.503,385.476 268.669,381.476 269.5,377.5 Z"/></g>
<g><path style="opacity:1" fill="#c0a27e" d="M 277.5,375.5 C 278.469,379.042 278.969,382.709 279,386.5C 277.585,383.042 277.085,379.375 277.5,375.5 Z"/></g>
<g><path style="opacity:1" fill="#988064" d="M 285.5,379.5 C 286.216,381.556 286.883,383.723 287.5,386C 287.167,386.167 286.833,386.333 286.5,386.5C 285.526,384.257 285.192,381.924 285.5,379.5 Z"/></g>
<g><path style="opacity:1" fill="#e4c096" d="M 211.5,394.5 C 213.148,395.81 214.814,397.143 216.5,398.5C 217.192,397.975 217.692,397.308 218,396.5C 221.167,398.333 224.333,400.167 227.5,402C 229.653,406.154 232.986,408.82 237.5,410C 248.608,420.71 260.275,430.71 272.5,440C 280.263,444.073 288.263,447.74 296.5,451C 304.852,452.394 312.185,450.394 318.5,445C 326.953,435.276 333.787,424.443 339,412.5C 338.703,421.347 338.203,430.014 337.5,438.5C 336.975,456.098 342.475,471.431 354,484.5C 354.821,487.554 354.655,490.554 353.5,493.5C 347.641,495.667 341.975,498 336.5,500.5C 293.5,500.5 250.5,500.5 207.5,500.5C 206.359,499.661 205.026,498.994 203.5,498.5C 202.128,491.894 201.128,485.227 200.5,478.5C 201.693,469.78 203.193,461.113 205,452.5C 205.865,433.597 205.032,414.763 202.5,396C 202.667,394.167 202.833,392.333 203,390.5C 204.509,392.71 206.342,394.543 208.5,396C 210.157,396.725 211.157,396.225 211.5,394.5 Z"/></g>
<g><path style="opacity:1" fill="#cdac87" d="M 211.5,394.5 C 208.677,393.852 207.177,392.186 207,389.5C 209.415,390.411 210.915,392.078 211.5,394.5 Z"/></g>
<g><path style="opacity:1" fill="#89745a" d="M 258.5,388.5 C 259.776,389.386 259.776,390.386 258.5,391.5C 257.438,390.575 257.438,389.575 258.5,388.5 Z"/></g>
<g><path style="opacity:1" fill="#704223" d="M 413.5,500.5 C 396.167,500.5 378.833,500.5 361.5,500.5C 359.9,483.198 355.733,466.531 349,450.5C 347.968,441.186 347.135,431.852 346.5,422.5C 346.595,417.51 347.762,412.844 350,408.5C 353.919,410.876 357.752,413.376 361.5,416C 366.881,422.593 372.381,429.093 378,435.5C 389.35,457.541 401.183,479.208 413.5,500.5 Z"/></g>
<g><path style="opacity:1" fill="#704223" d="M 198.5,500.5 C 179.833,500.5 161.167,500.5 142.5,500.5C 149.888,490.081 157.055,479.414 164,468.5C 167.597,458.64 172.263,449.307 178,440.5C 182.88,433.114 189.38,427.78 197.5,424.5C 198.308,424.808 198.975,425.308 199.5,426C 198.565,430.592 198.565,435.259 199.5,440C 197.97,452.481 196.637,464.981 195.5,477.5C 195.742,485.282 196.742,492.949 198.5,500.5 Z"/></g>
<g><path style="opacity:0.691" fill="#fefefe" d="M 40.5,499.5 C 40.5,499.833 40.5,500.167 40.5,500.5C 35.5,500.5 30.5,500.5 25.5,500.5C 25.5,500.167 25.5,499.833 25.5,499.5C 30.4018,496.961 35.4018,496.961 40.5,499.5 Z"/></g>
<g><path style="opacity:1" fill="#693e21" d="M 136.5,500.5 C 134.5,500.5 132.5,500.5 130.5,500.5C 133.188,498.734 136.021,497.067 139,495.5C 138.942,497.435 138.109,499.102 136.5,500.5 Z"/></g>
<g><path style="opacity:0.004" fill="#fefffe" d="M 25.5,499.5 C 24.8333,498.167 24.8333,498.167 25.5,499.5 Z"/></g>
<g><path style="opacity:0.004" fill="#fefffe" d="M 40.5,498.5 C 41.8333,499.167 41.8333,499.167 40.5,498.5 Z"/></g>
<g><path style="opacity:0.004" fill="#fefffe" d="M 21.5,500.5 C 20.8333,499.167 20.8333,499.167 21.5,500.5 Z"/></g>
</svg>
