<?xml version="1.0" encoding="UTF-8"?>
<!DOCTYPE svg PUBLIC "-//W3C//DTD SVG 1.1//EN" "http://www.w3.org/Graphics/SVG/1.1/DTD/svg11.dtd">
<svg xmlns="http://www.w3.org/2000/svg" version="1.1" width="530px" height="530px" style="shape-rendering:geometricPrecision; text-rendering:geometricPrecision; image-rendering:optimizeQuality; fill-rule:evenodd; clip-rule:evenodd" xmlns:xlink="http://www.w3.org/1999/xlink">
<g><path style="opacity:1" fill="#fefefe" d="M -0.5,-0.5 C 176.167,-0.5 352.833,-0.5 529.5,-0.5C 529.5,176.167 529.5,352.833 529.5,529.5C 490.167,529.5 450.833,529.5 411.5,529.5C 409.359,522.931 406.526,516.598 403,510.5C 399.195,507.681 395.029,505.514 390.5,504C 384.042,499.876 378.542,494.71 374,488.5C 370.553,482.007 367.387,475.34 364.5,468.5C 363.404,465.968 362.071,463.635 360.5,461.5C 358.189,458.337 356.022,455.003 354,451.5C 351.586,449.709 349.086,448.043 346.5,446.5C 345.959,444.286 345.626,442.12 345.5,440C 346.126,439.25 346.626,438.416 347,437.5C 347.294,425.477 347.961,413.477 349,401.5C 359.149,391.868 365.649,380.202 368.5,366.5C 371.757,357.143 374.257,347.477 376,337.5C 378.933,339.764 381.1,342.598 382.5,346C 385.122,347.805 387.789,347.805 390.5,346C 398.659,337.173 406.826,328.34 415,319.5C 420.869,307.881 422.369,295.714 419.5,283C 419.639,281.699 420.305,280.866 421.5,280.5C 422.833,279.833 423.833,278.833 424.5,277.5C 427.538,274.797 430.205,271.797 432.5,268.5C 437.838,264.148 440.171,258.481 439.5,251.5C 441.86,235.557 434.86,229.057 418.5,232C 415.234,233.803 411.9,235.303 408.5,236.5C 402.981,236.461 398.814,234.128 396,229.5C 394.291,219.551 395.791,210.217 400.5,201.5C 405.922,199.412 409.589,195.745 411.5,190.5C 411.415,188.667 410.748,187.334 409.5,186.5C 408.962,184.883 408.629,183.216 408.5,181.5C 409.458,181.047 410.292,180.381 411,179.5C 415.242,169.355 415.576,159.022 412,148.5C 409.248,145.547 406.082,143.214 402.5,141.5C 401.081,140.549 399.415,140.216 397.5,140.5C 394.1,134.767 389.1,131.434 382.5,130.5C 382.849,126.936 382.183,123.602 380.5,120.5C 379.692,120.808 379.025,121.308 378.5,122C 379.406,123.699 379.739,125.533 379.5,127.5C 377.324,123.837 374.657,120.504 371.5,117.5C 369.136,110.966 364.802,106.132 358.5,103C 352.613,100.859 346.946,101.026 341.5,103.5C 340.833,103.5 340.167,103.5 339.5,103.5C 336.187,100.522 332.853,97.5222 329.5,94.5C 332.19,86.8042 332.023,79.1375 329,71.5C 330.748,79.4231 328.581,86.0898 322.5,91.5C 321.5,91.1667 320.833,90.5 320.5,89.5C 325.011,81.0673 326.677,72.0673 325.5,62.5C 328.012,60.5216 329.512,57.8549 330,54.5C 331.02,40.8713 325.186,31.5379 312.5,26.5C 306.253,21.7643 299.586,20.931 292.5,24C 287.997,24.376 283.497,24.2094 279,23.5C 273.694,24.2247 268.527,25.2247 263.5,26.5C 262.547,24.39 260.881,23.2233 258.5,23C 252.017,21.8224 246.517,23.6557 242,28.5C 240.991,30.0249 240.491,31.6916 240.5,33.5C 240.443,34.609 240.11,35.609 239.5,36.5C 238.599,37.2905 237.932,38.2905 237.5,39.5C 224.861,46.4433 219.361,57.11 221,71.5C 222.444,75.4109 224.611,78.7442 227.5,81.5C 228.267,82.172 228.934,83.0053 229.5,84C 229.272,84.3988 228.938,84.5654 228.5,84.5C 225.061,84.7471 221.728,84.4137 218.5,83.5C 215.859,82.7369 213.192,82.5702 210.5,83C 211.624,83.2492 212.624,83.7492 213.5,84.5C 208.298,87.9113 204.798,92.578 203,98.5C 202.487,97.4734 201.987,96.4734 201.5,95.5C 200.791,94.596 199.791,94.2627 198.5,94.5C 197.732,93.7375 197.232,92.7375 197,91.5C 196.649,98.9033 193.483,104.737 187.5,109C 188.056,109.383 188.389,109.883 188.5,110.5C 188.167,110.5 187.833,110.5 187.5,110.5C 183.823,109.187 180.157,109.353 176.5,111C 166.647,119.207 162.98,129.707 165.5,142.5C 164.833,142.167 164.167,141.833 163.5,141.5C 163.489,139.314 162.489,138.481 160.5,139C 163.154,141.072 162.82,142.739 159.5,144C 152.585,145.749 145.919,148.082 139.5,151C 123.659,161.02 119.659,174.52 127.5,191.5C 127.791,195.777 129.791,198.777 133.5,200.5C 135.123,202.951 137.289,204.951 140,206.5C 143.246,213.584 142.912,220.584 139,227.5C 122.448,235.272 116.782,247.938 122,265.5C 127.135,268.649 127.801,272.649 124,277.5C 123.71,275.956 123.044,274.623 122,273.5C 121.398,276.662 121.898,279.662 123.5,282.5C 120.79,294.934 122.623,306.601 129,317.5C 136.462,326.631 144.295,335.464 152.5,344C 156.108,347.337 159.941,347.837 164,345.5C 165.08,343.004 166.414,340.67 168,338.5C 170.878,354.6 175.878,369.933 183,384.5C 186.422,389.678 190.089,394.678 194,399.5C 194.864,405.517 195.697,411.517 196.5,417.5C 196.167,418.167 195.833,418.833 195.5,419.5C 196.808,431.582 197.808,443.582 198.5,455.5C 196.847,455.66 195.514,456.326 194.5,457.5C 192.418,457.472 190.584,458.139 189,459.5C 186.055,470.313 182.055,480.646 177,490.5C 171.278,496.555 164.944,501.889 158,506.5C 154.235,512.456 151.235,518.789 149,525.5C 147.624,526.705 146.458,528.038 145.5,529.5C 96.8333,529.5 48.1667,529.5 -0.5,529.5C -0.5,352.833 -0.5,176.167 -0.5,-0.5 Z"/></g>
<g><path style="opacity:1" fill="#cbab8d" d="M 263.5,26.5 C 263.167,26.5 262.833,26.5 262.5,26.5C 259.977,25.1992 257.31,24.1992 254.5,23.5C 252.513,23.8676 251.513,24.5343 251.5,25.5C 247.276,27.3887 243.61,30.0554 240.5,33.5C 240.491,31.6916 240.991,30.0249 242,28.5C 246.517,23.6557 252.017,21.8224 258.5,23C 260.881,23.2233 262.547,24.39 263.5,26.5 Z"/></g>
<g><path style="opacity:1" fill="#f7f4f1" d="M 262.5,26.5 C 262.44,27.0431 262.107,27.3764 261.5,27.5C 258.292,26.198 254.959,25.5313 251.5,25.5C 251.513,24.5343 252.513,23.8676 254.5,23.5C 257.31,24.1992 259.977,25.1992 262.5,26.5 Z"/></g>
<g><path style="opacity:1" fill="#17130f" d="M 312.5,26.5 C 313.833,28.5 315.5,30.1667 317.5,31.5C 323.909,39.8085 326.576,49.1419 325.5,59.5C 325.5,60.5 325.5,61.5 325.5,62.5C 326.677,72.0673 325.011,81.0673 320.5,89.5C 320.833,90.5 321.5,91.1667 322.5,91.5C 328.581,86.0898 330.748,79.4231 329,71.5C 332.023,79.1375 332.19,86.8042 329.5,94.5C 332.853,97.5222 336.187,100.522 339.5,103.5C 342.336,108.495 344.502,113.828 346,119.5C 349.51,132.63 346.343,143.796 336.5,153C 332.056,156.053 327.556,156.219 323,153.5C 322.333,152.833 322.333,152.167 323,151.5C 328.883,154.103 333.883,152.77 338,147.5C 347.028,132.432 346.362,117.765 336,103.5C 329.764,97.1305 322.264,92.9638 313.5,91C 312.833,90 312.167,89 311.5,88C 316.265,83.739 319.599,78.5724 321.5,72.5C 322.301,70.9582 322.634,69.2915 322.5,67.5C 322.749,64.9979 323.083,62.4979 323.5,60C 323.556,48.8292 320.056,38.9958 313,30.5C 305.196,24.5005 296.863,23.8339 288,28.5C 282.059,26.3424 276.225,26.8424 270.5,30C 281.89,42.6219 287.224,57.4552 286.5,74.5C 285.833,70.8333 285.167,67.1667 284.5,63.5C 282.626,51.2513 277.626,40.4179 269.5,31C 266.824,30.2604 264.158,29.9271 261.5,30C 268.132,33.462 272.799,38.6287 275.5,45.5C 275.5,46.1667 275.167,46.5 274.5,46.5C 272.027,40.1937 267.693,35.6937 261.5,33C 260.833,31.6667 260.167,30.3333 259.5,29C 255.739,28.2617 252.072,28.5951 248.5,30C 245.22,32.7749 242.554,35.9416 240.5,39.5C 239.596,38.791 239.263,37.791 239.5,36.5C 240.11,35.609 240.443,34.609 240.5,33.5C 243.61,30.0554 247.276,27.3887 251.5,25.5C 254.959,25.5313 258.292,26.198 261.5,27.5C 262.107,27.3764 262.44,27.0431 262.5,26.5C 262.833,26.5 263.167,26.5 263.5,26.5C 268.527,25.2247 273.694,24.2247 279,23.5C 283.497,24.2094 287.997,24.376 292.5,24C 299.586,20.931 306.253,21.7643 312.5,26.5 Z"/></g>
<g><path style="opacity:1" fill="#b57f47" d="M 322.5,67.5 C 321.624,67.3691 320.957,67.7025 320.5,68.5C 317.708,77.1174 312.041,82.7841 303.5,85.5C 301.226,85.0298 299.226,84.0298 297.5,82.5C 300.269,78.3987 302.602,74.0653 304.5,69.5C 304.167,69.1667 303.833,68.8333 303.5,68.5C 301.214,73.4312 298.214,77.7646 294.5,81.5C 292.181,80.9361 289.847,80.4361 287.5,80C 286.594,78.3005 286.261,76.4672 286.5,74.5C 287.224,57.4552 281.89,42.6219 270.5,30C 276.225,26.8424 282.059,26.3424 288,28.5C 296.863,23.8339 305.196,24.5005 313,30.5C 320.056,38.9958 323.556,48.8292 323.5,60C 323.083,62.4979 322.749,64.9979 322.5,67.5 Z"/></g>
<g><path style="opacity:1" fill="#b67f47" d="M 274.5,46.5 C 279.229,56.6459 281.729,67.3125 282,78.5C 281.275,77.9415 280.442,77.6082 279.5,77.5C 276.708,77.7606 274.375,78.7606 272.5,80.5C 271.768,81.8083 270.934,83.1416 270,84.5C 269.131,81.6059 267.298,80.4392 264.5,81C 266.715,82.9426 266.715,84.6093 264.5,86C 268.127,86.6284 269.96,88.7951 270,92.5C 273.194,108.844 273.194,125.177 270,141.5C 269.616,144.06 268.783,146.394 267.5,148.5C 257.17,149.999 246.836,151.499 236.5,153C 235.748,153.671 235.414,154.504 235.5,155.5C 225.897,148.308 220.397,138.641 219,126.5C 215.414,110.05 219.581,96.0503 231.5,84.5C 230.487,82.4734 229.487,80.4734 228.5,78.5C 225.942,63.3297 229.942,50.3297 240.5,39.5C 242.554,35.9416 245.22,32.7749 248.5,30C 252.072,28.5951 255.739,28.2617 259.5,29C 260.167,30.3333 260.833,31.6667 261.5,33C 267.693,35.6937 272.027,40.1937 274.5,46.5 Z"/></g>
<g><path style="opacity:1" fill="#af7a44" d="M 284.5,63.5 C 284.665,67.1817 284.499,70.8484 284,74.5C 283.163,64.1332 280.329,54.4665 275.5,45.5C 272.799,38.6287 268.132,33.462 261.5,30C 264.158,29.9271 266.824,30.2604 269.5,31C 277.626,40.4179 282.626,51.2513 284.5,63.5 Z"/></g>
<g><path style="opacity:1" fill="#cda781" d="M 312.5,26.5 C 325.186,31.5379 331.02,40.8713 330,54.5C 329.512,57.8549 328.012,60.5216 325.5,62.5C 325.5,61.5 325.5,60.5 325.5,59.5C 326.966,58.653 327.8,57.3197 328,55.5C 329.344,48.6116 328.01,42.2782 324,36.5C 322.223,34.2101 320.056,32.5434 317.5,31.5C 315.5,30.1667 313.833,28.5 312.5,26.5 Z"/></g>
<g><path style="opacity:1" fill="#faf9f8" d="M 317.5,31.5 C 320.056,32.5434 322.223,34.2101 324,36.5C 328.01,42.2782 329.344,48.6116 328,55.5C 327.8,57.3197 326.966,58.653 325.5,59.5C 326.576,49.1419 323.909,39.8085 317.5,31.5 Z"/></g>
<g><path style="opacity:1" fill="#161008" d="M 251.5,40.5 C 250.732,39.7375 250.232,38.7375 250,37.5C 249.283,38.0442 248.783,38.7109 248.5,39.5C 247.637,41.4214 246.971,43.4214 246.5,45.5C 245.662,45.1583 245.328,44.4916 245.5,43.5C 246.709,38.7608 249.209,34.7608 253,31.5C 252.842,34.5019 252.342,37.5019 251.5,40.5 Z"/></g>
<g><path style="opacity:1" fill="#21180f" d="M 304.5,38.5 C 308.355,47.1504 309.355,56.1504 307.5,65.5C 306.692,65.1924 306.025,64.6924 305.5,64C 308.969,49.9058 304.969,38.4058 293.5,29.5C 295.123,28.5244 296.457,29.0244 297.5,31C 299.167,31.3333 300.833,31.6667 302.5,32C 310.181,40.382 313.014,50.2154 311,61.5C 310.333,56.1667 309.667,50.8333 309,45.5C 307.951,42.8133 306.451,40.48 304.5,38.5 Z"/></g>
<g><path style="opacity:1" fill="#9f703e" d="M 304.5,38.5 C 302.915,37.9976 302.415,36.9976 303,35.5C 304.039,36.2438 304.539,37.2438 304.5,38.5 Z"/></g>
<g><path style="opacity:1" fill="#caa178" d="M 237.5,39.5 C 236.167,41.1667 234.833,42.8333 233.5,44.5C 225.143,50.2165 221.31,58.2165 222,68.5C 222.705,71.4757 223.871,74.1423 225.5,76.5C 225.833,77.1667 226.167,77.8333 226.5,78.5C 227.11,79.391 227.443,80.391 227.5,81.5C 224.611,78.7442 222.444,75.4109 221,71.5C 219.361,57.11 224.861,46.4433 237.5,39.5 Z"/></g>
<g><path style="opacity:1" fill="#f1efed" d="M 233.5,44.5 C 227.371,54.2143 224.705,64.8809 225.5,76.5C 223.871,74.1423 222.705,71.4757 222,68.5C 221.31,58.2165 225.143,50.2165 233.5,44.5 Z"/></g>
<g><path style="opacity:1" fill="#4c351e" d="M 245.5,43.5 C 245.328,44.4916 245.662,45.1583 246.5,45.5C 245.928,50.8192 245.262,56.1525 244.5,61.5C 244.167,59.1667 243.833,56.8333 243.5,54.5C 243.363,50.5527 244.03,46.886 245.5,43.5 Z"/></g>
<g><path style="opacity:1" fill="#5b4023" d="M 251.5,40.5 C 250.934,47.4883 250.434,54.4883 250,61.5C 248.68,54.1353 248.18,46.8019 248.5,39.5C 248.783,38.7109 249.283,38.0442 250,37.5C 250.232,38.7375 250.732,39.7375 251.5,40.5 Z"/></g>
<g><path style="opacity:1" fill="#38322c" d="M 239.5,36.5 C 239.263,37.791 239.596,38.791 240.5,39.5C 229.942,50.3297 225.942,63.3297 228.5,78.5C 227.833,78.5 227.167,78.5 226.5,78.5C 226.167,77.8333 225.833,77.1667 225.5,76.5C 224.705,64.8809 227.371,54.2143 233.5,44.5C 234.833,42.8333 236.167,41.1667 237.5,39.5C 237.932,38.2905 238.599,37.2905 239.5,36.5 Z"/></g>
<g><path style="opacity:1" fill="#a67442" d="M 322.5,74.5 C 322.968,79.9667 321.302,84.9667 317.5,89.5C 316.328,89.0814 315.328,88.4147 314.5,87.5C 317.941,83.6124 320.608,79.279 322.5,74.5 Z"/></g>
<g><path style="opacity:1" fill="#b67f47" d="M 321.5,72.5 C 319.599,78.5724 316.265,83.739 311.5,88C 312.167,89 312.833,90 313.5,91C 322.264,92.9638 329.764,97.1305 336,103.5C 346.362,117.765 347.028,132.432 338,147.5C 333.883,152.77 328.883,154.103 323,151.5C 322.333,152.167 322.333,152.833 323,153.5C 327.556,156.219 332.056,156.053 336.5,153C 346.343,143.796 349.51,132.63 346,119.5C 344.502,113.828 342.336,108.495 339.5,103.5C 340.167,103.5 340.833,103.5 341.5,103.5C 344.831,103.906 347.831,105.24 350.5,107.5C 358.376,121.423 359.209,135.756 353,150.5C 351.647,151.685 350.48,153.019 349.5,154.5C 351.329,155.282 352.829,154.616 354,152.5C 360.642,139.239 361.309,125.572 356,111.5C 354.692,109.359 353.192,107.359 351.5,105.5C 359.936,105.496 366.103,109.496 370,117.5C 371.728,123.794 371.895,130.128 370.5,136.5C 370.556,137.737 371.056,138.737 372,139.5C 372.219,138.062 372.719,136.729 373.5,135.5C 376.921,140.986 378.254,146.986 377.5,153.5C 375.099,160.545 370.099,163.879 362.5,163.5C 359.253,163.919 356.586,162.919 354.5,160.5C 353.833,161.167 353.167,161.833 352.5,162.5C 348.167,160.667 343.833,158.833 339.5,157C 337.613,156.22 335.946,156.387 334.5,157.5C 328.303,155.248 322.97,156.415 318.5,161C 316.866,161.494 315.199,161.66 313.5,161.5C 312.999,153.156 310.499,145.489 306,138.5C 296.833,131.74 290.166,133.74 286,144.5C 285.51,145.793 285.343,147.127 285.5,148.5C 280.536,145.933 275.536,145.933 270.5,148.5C 272.692,143.741 274.359,138.741 275.5,133.5C 276.916,137.336 279.083,140.669 282,143.5C 278.782,134.936 276.615,125.936 275.5,116.5C 276.6,106.315 274.934,96.482 270.5,87C 275.669,87.3118 279.002,90.1451 280.5,95.5C 281.167,96.8333 281.833,96.8333 282.5,95.5C 280.267,90.599 276.934,86.599 272.5,83.5C 272.863,82.8165 273.196,82.1499 273.5,81.5C 277.078,80.4113 280.745,80.2446 284.5,81C 292.577,81.9626 299.577,85.1293 305.5,90.5C 306.59,89.273 307.924,88.4396 309.5,88C 308.376,87.7508 307.376,87.2508 306.5,86.5C 312.824,83.1737 317.824,78.5071 321.5,72.5 Z"/></g>
<g><path style="opacity:1" fill="#2d2114" d="M 275.5,45.5 C 280.329,54.4665 283.163,64.1332 284,74.5C 284.499,70.8484 284.665,67.1817 284.5,63.5C 285.167,67.1667 285.833,70.8333 286.5,74.5C 286.261,76.4672 286.594,78.3005 287.5,80C 289.847,80.4361 292.181,80.9361 294.5,81.5C 298.214,77.7646 301.214,73.4312 303.5,68.5C 303.833,68.8333 304.167,69.1667 304.5,69.5C 302.602,74.0653 300.269,78.3987 297.5,82.5C 299.226,84.0298 301.226,85.0298 303.5,85.5C 312.041,82.7841 317.708,77.1174 320.5,68.5C 320.957,67.7025 321.624,67.3691 322.5,67.5C 322.634,69.2915 322.301,70.9582 321.5,72.5C 317.824,78.5071 312.824,83.1737 306.5,86.5C 307.376,87.2508 308.376,87.7508 309.5,88C 307.924,88.4396 306.59,89.273 305.5,90.5C 299.577,85.1293 292.577,81.9626 284.5,81C 280.745,80.2446 277.078,80.4113 273.5,81.5C 273.5,80.8333 273.167,80.5 272.5,80.5C 274.375,78.7606 276.708,77.7606 279.5,77.5C 280.442,77.6082 281.275,77.9415 282,78.5C 281.729,67.3125 279.229,56.6459 274.5,46.5C 275.167,46.5 275.5,46.1667 275.5,45.5 Z"/></g>
<g><path style="opacity:1" fill="#b68047" d="M 198.5,94.5 C 199.791,94.2627 200.791,94.596 201.5,95.5C 200.651,102.37 199.985,109.537 199.5,117C 199.809,133.452 206.475,146.619 219.5,156.5C 212.825,157.277 206.825,159.611 201.5,163.5C 201.611,162.883 201.944,162.383 202.5,162C 186.381,163.394 177.714,155.894 176.5,139.5C 177.244,136.557 177.744,133.557 178,130.5C 180.37,123.427 183.537,116.761 187.5,110.5C 187.833,110.5 188.167,110.5 188.5,110.5C 194.362,106.781 197.696,101.448 198.5,94.5 Z"/></g>
<g><path style="opacity:1" fill="#4e4740" d="M 198.5,94.5 C 197.696,101.448 194.362,106.781 188.5,110.5C 188.389,109.883 188.056,109.383 187.5,109C 193.483,104.737 196.649,98.9033 197,91.5C 197.232,92.7375 197.732,93.7375 198.5,94.5 Z"/></g>
<g><path style="opacity:1" fill="#1a130b" d="M 311.5,98.5 C 315.766,106.897 316.433,115.564 313.5,124.5C 312.538,115.852 311.872,107.186 311.5,98.5 Z"/></g>
<g><path style="opacity:1" fill="#1e160f" d="M 226.5,78.5 C 227.167,78.5 227.833,78.5 228.5,78.5C 229.487,80.4734 230.487,82.4734 231.5,84.5C 219.581,96.0503 215.414,110.05 219,126.5C 220.397,138.641 225.897,148.308 235.5,155.5C 236.773,156.077 236.773,156.743 235.5,157.5C 229.973,157.785 224.64,157.452 219.5,156.5C 206.475,146.619 199.809,133.452 199.5,117C 199.985,109.537 200.651,102.37 201.5,95.5C 201.987,96.4734 202.487,97.4734 203,98.5C 204.798,92.578 208.298,87.9113 213.5,84.5C 212.624,83.7492 211.624,83.2492 210.5,83C 213.192,82.5702 215.859,82.7369 218.5,83.5C 209.279,89.5671 203.779,98.2338 202,109.5C 199.771,123.709 203.104,136.375 212,147.5C 211.778,145.544 210.945,143.71 209.5,142C 209.833,141.833 210.167,141.667 210.5,141.5C 213.618,144.907 216.618,148.407 219.5,152C 222.881,154.245 226.548,154.912 230.5,154C 225.898,149.963 222.398,145.129 220,139.5C 214.702,125.249 214.369,110.916 219,96.5C 221.619,92.0496 224.786,88.0496 228.5,84.5C 228.938,84.5654 229.272,84.3988 229.5,84C 228.934,83.0053 228.267,82.172 227.5,81.5C 227.443,80.391 227.11,79.391 226.5,78.5 Z"/></g>
<g><path style="opacity:1" fill="#b47e47" d="M 218.5,83.5 C 221.728,84.4137 225.061,84.7471 228.5,84.5C 224.786,88.0496 221.619,92.0496 219,96.5C 214.369,110.916 214.702,125.249 220,139.5C 222.398,145.129 225.898,149.963 230.5,154C 226.548,154.912 222.881,154.245 219.5,152C 216.618,148.407 213.618,144.907 210.5,141.5C 210.167,141.667 209.833,141.833 209.5,142C 210.945,143.71 211.778,145.544 212,147.5C 203.104,136.375 199.771,123.709 202,109.5C 203.779,98.2338 209.279,89.5671 218.5,83.5 Z"/></g>
<g><path style="opacity:1" fill="#1e160d" d="M 250.5,68.5 C 252.479,75.7417 254.479,83.075 256.5,90.5C 257.978,90.238 259.311,90.5713 260.5,91.5C 259.148,92.8962 257.481,93.5629 255.5,93.5C 252.152,92.6567 248.819,92.1567 245.5,92C 248.063,92.763 248.063,93.263 245.5,93.5C 243.063,91.7734 240.396,90.9401 237.5,91C 231.881,95.0522 228.381,100.552 227,107.5C 226.333,113.5 226.333,119.5 227,125.5C 228.52,134.06 231.187,142.06 235,149.5C 227.575,139.664 223.742,128.497 223.5,116C 223.8,107.434 226.3,99.6005 231,92.5C 233.08,90.8767 235.246,89.3767 237.5,88C 236.549,87.2825 236.383,86.4491 237,85.5C 239.224,87.054 241.724,88.054 244.5,88.5C 244.833,88.1667 245.167,87.8333 245.5,87.5C 243.048,83.3795 242.381,79.0461 243.5,74.5C 244.498,79.326 245.998,83.9927 248,88.5C 249.897,90.0163 252.064,90.683 254.5,90.5C 251.885,83.4847 250.552,76.1514 250.5,68.5 Z"/></g>
<g><path style="opacity:1" fill="#1c140c" d="M 252.5,101.5 C 253.124,101.917 253.457,102.584 253.5,103.5C 250.496,114.509 250.329,125.509 253,136.5C 254.211,139.759 256.044,142.592 258.5,145C 255.907,144.454 253.74,142.954 252,140.5C 247.25,127.425 247.417,114.425 252.5,101.5 Z"/></g>
<g><path style="opacity:1" fill="#b37f4a" d="M 371.5,117.5 C 374.657,120.504 377.324,123.837 379.5,127.5C 378.355,129.712 377.355,132.045 376.5,134.5C 375.833,134.167 375.167,133.833 374.5,133.5C 373.858,128.069 372.858,122.735 371.5,117.5 Z"/></g>
<g><path style="opacity:1" fill="#160f08" d="M 272.5,80.5 C 273.167,80.5 273.5,80.8333 273.5,81.5C 273.196,82.1499 272.863,82.8165 272.5,83.5C 276.934,86.599 280.267,90.599 282.5,95.5C 281.833,96.8333 281.167,96.8333 280.5,95.5C 279.002,90.1451 275.669,87.3118 270.5,87C 274.934,96.482 276.6,106.315 275.5,116.5C 276.615,125.936 278.782,134.936 282,143.5C 279.083,140.669 276.916,137.336 275.5,133.5C 274.359,138.741 272.692,143.741 270.5,148.5C 269.5,148.5 268.5,148.5 267.5,148.5C 268.783,146.394 269.616,144.06 270,141.5C 273.194,125.177 273.194,108.844 270,92.5C 269.96,88.7951 268.127,86.6284 264.5,86C 266.715,84.6093 266.715,82.9426 264.5,81C 267.298,80.4392 269.131,81.6059 270,84.5C 270.934,83.1416 271.768,81.8083 272.5,80.5 Z"/></g>
<g><path style="opacity:1" fill="#b57f47" d="M 395.5,173.5 C 387.697,176.842 381.197,175.176 376,168.5C 375.751,169.624 375.251,170.624 374.5,171.5C 371.018,170.257 367.684,168.757 364.5,167C 369.162,166.089 373.495,164.422 377.5,162C 379.734,160.362 381.067,158.195 381.5,155.5C 382.898,154.223 383.564,152.557 383.5,150.5C 382.657,145.819 380.99,141.486 378.5,137.5C 379.547,135.944 380.214,134.277 380.5,132.5C 383.667,132.4 386.667,133.067 389.5,134.5C 394.636,141.938 397.969,150.104 399.5,159C 399.488,164.296 398.155,169.129 395.5,173.5 Z"/></g>
<g><path style="opacity:1" fill="#b57f47" d="M 397.5,140.5 C 399.415,140.216 401.081,140.549 402.5,141.5C 402.062,141.435 401.728,141.601 401.5,142C 408.771,146.204 412.437,152.537 412.5,161C 411.957,165.895 411.123,170.728 410,175.5C 408.878,177.624 407.378,179.457 405.5,181C 406.448,181.483 407.448,181.649 408.5,181.5C 408.629,183.216 408.962,184.883 409.5,186.5C 409.838,189.157 409.171,191.49 407.5,193.5C 405.258,195.539 402.758,197.205 400,198.5C 399.92,189.503 396.087,182.669 388.5,178C 391.382,177.728 394.049,176.894 396.5,175.5C 398.708,174.106 400.208,172.106 401,169.5C 403.523,159.372 402.356,149.705 397.5,140.5 Z"/></g>
<g><path style="opacity:1" fill="#1c160f" d="M 371.5,117.5 C 372.858,122.735 373.858,128.069 374.5,133.5C 375.167,133.833 375.833,134.167 376.5,134.5C 377.355,132.045 378.355,129.712 379.5,127.5C 379.739,125.533 379.406,123.699 378.5,122C 379.025,121.308 379.692,120.808 380.5,120.5C 382.183,123.602 382.849,126.936 382.5,130.5C 389.1,131.434 394.1,134.767 397.5,140.5C 402.356,149.705 403.523,159.372 401,169.5C 400.208,172.106 398.708,174.106 396.5,175.5C 396.672,174.508 396.338,173.842 395.5,173.5C 398.155,169.129 399.488,164.296 399.5,159C 397.969,150.104 394.636,141.938 389.5,134.5C 386.667,133.067 383.667,132.4 380.5,132.5C 380.214,134.277 379.547,135.944 378.5,137.5C 380.99,141.486 382.657,145.819 383.5,150.5C 383.564,152.557 382.898,154.223 381.5,155.5C 381.19,154.262 380.69,154.262 380,155.5C 379.667,153.833 379.333,152.167 379,150.5C 378.768,151.737 378.268,152.737 377.5,153.5C 378.254,146.986 376.921,140.986 373.5,135.5C 372.719,136.729 372.219,138.062 372,139.5C 371.056,138.737 370.556,137.737 370.5,136.5C 371.895,130.128 371.728,123.794 370,117.5C 366.103,109.496 359.936,105.496 351.5,105.5C 353.192,107.359 354.692,109.359 356,111.5C 361.309,125.572 360.642,139.239 354,152.5C 352.829,154.616 351.329,155.282 349.5,154.5C 350.48,153.019 351.647,151.685 353,150.5C 359.209,135.756 358.376,121.423 350.5,107.5C 347.831,105.24 344.831,103.906 341.5,103.5C 346.946,101.026 352.613,100.859 358.5,103C 364.802,106.132 369.136,110.966 371.5,117.5 Z"/></g>
<g><path style="opacity:1" fill="#191614" d="M 402.5,141.5 C 406.082,143.214 409.248,145.547 412,148.5C 415.576,159.022 415.242,169.355 411,179.5C 410.292,180.381 409.458,181.047 408.5,181.5C 407.448,181.649 406.448,181.483 405.5,181C 407.378,179.457 408.878,177.624 410,175.5C 411.123,170.728 411.957,165.895 412.5,161C 412.437,152.537 408.771,146.204 401.5,142C 401.728,141.601 402.062,141.435 402.5,141.5 Z"/></g>
<g><path style="opacity:1" fill="#17120c" d="M 187.5,110.5 C 183.537,116.761 180.37,123.427 178,130.5C 177.744,133.557 177.244,136.557 176.5,139.5C 177.714,155.894 186.381,163.394 202.5,162C 201.944,162.383 201.611,162.883 201.5,163.5C 204.163,166.525 203.163,167.858 198.5,167.5C 194.581,167.37 190.914,166.37 187.5,164.5C 179.282,163.12 173.116,158.787 169,151.5C 168.1,148.282 166.933,145.282 165.5,142.5C 162.98,129.707 166.647,119.207 176.5,111C 180.157,109.353 183.823,109.187 187.5,110.5 Z"/></g>
<g><path style="opacity:1" fill="#b27d46" d="M 180.5,111.5 C 182.199,111.34 183.866,111.506 185.5,112C 175.791,123.332 172.958,136.166 177,150.5C 178.776,153.941 180.943,157.108 183.5,160C 180.983,160.257 178.65,159.59 176.5,158C 166.298,145.257 165.131,131.757 173,117.5C 175.134,114.847 177.634,112.847 180.5,111.5 Z"/></g>
<g><path style="opacity:1" fill="#a57646" d="M 127.5,191.5 C 129.973,194.804 132.973,197.638 136.5,200C 135.552,200.483 134.552,200.649 133.5,200.5C 129.791,198.777 127.791,195.777 127.5,191.5 Z"/></g>
<g><path style="opacity:1" fill="#b57f47" d="M 439.5,251.5 C 440.171,258.481 437.838,264.148 432.5,268.5C 435.586,253.433 429.586,246.267 414.5,247C 403.101,255.732 394.268,253.566 388,240.5C 384.991,233.389 385.158,226.389 388.5,219.5C 390.425,225.85 393.758,231.35 398.5,236C 402.722,239.111 407.389,240.111 412.5,239C 428.233,229.391 437.233,233.557 439.5,251.5 Z"/></g>
<g><path style="opacity:1" fill="#ebaa7b" d="M 321.5,373.5 C 322.167,372.833 322.833,372.167 323.5,371.5C 332.58,371.75 338.247,376.25 340.5,385C 339.207,390.794 335.873,394.96 330.5,397.5C 337.935,397.401 341.935,393.401 342.5,385.5C 340.879,374.717 334.546,368.884 323.5,368C 319.27,366.897 316.27,364.397 314.5,360.5C 316.154,358.857 317.487,357.024 318.5,355C 318.085,352.918 316.918,351.418 315,350.5C 314.055,350.905 313.388,351.572 313,352.5C 312.333,350.833 312.333,349.167 313,347.5C 315.032,344.146 317.032,340.813 319,337.5C 322.167,335 325.333,332.5 328.5,330C 346.923,330.648 362.423,324.481 375,311.5C 375.073,314.158 374.74,316.824 374,319.5C 369.435,335.499 364.935,351.499 360.5,367.5C 351.346,386.615 338.679,403.115 322.5,417C 314.486,424.008 306.153,430.675 297.5,437C 293.943,438.408 290.276,439.408 286.5,440C 272.167,442.775 258.167,441.775 244.5,437C 240.765,434.147 237.098,431.313 233.5,428.5C 215.725,414.894 200.558,398.894 188,380.5C 185.39,374.947 183.057,369.281 181,363.5C 176.309,345.398 171.642,327.398 167,309.5C 190.015,332.502 215.515,335.669 243.5,319C 256.526,308.14 264.193,294.306 266.5,277.5C 270.167,277.5 273.833,277.5 277.5,277.5C 281.872,305.376 297.872,322.543 325.5,329C 314.511,335.845 307.011,345.345 303,357.5C 302.439,356.978 301.772,356.645 301,356.5C 299.908,357.296 298.741,357.963 297.5,358.5C 288.281,356.863 279.281,357.696 270.5,361C 258.573,361.853 246.74,363.353 235,365.5C 233.5,365.333 232,365.167 230.5,365C 227.312,361.642 224.312,361.809 221.5,365.5C 222.313,366.814 223.313,367.981 224.5,369C 232.437,369.132 239.437,371.799 245.5,377C 258.333,384.44 271.666,385.44 285.5,380C 291.755,375.622 297.922,371.122 304,366.5C 305.793,369.295 307.96,371.795 310.5,374C 314.203,374.579 317.869,374.412 321.5,373.5 Z"/></g>
<g><path style="opacity:1" fill="#b88a5b" d="M 424.5,277.5 C 423.833,278.833 422.833,279.833 421.5,280.5C 421.5,279.5 421.5,278.5 421.5,277.5C 422.5,277.5 423.5,277.5 424.5,277.5 Z"/></g>
<g><path style="opacity:1" fill="#120d0a" d="M 313.5,161.5 C 314.509,166.796 314.676,172.129 314,177.5C 312.667,182.167 311.333,186.833 310,191.5C 304.137,203.71 297.804,215.71 291,227.5C 290.132,230.485 289.799,233.485 290,236.5C 294.734,232.556 298.568,227.889 301.5,222.5C 302.167,223.167 302.833,223.833 303.5,224.5C 324.41,213.45 345.077,213.95 365.5,226C 368.295,227.793 370.795,229.96 373,232.5C 375.547,225.536 379.213,219.203 384,213.5C 385.107,196.037 377.607,183.703 361.5,176.5C 360.33,175.306 360.663,174.639 362.5,174.5C 378.197,182.092 386.863,194.759 388.5,212.5C 389.951,208.947 391.951,205.614 394.5,202.5C 390.614,199.907 391.281,198.907 396.5,199.5C 397.421,191.176 394.421,184.676 387.5,180C 381.312,177.075 374.979,174.409 368.5,172C 364.984,170.744 361.984,168.744 359.5,166C 357.134,165.56 354.801,165.06 352.5,164.5C 346.657,161.774 340.657,159.441 334.5,157.5C 335.946,156.387 337.613,156.22 339.5,157C 343.833,158.833 348.167,160.667 352.5,162.5C 353.167,161.833 353.833,161.167 354.5,160.5C 356.586,162.919 359.253,163.919 362.5,163.5C 370.099,163.879 375.099,160.545 377.5,153.5C 378.268,152.737 378.768,151.737 379,150.5C 379.333,152.167 379.667,153.833 380,155.5C 380.69,154.262 381.19,154.262 381.5,155.5C 381.067,158.195 379.734,160.362 377.5,162C 373.495,164.422 369.162,166.089 364.5,167C 367.684,168.757 371.018,170.257 374.5,171.5C 375.251,170.624 375.751,169.624 376,168.5C 381.197,175.176 387.697,176.842 395.5,173.5C 396.338,173.842 396.672,174.508 396.5,175.5C 394.049,176.894 391.382,177.728 388.5,178C 396.087,182.669 399.92,189.503 400,198.5C 402.758,197.205 405.258,195.539 407.5,193.5C 409.171,191.49 409.838,189.157 409.5,186.5C 410.748,187.334 411.415,188.667 411.5,190.5C 409.589,195.745 405.922,199.412 400.5,201.5C 395.791,210.217 394.291,219.551 396,229.5C 398.814,234.128 402.981,236.461 408.5,236.5C 411.9,235.303 415.234,233.803 418.5,232C 434.86,229.057 441.86,235.557 439.5,251.5C 437.233,233.557 428.233,229.391 412.5,239C 407.389,240.111 402.722,239.111 398.5,236C 393.758,231.35 390.425,225.85 388.5,219.5C 385.158,226.389 384.991,233.389 388,240.5C 394.268,253.566 403.101,255.732 414.5,247C 429.586,246.267 435.586,253.433 432.5,268.5C 430.205,271.797 427.538,274.797 424.5,277.5C 423.5,277.5 422.5,277.5 421.5,277.5C 421.5,278.5 421.5,279.5 421.5,280.5C 420.305,280.866 419.639,281.699 419.5,283C 422.369,295.714 420.869,307.881 415,319.5C 406.826,328.34 398.659,337.173 390.5,346C 387.789,347.805 385.122,347.805 382.5,346C 381.1,342.598 378.933,339.764 376,337.5C 374.257,347.477 371.757,357.143 368.5,366.5C 367.098,366.264 365.598,365.93 364,365.5C 362.923,366.429 361.756,367.096 360.5,367.5C 364.935,351.499 369.435,335.499 374,319.5C 374.74,316.824 375.073,314.158 375,311.5C 362.423,324.481 346.923,330.648 328.5,330C 325.333,332.5 322.167,335 319,337.5C 317.032,340.813 315.032,344.146 313,347.5C 312.333,349.167 312.333,350.833 313,352.5C 313.388,351.572 314.055,350.905 315,350.5C 316.918,351.418 318.085,352.918 318.5,355C 317.487,357.024 316.154,358.857 314.5,360.5C 316.27,364.397 319.27,366.897 323.5,368C 334.546,368.884 340.879,374.717 342.5,385.5C 341.935,393.401 337.935,397.401 330.5,397.5C 335.873,394.96 339.207,390.794 340.5,385C 338.247,376.25 332.58,371.75 323.5,371.5C 319.799,369.218 316.299,366.551 313,363.5C 310.855,359.066 309.522,354.4 309,349.5C 306.212,355.709 305.879,362.042 308,368.5C 310.909,372.311 314.576,373.311 319,371.5C 320.376,371.684 321.209,372.351 321.5,373.5C 317.869,374.412 314.203,374.579 310.5,374C 307.96,371.795 305.793,369.295 304,366.5C 297.922,371.122 291.755,375.622 285.5,380C 271.666,385.44 258.333,384.44 245.5,377C 239.437,371.799 232.437,369.132 224.5,369C 223.313,367.981 222.313,366.814 221.5,365.5C 224.312,361.809 227.312,361.642 230.5,365C 232,365.167 233.5,365.333 235,365.5C 246.74,363.353 258.573,361.853 270.5,361C 279.281,357.696 288.281,356.863 297.5,358.5C 298.741,357.963 299.908,357.296 301,356.5C 301.772,356.645 302.439,356.978 303,357.5C 307.011,345.345 314.511,335.845 325.5,329C 297.872,322.543 281.872,305.376 277.5,277.5C 273.833,277.5 270.167,277.5 266.5,277.5C 264.193,294.306 256.526,308.14 243.5,319C 215.515,335.669 190.015,332.502 167,309.5C 171.642,327.398 176.309,345.398 181,363.5C 183.057,369.281 185.39,374.947 188,380.5C 200.558,398.894 215.725,414.894 233.5,428.5C 230.5,428.5 227.5,428.5 224.5,428.5C 216.627,422.164 209.127,415.497 202,408.5C 203.037,427.93 204.203,447.43 205.5,467C 205.482,474.535 204.982,482.035 204,489.5C 202.095,494.548 200.595,499.715 199.5,505C 200.143,513.295 201.476,521.461 203.5,529.5C 202.833,529.5 202.167,529.5 201.5,529.5C 197.35,515.5 195.683,501.5 196.5,487.5C 197.251,488.376 197.751,489.376 198,490.5C 198.986,485.882 199.153,481.382 198.5,477C 198.446,474.127 199.112,471.46 200.5,469C 199.671,464.558 199.004,460.058 198.5,455.5C 197.808,443.582 196.808,431.582 195.5,419.5C 195.833,418.833 196.167,418.167 196.5,417.5C 195.697,411.517 194.864,405.517 194,399.5C 190.089,394.678 186.422,389.678 183,384.5C 175.878,369.933 170.878,354.6 168,338.5C 166.414,340.67 165.08,343.004 164,345.5C 159.941,347.837 156.108,347.337 152.5,344C 144.295,335.464 136.462,326.631 129,317.5C 122.623,306.601 120.79,294.934 123.5,282.5C 121.898,279.662 121.398,276.662 122,273.5C 123.044,274.623 123.71,275.956 124,277.5C 127.801,272.649 127.135,268.649 122,265.5C 116.782,247.938 122.448,235.272 139,227.5C 142.912,220.584 143.246,213.584 140,206.5C 137.289,204.951 135.123,202.951 133.5,200.5C 134.552,200.649 135.552,200.483 136.5,200C 132.973,197.638 129.973,194.804 127.5,191.5C 119.659,174.52 123.659,161.02 139.5,151C 145.919,148.082 152.585,145.749 159.5,144C 162.82,142.739 163.154,141.072 160.5,139C 162.489,138.481 163.489,139.314 163.5,141.5C 163.822,143.722 163.155,145.556 161.5,147C 167.755,153.415 173.422,160.248 178.5,167.5C 176.328,171.521 174.328,175.521 172.5,179.5C 171.18,180.942 169.514,181.608 167.5,181.5C 167.427,189.278 166.594,189.278 165,181.5C 152.258,175.128 148.424,165.128 153.5,151.5C 152.369,150.396 151.535,150.729 151,152.5C 147.846,166.035 151.012,177.869 160.5,188C 162.65,189.411 164.984,190.245 167.5,190.5C 167.5,191.167 167.5,191.833 167.5,192.5C 165.473,192.662 163.473,192.495 161.5,192C 149.513,180.823 144.846,167.323 147.5,151.5C 138.373,154.648 131.873,160.648 128,169.5C 124.213,181.816 127.713,191.316 138.5,198C 141.06,197.786 143.726,197.786 146.5,198C 137.952,191.564 133.952,182.898 134.5,172C 134.518,165.794 137.018,160.961 142,157.5C 146.797,159.463 146.63,160.796 141.5,161.5C 134.743,174.517 136.743,186.017 147.5,196C 152.98,197.999 158.646,199.166 164.5,199.5C 165.928,202.012 166.428,204.678 166,207.5C 164.547,210.298 163.547,213.298 163,216.5C 162.218,219.076 160.718,221.076 158.5,222.5C 159.5,223.167 160.5,223.833 161.5,224.5C 158.795,227.701 156.295,231.035 154,234.5C 153.333,237.5 153.333,240.5 154,243.5C 155.074,244.618 156.24,245.618 157.5,246.5C 156.5,247.167 155.5,247.833 154.5,248.5C 155.154,250.115 155.654,251.782 156,253.5C 164.956,231.719 181.123,219.052 204.5,215.5C 217.541,215.425 229.541,218.758 240.5,225.5C 241.29,226.401 242.29,227.068 243.5,227.5C 257.763,239.025 265.43,254.025 266.5,272.5C 270.106,272.211 273.606,272.544 277,273.5C 277.333,269.833 277.667,266.167 278,262.5C 281.826,251.374 284.826,240.041 287,228.5C 294,214.5 301,200.5 308,186.5C 312.348,172.98 311.848,159.646 306.5,146.5C 303.022,137.16 297.856,135.826 291,142.5C 290.209,143.745 289.709,145.078 289.5,146.5C 288.733,147.172 288.066,148.005 287.5,149C 286.563,149.692 285.897,149.525 285.5,148.5C 285.343,147.127 285.51,145.793 286,144.5C 290.166,133.74 296.833,131.74 306,138.5C 310.499,145.489 312.999,153.156 313.5,161.5 Z"/></g>
<g><path style="opacity:1" fill="#17120d" d="M 286.5,335.5 C 287.833,335.5 289.167,335.5 290.5,335.5C 290.5,336.5 290.5,337.5 290.5,338.5C 289.448,338.351 288.448,338.517 287.5,339C 285.38,341.409 283.38,343.909 281.5,346.5C 279.5,347.833 277.5,347.833 275.5,346.5C 278.881,342.452 282.548,338.785 286.5,335.5 Z"/></g>
<g><path style="opacity:1" fill="#17110d" d="M 250.5,321.5 C 251.043,321.56 251.376,321.893 251.5,322.5C 248.598,327.509 247.931,332.842 249.5,338.5C 250.451,339.326 251.451,339.492 252.5,339C 250.833,335.667 251.833,334.333 255.5,335C 260.401,339.412 265.401,343.578 270.5,347.5C 269.635,348.583 268.635,348.749 267.5,348C 263.802,345.814 260.468,343.147 257.5,340C 256.207,339.51 254.873,339.343 253.5,339.5C 253.5,340.5 253.5,341.5 253.5,342.5C 247.642,341.693 244.642,338.193 244.5,332C 245.873,328.081 247.873,324.581 250.5,321.5 Z"/></g>
<g><path style="opacity:1" fill="#16110c" d="M 291.5,324.5 C 297.35,329.06 298.684,334.727 295.5,341.5C 288.002,344.117 287.502,342.784 294,337.5C 294.529,332.916 293.696,328.583 291.5,324.5 Z"/></g>
<g><path style="opacity:1" fill="#221a14" d="M 266.5,314.5 C 269.199,316.828 271.699,319.494 274,322.5C 274.982,323.759 275.315,325.092 275,326.5C 271.533,322.88 268.7,318.88 266.5,314.5 Z"/></g>
<g><path style="opacity:1" fill="#1d150f" d="M 273.5,318.5 C 273.897,317.475 274.563,317.308 275.5,318C 277.007,318.837 277.507,320.004 277,321.5C 275.961,320.29 274.794,319.29 273.5,318.5 Z"/></g>
<g><path style="opacity:1" fill="#1c1510" d="M 257.5,310.5 C 259.017,310.511 260.184,311.177 261,312.5C 263.667,315.833 266.333,319.167 269,322.5C 269.667,323.167 269.667,323.833 269,324.5C 264.911,319.956 261.078,315.289 257.5,310.5 Z"/></g>
<g><path style="opacity:1" fill="#e5a678" d="M 128.5,286.5 C 131.174,287.502 133.508,289.002 135.5,291C 134.541,293.12 134.374,295.287 135,297.5C 136.022,293.982 138.189,291.648 141.5,290.5C 145.733,290.567 146.733,292.4 144.5,296C 145.706,298.9 146.372,301.734 146.5,304.5C 145.855,306.432 144.521,307.599 142.5,308C 144.49,311.99 147.657,314.49 152,315.5C 153.115,318.155 153.782,320.821 154,323.5C 151.097,321.053 148.43,318.386 146,315.5C 145.333,316.833 145.333,318.167 146,319.5C 148.19,321.388 150.023,323.555 151.5,326C 158.426,330.414 160.926,328.581 159,320.5C 158.55,317.894 157.05,316.561 154.5,316.5C 154.649,315.448 154.483,314.448 154,313.5C 152.075,311.787 149.908,310.453 147.5,309.5C 148.973,305.221 150.973,301.221 153.5,297.5C 152.276,295.161 152.276,292.828 153.5,290.5C 154.425,289.359 155.259,289.359 156,290.5C 159.605,303.79 163.105,317.123 166.5,330.5C 165.533,332.63 164.366,334.63 163,336.5C 161.608,333.606 159.441,331.606 156.5,330.5C 153.334,331.174 151.834,333.174 152,336.5C 143.945,328.445 136.612,319.778 130,310.5C 127.842,302.583 127.342,294.583 128.5,286.5 Z"/></g>
<g><path style="opacity:1" fill="#0e0a07" d="M 132.5,299.5 C 134,304.809 136.834,309.476 141,313.5C 141.688,314.332 141.521,314.998 140.5,315.5C 134.018,311.871 131.352,306.538 132.5,299.5 Z"/></g>
<g><path style="opacity:1" fill="#8d6337" d="M 149.5,285.5 C 151.975,285.747 151.975,286.413 149.5,287.5C 148.537,287.03 148.537,286.363 149.5,285.5 Z"/></g>
<g><path style="opacity:1" fill="#4f2b1d" d="M 300.5,277.5 C 303.696,279.44 307.029,280.774 310.5,281.5C 310.209,282.649 309.376,283.316 308,283.5C 305.73,282.14 303.23,281.473 300.5,281.5C 300.918,280.778 301.584,280.278 302.5,280C 300.618,279.802 298.952,279.302 297.5,278.5C 298.791,278.737 299.791,278.404 300.5,277.5 Z"/></g>
<g><path style="opacity:1" fill="#a77541" d="M 156.5,270.5 C 157.693,270.97 158.36,271.97 158.5,273.5C 158.308,275.577 157.808,277.577 157,279.5C 156.502,276.518 156.335,273.518 156.5,270.5 Z"/></g>
<g><path style="opacity:1" fill="#b57f48" d="M 135.5,232.5 C 136.552,232.351 137.552,232.517 138.5,233C 131.519,241.801 129.686,251.634 133,262.5C 134.873,264.709 137.04,266.542 139.5,268C 144.248,268.674 148.748,269.84 153,271.5C 153.824,274.882 153.657,278.216 152.5,281.5C 144.668,287.976 136.668,288.143 128.5,282C 129.579,278.089 131.412,274.589 134,271.5C 134.333,271.833 134.667,272.167 135,272.5C 137.147,271.887 139.314,271.221 141.5,270.5C 123.708,269.848 118.208,261.181 125,244.5C 127.649,239.689 131.149,235.689 135.5,232.5 Z"/></g>
<g><path style="opacity:1" fill="#0f0a06" d="M 134.5,273.5 C 139,273.219 139.833,274.886 137,278.5C 135.445,280.515 133.611,280.848 131.5,279.5C 132.559,277.466 133.559,275.466 134.5,273.5 Z"/></g>
<g><path style="opacity:1" fill="#e9e9e9" d="M 414.5,266.5 C 418.407,268.654 419.907,271.987 419,276.5C 417.39,273.15 415.89,269.816 414.5,266.5 Z"/></g>
<g><path style="opacity:1" fill="#e5a677" d="M 404.5,264.5 C 405.822,264.33 406.989,264.663 408,265.5C 411.405,270.143 413.571,275.31 414.5,281C 414.355,281.772 414.022,282.439 413.5,283C 410.607,284.149 407.607,284.649 404.5,284.5C 405.35,278.913 407.683,278.247 411.5,282.5C 412.568,280.813 412.401,279.146 411,277.5C 408.464,272.81 405.297,272.31 401.5,276C 398.516,279.264 395.349,282.43 392,285.5C 391.371,288.311 390.871,291.144 390.5,294C 392.471,299.413 394.138,304.913 395.5,310.5C 391.266,310.406 388.933,312.406 388.5,316.5C 383.724,318.411 382.557,321.744 385,326.5C 387.369,328.908 389.869,328.908 392.5,326.5C 394.629,323.737 396.629,320.904 398.5,318C 398.387,316.72 397.72,315.887 396.5,315.5C 394.534,317.968 392.368,320.301 390,322.5C 389.598,316.591 392.432,313.591 398.5,313.5C 399.167,311.5 399.833,309.5 400.5,307.5C 399.5,307.5 398.5,307.5 397.5,307.5C 398.066,300.512 398.566,293.512 399,286.5C 399.71,285.027 400.876,284.36 402.5,284.5C 404.107,289.048 406.274,293.381 409,297.5C 409.442,293.494 408.276,289.994 405.5,287C 408.557,286.744 411.557,286.244 414.5,285.5C 417.302,296.743 415.302,307.076 408.5,316.5C 402.528,322.46 397.028,328.793 392,335.5C 389.98,331.236 386.813,329.902 382.5,331.5C 381.37,334.821 381.37,337.821 382.5,340.5C 380.833,337.833 379.167,335.167 377.5,332.5C 378.686,327.401 380.186,322.401 382,317.5C 384.667,304.164 387.334,290.83 390,277.5C 392.843,274.989 395.343,272.156 397.5,269C 399.898,267.476 402.231,265.976 404.5,264.5 Z"/></g>
<g><path style="opacity:1" fill="#17110d" d="M 409.5,299.5 C 410.117,299.611 410.617,299.944 411,300.5C 412.213,307.609 409.547,312.609 403,315.5C 402.5,315.167 402,314.833 401.5,314.5C 403.5,312.167 405.5,309.833 407.5,307.5C 408.169,304.803 408.836,302.137 409.5,299.5 Z"/></g>
<g><path style="opacity:1" fill="#eaaa7a" d="M 300.5,281.5 C 303.23,281.473 305.73,282.14 308,283.5C 309.376,283.316 310.209,282.649 310.5,281.5C 317.869,282.274 323.369,285.94 327,292.5C 332.193,300.799 334.193,309.799 333,319.5C 332.22,323.117 330.053,325.117 326.5,325.5C 302.114,320.947 286.947,306.614 281,282.5C 280.028,273.694 280.694,265.027 283,256.5C 283.121,264.863 285.621,272.363 290.5,279C 293.608,280.759 296.941,281.592 300.5,281.5 Z"/></g>
<g><path style="opacity:1" fill="#0e0a06" d="M 281.5,278.5 C 285.221,279.06 287.555,281.226 288.5,285C 286.557,286.345 284.724,285.845 283,283.5C 281.991,281.975 281.491,280.308 281.5,278.5 Z"/></g>
<g><path style="opacity:1" fill="#b17c45" d="M 300.5,277.5 C 299.791,278.404 298.791,278.737 297.5,278.5C 290.602,276.081 287.102,271.081 287,263.5C 286.333,260.167 286.333,256.833 287,253.5C 288.682,263.208 293.182,271.208 300.5,277.5 Z"/></g>
<g><path style="opacity:1" fill="#b47e47" d="M 417.5,249.5 C 423.695,248.345 427.861,250.678 430,256.5C 431.297,264.228 428.964,270.561 423,275.5C 422.258,270.849 420.092,267.016 416.5,264C 411.129,260.695 405.296,258.528 399,257.5C 395.471,254.416 395.638,253.583 399.5,255C 406.469,255.93 412.469,254.097 417.5,249.5 Z"/></g>
<g><path style="opacity:1" fill="#b17c45" d="M 376.5,241.5 C 381.081,245.983 383.415,251.316 383.5,257.5C 379.006,253.173 376.673,247.84 376.5,241.5 Z"/></g>
<g><path style="opacity:1" fill="#eaaa7a" d="M 367.5,231.5 C 372.817,234.572 374.984,239.238 374,245.5C 375.838,253.013 380.004,258.847 386.5,263C 383.618,275.781 380.784,288.614 378,301.5C 367.407,317.546 352.573,325.212 333.5,324.5C 336.234,319.525 337.067,314.192 336,308.5C 333.766,296.3 327.6,286.8 317.5,280C 312.027,278.708 306.693,277.041 301.5,275C 292.626,266.38 288.459,255.88 289,243.5C 291.463,240.035 294.296,236.869 297.5,234C 298.996,233.493 300.163,233.993 301,235.5C 301.24,233.148 302.073,231.148 303.5,229.5C 302.915,232.261 303.915,233.927 306.5,234.5C 325.756,227.282 345.089,226.948 364.5,233.5C 365.739,233.058 366.739,232.391 367.5,231.5 Z"/></g>
<g><path style="opacity:1" fill="#5b422f" d="M 365.5,267.5 C 366.675,267.281 367.675,267.614 368.5,268.5C 367.754,269.736 367.421,271.07 367.5,272.5C 364.614,273.246 361.614,273.08 358.5,272C 360.898,270.476 363.231,268.976 365.5,267.5 Z"/></g>
<g><path style="opacity:1" fill="#282825" d="M 326.5,265.5 C 327.167,267.167 327.833,268.833 328.5,270.5C 327.833,270.167 327.167,269.833 326.5,269.5C 325.859,268.518 325.193,267.518 324.5,266.5C 324.957,265.702 325.624,265.369 326.5,265.5 Z"/></g>
<g><path style="opacity:1" fill="#32746d" d="M 326.5,265.5 C 327.5,265.5 328.5,265.5 329.5,265.5C 333.514,265.334 337.514,265.501 341.5,266C 339.859,267.129 338.859,268.629 338.5,270.5C 335.186,271.707 331.852,271.707 328.5,270.5C 327.833,268.833 327.167,267.167 326.5,265.5 Z"/></g>
<g><path style="opacity:1" fill="#e6dbd8" d="M 324.5,260.5 C 327.833,260.5 329.5,262.167 329.5,265.5C 328.5,265.5 327.5,265.5 326.5,265.5C 325.624,265.369 324.957,265.702 324.5,266.5C 325.193,267.518 325.859,268.518 326.5,269.5C 321.549,268.772 316.549,268.272 311.5,268C 310.619,267.292 309.953,266.458 309.5,265.5C 313.715,261.214 318.715,259.547 324.5,260.5 Z"/></g>
<g><path style="opacity:1" fill="#30595e" d="M 344.5,259.5 C 345.091,263.964 343.758,267.631 340.5,270.5C 339.833,270.5 339.167,270.5 338.5,270.5C 338.859,268.629 339.859,267.129 341.5,266C 337.514,265.501 333.514,265.334 329.5,265.5C 329.5,262.167 327.833,260.5 324.5,260.5C 324.918,259.778 325.584,259.278 326.5,259C 331.823,258.501 337.156,258.334 342.5,258.5C 342.367,261.925 343.033,262.258 344.5,259.5 Z"/></g>
<g><path style="opacity:1" fill="#ddceca" d="M 343.5,270.5 C 342.5,270.5 341.5,270.5 340.5,270.5C 343.758,267.631 345.091,263.964 344.5,259.5C 345.738,258.588 347.072,258.421 348.5,259C 351.5,260.667 354.5,262.333 357.5,264C 353.123,267.025 348.456,269.192 343.5,270.5 Z"/></g>
<g><path style="opacity:1" fill="#0d0b0a" d="M 343.5,270.5 C 348.456,269.192 353.123,267.025 357.5,264C 354.5,262.333 351.5,260.667 348.5,259C 347.072,258.421 345.738,258.588 344.5,259.5C 343.033,262.258 342.367,261.925 342.5,258.5C 337.156,258.334 331.823,258.501 326.5,259C 325.584,259.278 324.918,259.778 324.5,260.5C 318.715,259.547 313.715,261.214 309.5,265.5C 308.022,265.762 306.689,265.429 305.5,264.5C 318.719,251.994 333.719,248.827 350.5,255C 356.569,257.025 361.902,260.025 366.5,264C 361.059,266.543 355.392,268.877 349.5,271C 347.288,271.789 345.288,271.622 343.5,270.5 Z"/></g>
<g><path style="opacity:1" fill="#271d16" d="M 313.5,238.5 C 314.756,238.461 315.756,238.961 316.5,240C 312.254,243.316 309.087,247.483 307,252.5C 306.433,248.883 306.766,245.216 308,241.5C 308.333,241.833 308.667,242.167 309,242.5C 310.067,241.809 311.234,241.309 312.5,241C 313.252,240.329 313.586,239.496 313.5,238.5 Z"/></g>
<g><path style="opacity:1" fill="#ebaa7b" d="M 241.5,229.5 C 241.051,231.977 241.717,233.977 243.5,235.5C 244.251,234.624 244.751,233.624 245,232.5C 259.376,245.001 265.043,260.667 262,279.5C 260.951,278.483 259.784,278.316 258.5,279C 252.719,285.275 253.719,287.442 261.5,285.5C 256.287,303.547 244.953,316.047 227.5,323C 201.987,329.94 181.154,323.106 165,302.5C 163.897,296.82 162.731,291.153 161.5,285.5C 164.138,279.117 163.972,272.784 161,266.5C 160.395,268.481 159.395,268.815 158,267.5C 158.516,253.134 164.35,241.467 175.5,232.5C 181.317,233.474 186.983,232.64 192.5,230C 204.213,228.08 215.88,228.413 227.5,231C 231.706,232.777 236.039,233.944 240.5,234.5C 240.216,232.585 240.549,230.919 241.5,229.5 Z"/></g>
<g><path style="opacity:1" fill="#441c14" d="M 242.5,273.5 C 243.5,273.5 244.5,273.5 245.5,273.5C 242.323,280.763 236.656,283.93 228.5,283C 233.752,280.552 238.419,277.386 242.5,273.5 Z"/></g>
<g><path style="opacity:1" fill="#624733" d="M 174.5,266.5 C 177.967,268.067 181.3,269.901 184.5,272C 183.216,272.684 182.049,272.517 181,271.5C 179.919,273.767 178.419,273.934 176.5,272C 175.536,270.275 174.869,268.441 174.5,266.5 Z"/></g>
<g><path style="opacity:1" fill="#dbcbc5" d="M 234.5,265.5 C 234.196,266.15 233.863,266.817 233.5,267.5C 230.696,268.305 227.862,268.972 225,269.5C 223.989,270.056 223.156,270.722 222.5,271.5C 224.567,268.185 225.9,264.518 226.5,260.5C 229.568,261.691 232.235,263.358 234.5,265.5 Z"/></g>
<g><path style="opacity:1" fill="#0f0e0d" d="M 234.5,265.5 C 232.235,263.358 229.568,261.691 226.5,260.5C 225.9,264.518 224.567,268.185 222.5,271.5C 219.5,272.833 216.5,272.833 213.5,271.5C 215.698,270.835 218.031,270.168 220.5,269.5C 220.863,268.817 221.196,268.15 221.5,267.5C 222.117,267.389 222.617,267.056 223,266.5C 223.497,264.19 223.663,261.857 223.5,259.5C 219.507,259.168 215.507,258.835 211.5,258.5C 209.048,258.539 207.048,259.206 205.5,260.5C 198.49,257.798 192.157,259.131 186.5,264.5C 190.484,267.272 194.818,269.272 199.5,270.5C 199.083,271.124 198.416,271.457 197.5,271.5C 191.232,269.354 184.899,267.521 178.5,266C 176.963,264.89 176.297,263.39 176.5,261.5C 187.799,256.001 199.799,252.335 212.5,250.5C 221.841,253.338 230.174,258.005 237.5,264.5C 236.675,265.386 235.675,265.719 234.5,265.5 Z"/></g>
<g><path style="opacity:1" fill="#30716e" d="M 208.5,261.5 C 210.199,261.34 211.866,261.506 213.5,262C 216.07,264.087 218.737,265.92 221.5,267.5C 221.196,268.15 220.863,268.817 220.5,269.5C 218.031,270.168 215.698,270.835 213.5,271.5C 213.167,271.5 212.833,271.5 212.5,271.5C 210.481,269.494 208.148,267.828 205.5,266.5C 207.297,265.305 208.297,263.638 208.5,261.5 Z"/></g>
<g><path style="opacity:1" fill="#23535e" d="M 221.5,267.5 C 218.737,265.92 216.07,264.087 213.5,262C 211.866,261.506 210.199,261.34 208.5,261.5C 207.391,261.443 206.391,261.11 205.5,260.5C 207.048,259.206 209.048,258.539 211.5,258.5C 215.507,258.835 219.507,259.168 223.5,259.5C 223.663,261.857 223.497,264.19 223,266.5C 222.617,267.056 222.117,267.389 221.5,267.5 Z"/></g>
<g><path style="opacity:1" fill="#dfd4d0" d="M 205.5,260.5 C 206.391,261.11 207.391,261.443 208.5,261.5C 208.297,263.638 207.297,265.305 205.5,266.5C 208.148,267.828 210.481,269.494 212.5,271.5C 208.176,271.073 203.842,270.739 199.5,270.5C 194.818,269.272 190.484,267.272 186.5,264.5C 192.157,259.131 198.49,257.798 205.5,260.5 Z"/></g>
<g><path style="opacity:1" fill="#b57f47" d="M 149.5,227.5 C 150.376,227.369 151.043,227.702 151.5,228.5C 148.074,238.204 146.241,248.204 146,258.5C 144.644,257.62 143.144,257.286 141.5,257.5C 141.55,260.899 143.05,262.232 146,261.5C 147.353,262.685 148.52,264.019 149.5,265.5C 139.565,267.882 134.565,264.049 134.5,254C 134.743,242.335 139.743,233.501 149.5,227.5 Z"/></g>
<g><path style="opacity:1" fill="#b17c45" d="M 383.5,219.5 C 383.462,224.926 383.628,230.593 384,236.5C 385.174,242.333 388.007,247.166 392.5,251C 390.324,251.163 388.491,251.996 387,253.5C 384.005,246.84 380.505,240.506 376.5,234.5C 377,232.5 377.5,230.5 378,228.5C 380.347,225.806 382.18,222.806 383.5,219.5 Z"/></g>
<g><path style="opacity:1" fill="#4f2b13" d="M 367.5,231.5 C 366.739,232.391 365.739,233.058 364.5,233.5C 345.089,226.948 325.756,227.282 306.5,234.5C 303.915,233.927 302.915,232.261 303.5,229.5C 306.517,227.187 309.85,225.187 313.5,223.5C 325.75,218.856 338.417,218.356 351.5,222C 357.36,224.424 362.693,227.591 367.5,231.5 Z"/></g>
<g><path style="opacity:1" fill="#b27d46" d="M 149.5,201.5 C 149.56,200.957 149.893,200.624 150.5,200.5C 154.356,202.003 158.356,202.67 162.5,202.5C 163.406,211.356 160.072,218.022 152.5,222.5C 152.167,222.333 151.833,222.167 151.5,222C 156.054,214.498 155.387,207.665 149.5,201.5 Z"/></g>
<g><path style="opacity:1" fill="#af7b44" d="M 137.5,201.5 C 149.016,200.21 153.516,205.543 151,217.5C 145.861,228.033 144.694,227.866 147.5,217C 147.019,209.845 143.686,204.678 137.5,201.5 Z"/></g>
<g><path style="opacity:1" fill="#b57f47" d="M 352.5,164.5 C 354.801,165.06 357.134,165.56 359.5,166C 361.984,168.744 364.984,170.744 368.5,172C 374.979,174.409 381.312,177.075 387.5,180C 394.421,184.676 397.421,191.176 396.5,199.5C 391.281,198.907 390.614,199.907 394.5,202.5C 391.951,205.614 389.951,208.947 388.5,212.5C 386.863,194.759 378.197,182.092 362.5,174.5C 358.273,172.055 354.94,168.721 352.5,164.5 Z"/></g>
<g><path style="opacity:1" fill="#ebab7b" d="M 334.5,157.5 C 340.657,159.441 346.657,161.774 352.5,164.5C 354.94,168.721 358.273,172.055 362.5,174.5C 360.663,174.639 360.33,175.306 361.5,176.5C 377.607,183.703 385.107,196.037 384,213.5C 379.213,219.203 375.547,225.536 373,232.5C 370.795,229.96 368.295,227.793 365.5,226C 345.077,213.95 324.41,213.45 303.5,224.5C 302.833,223.833 302.167,223.167 301.5,222.5C 298.568,227.889 294.734,232.556 290,236.5C 289.799,233.485 290.132,230.485 291,227.5C 297.804,215.71 304.137,203.71 310,191.5C 311.333,186.833 312.667,182.167 314,177.5C 314.676,172.129 314.509,166.796 313.5,161.5C 315.199,161.66 316.866,161.494 318.5,161C 322.97,156.415 328.303,155.248 334.5,157.5 Z"/></g>
<g><path style="opacity:1" fill="#b37d46" d="M 167.5,192.5 C 165.925,194.547 164.925,196.881 164.5,199.5C 158.646,199.166 152.98,197.999 147.5,196C 136.743,186.017 134.743,174.517 141.5,161.5C 146.63,160.796 146.797,159.463 142,157.5C 137.018,160.961 134.518,165.794 134.5,172C 133.952,182.898 137.952,191.564 146.5,198C 143.726,197.786 141.06,197.786 138.5,198C 127.713,191.316 124.213,181.816 128,169.5C 131.873,160.648 138.373,154.648 147.5,151.5C 144.846,167.323 149.513,180.823 161.5,192C 163.473,192.495 165.473,192.662 167.5,192.5 Z"/></g>
<g><path style="opacity:1" fill="#b27d46" d="M 172.5,179.5 C 171.105,183.29 169.438,186.957 167.5,190.5C 164.984,190.245 162.65,189.411 160.5,188C 151.012,177.869 147.846,166.035 151,152.5C 151.535,150.729 152.369,150.396 153.5,151.5C 148.424,165.128 152.258,175.128 165,181.5C 166.594,189.278 167.427,189.278 167.5,181.5C 169.514,181.608 171.18,180.942 172.5,179.5 Z"/></g>
<g><path style="opacity:1" fill="#b57f47" d="M 155.5,148.5 C 157.199,148.34 158.866,148.506 160.5,149C 165.833,155.667 171.167,162.333 176.5,169C 173.726,171.254 172.059,174.087 171.5,177.5C 159.325,179.164 153.658,173.664 154.5,161C 154.723,156.816 155.057,152.649 155.5,148.5 Z"/></g>
<g><path style="opacity:1" fill="#ecab7b" d="M 285.5,148.5 C 285.897,149.525 286.563,149.692 287.5,149C 288.066,148.005 288.733,147.172 289.5,146.5C 295.167,146.5 300.833,146.5 306.5,146.5C 311.848,159.646 312.348,172.98 308,186.5C 301,200.5 294,214.5 287,228.5C 284.826,240.041 281.826,251.374 278,262.5C 277.667,266.167 277.333,269.833 277,273.5C 273.606,272.544 270.106,272.211 266.5,272.5C 265.43,254.025 257.763,239.025 243.5,227.5C 243.617,225.516 242.95,223.85 241.5,222.5C 240.614,223.325 240.281,224.325 240.5,225.5C 229.541,218.758 217.541,215.425 204.5,215.5C 181.123,219.052 164.956,231.719 156,253.5C 155.654,251.782 155.154,250.115 154.5,248.5C 155.5,247.833 156.5,247.167 157.5,246.5C 156.24,245.618 155.074,244.618 154,243.5C 153.333,240.5 153.333,237.5 154,234.5C 156.295,231.035 158.795,227.701 161.5,224.5C 160.5,223.833 159.5,223.167 158.5,222.5C 160.718,221.076 162.218,219.076 163,216.5C 163.547,213.298 164.547,210.298 166,207.5C 166.428,204.678 165.928,202.012 164.5,199.5C 164.925,196.881 165.925,194.547 167.5,192.5C 167.5,191.833 167.5,191.167 167.5,190.5C 169.438,186.957 171.105,183.29 172.5,179.5C 174.328,175.521 176.328,171.521 178.5,167.5C 182.077,167.855 185.077,166.855 187.5,164.5C 190.914,166.37 194.581,167.37 198.5,167.5C 203.163,167.858 204.163,166.525 201.5,163.5C 206.825,159.611 212.825,157.277 219.5,156.5C 224.64,157.452 229.973,157.785 235.5,157.5C 236.773,156.743 236.773,156.077 235.5,155.5C 235.414,154.504 235.748,153.671 236.5,153C 246.836,151.499 257.17,149.999 267.5,148.5C 268.5,148.5 269.5,148.5 270.5,148.5C 275.536,145.933 280.536,145.933 285.5,148.5 Z"/></g>
<g><path style="opacity:1" fill="#3c2c20" d="M 227.5,238.5 C 230.092,240.568 233.092,241.901 236.5,242.5C 235.603,245.95 235.603,249.284 236.5,252.5C 234.245,247.266 231.245,242.6 227.5,238.5 Z"/></g>
<g><path style="opacity:1" fill="#5f3a21" d="M 243.5,227.5 C 242.29,227.068 241.29,226.401 240.5,225.5C 240.281,224.325 240.614,223.325 241.5,222.5C 242.95,223.85 243.617,225.516 243.5,227.5 Z"/></g>
<g><path style="opacity:1" fill="#502c13" d="M 241.5,229.5 C 240.549,230.919 240.216,232.585 240.5,234.5C 236.039,233.944 231.706,232.777 227.5,231C 215.88,228.413 204.213,228.08 192.5,230C 186.983,232.64 181.317,233.474 175.5,232.5C 180.288,228.266 185.621,224.766 191.5,222C 209.487,216.749 226.154,219.249 241.5,229.5 Z"/></g>
<g><path style="opacity:1" fill="#ad7a45" d="M 163.5,141.5 C 164.167,141.833 164.833,142.167 165.5,142.5C 166.933,145.282 168.1,148.282 169,151.5C 173.116,158.787 179.282,163.12 187.5,164.5C 185.077,166.855 182.077,167.855 178.5,167.5C 173.422,160.248 167.755,153.415 161.5,147C 163.155,145.556 163.822,143.722 163.5,141.5 Z"/></g>
<g><path style="opacity:1" fill="#b47e47" d="M 306.5,146.5 C 300.833,146.5 295.167,146.5 289.5,146.5C 289.709,145.078 290.209,143.745 291,142.5C 297.856,135.826 303.022,137.16 306.5,146.5 Z"/></g>
<g><path style="opacity:1" fill="#b17c45" d="M 323.5,371.5 C 322.833,372.167 322.167,372.833 321.5,373.5C 321.209,372.351 320.376,371.684 319,371.5C 314.576,373.311 310.909,372.311 308,368.5C 305.879,362.042 306.212,355.709 309,349.5C 309.522,354.4 310.855,359.066 313,363.5C 316.299,366.551 319.799,369.218 323.5,371.5 Z"/></g>
<g><path style="opacity:1" fill="#e0d1cd" d="M 287.5,361.5 C 290.187,361.336 292.854,361.503 295.5,362C 297.415,364.185 297.582,366.685 296,369.5C 281.966,381.401 266.466,383.568 249.5,376C 246.14,373.571 245.807,370.905 248.5,368C 261.758,366.417 274.758,364.251 287.5,361.5 Z"/></g>
<g><path style="opacity:1" fill="#050403" d="M 368.5,366.5 C 365.649,380.202 359.149,391.868 349,401.5C 347.961,413.477 347.294,425.477 347,437.5C 346.626,438.416 346.126,439.25 345.5,440C 345.626,442.12 345.959,444.286 346.5,446.5C 349.086,448.043 351.586,449.709 354,451.5C 356.022,455.003 358.189,458.337 360.5,461.5C 359.119,463.274 359.452,464.774 361.5,466C 360.978,466.561 360.645,467.228 360.5,468C 362.81,477.219 364.477,486.552 365.5,496C 364.481,507.427 363.814,518.593 363.5,529.5C 362.5,529.5 361.5,529.5 360.5,529.5C 360.809,518.149 361.476,506.816 362.5,495.5C 361.757,484.621 359.924,473.955 357,463.5C 355.333,460.167 353.667,456.833 352,453.5C 350.829,452.107 349.329,451.273 347.5,451C 346.299,450.097 345.465,448.931 345,447.5C 343.5,448.667 342,449.833 340.5,451C 341.967,452.098 342.801,453.598 343,455.5C 343.761,462.531 343.595,469.531 342.5,476.5C 342.667,477.167 342.833,477.833 343,478.5C 343.667,477.167 344.333,477.167 345,478.5C 350.645,495.039 353.479,512.039 353.5,529.5C 352.5,529.5 351.5,529.5 350.5,529.5C 352.044,518.556 349.877,508.556 344,499.5C 340.046,489.207 337.879,478.54 337.5,467.5C 338.203,459.014 338.703,450.347 339,441.5C 333.787,453.443 326.953,464.276 318.5,474C 312.185,479.394 304.852,481.394 296.5,480C 290.021,477.591 283.688,474.925 277.5,472C 259.027,458.437 241.361,443.937 224.5,428.5C 227.5,428.5 230.5,428.5 233.5,428.5C 237.098,431.313 240.765,434.147 244.5,437C 258.167,441.775 272.167,442.775 286.5,440C 290.276,439.408 293.943,438.408 297.5,437C 306.153,430.675 314.486,424.008 322.5,417C 338.679,403.115 351.346,386.615 360.5,367.5C 361.756,367.096 362.923,366.429 364,365.5C 365.598,365.93 367.098,366.264 368.5,366.5 Z"/></g>
<g><path style="opacity:1" fill="#17110d" d="M 285.5,389.5 C 286.376,389.369 287.043,389.702 287.5,390.5C 281.846,394.98 275.346,396.98 268,396.5C 265.833,396.333 263.667,396.167 261.5,396C 261.043,395.586 260.709,395.086 260.5,394.5C 269.102,393.482 277.436,391.815 285.5,389.5 Z"/></g>
<g><path style="opacity:1" fill="#ecab7b" d="M 224.5,428.5 C 241.361,443.937 259.027,458.437 277.5,472C 283.688,474.925 290.021,477.591 296.5,480C 304.852,481.394 312.185,479.394 318.5,474C 326.953,464.276 333.787,453.443 339,441.5C 338.703,450.347 338.203,459.014 337.5,467.5C 337.879,478.54 340.046,489.207 344,499.5C 349.877,508.556 352.044,518.556 350.5,529.5C 301.5,529.5 252.5,529.5 203.5,529.5C 201.476,521.461 200.143,513.295 199.5,505C 200.595,499.715 202.095,494.548 204,489.5C 204.982,482.035 205.482,474.535 205.5,467C 204.203,447.43 203.037,427.93 202,408.5C 209.127,415.497 216.627,422.164 224.5,428.5 Z"/></g>
<g><path style="opacity:1" fill="#2b2323" d="M 360.5,529.5 C 358.167,529.5 355.833,529.5 353.5,529.5C 353.479,512.039 350.645,495.039 345,478.5C 344.333,477.167 343.667,477.167 343,478.5C 342.833,477.833 342.667,477.167 342.5,476.5C 343.595,469.531 343.761,462.531 343,455.5C 342.801,453.598 341.967,452.098 340.5,451C 342,449.833 343.5,448.667 345,447.5C 345.465,448.931 346.299,450.097 347.5,451C 349.329,451.273 350.829,452.107 352,453.5C 353.667,456.833 355.333,460.167 357,463.5C 359.924,473.955 361.757,484.621 362.5,495.5C 361.476,506.816 360.809,518.149 360.5,529.5 Z"/></g>
<g><path style="opacity:1" fill="#0a0909" d="M 194.5,457.5 C 197.051,460.221 196.218,461.887 192,462.5C 190.646,484.809 190.146,507.142 190.5,529.5C 189.833,529.5 189.167,529.5 188.5,529.5C 187.794,514.415 187.294,498.749 187,482.5C 183.824,486.98 180.824,491.647 178,496.5C 171.673,501.826 165.34,507.159 159,512.5C 156.82,518.188 154.653,523.854 152.5,529.5C 150.167,529.5 147.833,529.5 145.5,529.5C 146.458,528.038 147.624,526.705 149,525.5C 151.235,518.789 154.235,512.456 158,506.5C 164.944,501.889 171.278,496.555 177,490.5C 182.055,480.646 186.055,470.313 189,459.5C 190.584,458.139 192.418,457.472 194.5,457.5 Z"/></g>
<g><path style="opacity:1" fill="#2a2222" d="M 198.5,455.5 C 199.004,460.058 199.671,464.558 200.5,469C 199.112,471.46 198.446,474.127 198.5,477C 199.153,481.382 198.986,485.882 198,490.5C 197.751,489.376 197.251,488.376 196.5,487.5C 195.683,501.5 197.35,515.5 201.5,529.5C 197.833,529.5 194.167,529.5 190.5,529.5C 190.146,507.142 190.646,484.809 192,462.5C 196.218,461.887 197.051,460.221 194.5,457.5C 195.514,456.326 196.847,455.66 198.5,455.5 Z"/></g>
<g><path style="opacity:1" fill="#2a2222" d="M 360.5,461.5 C 362.071,463.635 363.404,465.968 364.5,468.5C 362.623,469.659 362.123,471.326 363,473.5C 367.516,484.351 374.016,493.851 382.5,502C 388.783,505.721 394.95,509.554 401,513.5C 404.62,518.201 406.453,523.534 406.5,529.5C 399.833,529.5 393.167,529.5 386.5,529.5C 384.489,528.107 382.155,527.44 379.5,527.5C 377.667,527.585 376.334,528.252 375.5,529.5C 371.5,529.5 367.5,529.5 363.5,529.5C 363.814,518.593 364.481,507.427 365.5,496C 364.477,486.552 362.81,477.219 360.5,468C 360.645,467.228 360.978,466.561 361.5,466C 359.452,464.774 359.119,463.274 360.5,461.5 Z"/></g>
<g><path style="opacity:1" fill="#2b2222" d="M 188.5,529.5 C 181.833,529.5 175.167,529.5 168.5,529.5C 168.329,526.512 169.662,524.512 172.5,523.5C 172.167,521.833 171.167,520.833 169.5,520.5C 164.376,521.53 161.376,524.53 160.5,529.5C 157.833,529.5 155.167,529.5 152.5,529.5C 154.653,523.854 156.82,518.188 159,512.5C 165.34,507.159 171.673,501.826 178,496.5C 180.824,491.647 183.824,486.98 187,482.5C 187.294,498.749 187.794,514.415 188.5,529.5 Z"/></g>
<g><path style="opacity:1" fill="#0c0c0c" d="M 364.5,468.5 C 367.387,475.34 370.553,482.007 374,488.5C 378.542,494.71 384.042,499.876 390.5,504C 395.029,505.514 399.195,507.681 403,510.5C 406.526,516.598 409.359,522.931 411.5,529.5C 409.833,529.5 408.167,529.5 406.5,529.5C 406.453,523.534 404.62,518.201 401,513.5C 394.95,509.554 388.783,505.721 382.5,502C 374.016,493.851 367.516,484.351 363,473.5C 362.123,471.326 362.623,469.659 364.5,468.5 Z"/></g>
<g><path style="opacity:1" fill="#d77d17" d="M 168.5,529.5 C 165.833,529.5 163.167,529.5 160.5,529.5C 161.376,524.53 164.376,521.53 169.5,520.5C 171.167,520.833 172.167,521.833 172.5,523.5C 169.662,524.512 168.329,526.512 168.5,529.5 Z"/></g>
<g><path style="opacity:1" fill="#c57319" d="M 386.5,529.5 C 382.833,529.5 379.167,529.5 375.5,529.5C 376.334,528.252 377.667,527.585 379.5,527.5C 382.155,527.44 384.489,528.107 386.5,529.5 Z"/></g>
</svg>
