<?xml version="1.0" encoding="UTF-8"?>
<!DOCTYPE svg PUBLIC "-//W3C//DTD SVG 1.1//EN" "http://www.w3.org/Graphics/SVG/1.1/DTD/svg11.dtd">
<svg xmlns="http://www.w3.org/2000/svg" version="1.1" width="673px" height="821px" style="shape-rendering:geometricPrecision; text-rendering:geometricPrecision; image-rendering:optimizeQuality; fill-rule:evenodd; clip-rule:evenodd" xmlns:xlink="http://www.w3.org/1999/xlink">
<g><path style="opacity:0.958" fill="#000000" d="M 440.5,-0.5 C 443.833,-0.5 447.167,-0.5 450.5,-0.5C 452.599,0.611848 454.933,1.27852 457.5,1.5C 459.915,15.211 461.248,29.0443 461.5,43C 460.426,66.1713 459.259,89.338 458,112.5C 451.297,117.547 444.464,117.547 437.5,112.5C 435.474,106.349 434.308,100.015 434,93.5C 434.079,71.3157 434.912,49.149 436.5,27C 436.625,19.0746 435.958,11.2412 434.5,3.5C 436.29,1.68426 438.29,0.350931 440.5,-0.5 Z"/></g>
<g><path style="opacity:0.955" fill="#000000" d="M 385.5,0.5 C 391.004,0.0684155 396.337,0.735082 401.5,2.5C 406.072,14.454 409.239,26.7873 411,39.5C 413.932,63.5601 416.932,87.5601 420,111.5C 412.048,116.655 404.048,116.655 396,111.5C 383.477,121.342 370.644,121.842 357.5,113C 345.03,100.58 340.863,85.7462 345,68.5C 352.001,50.4051 365.167,40.0718 384.5,37.5C 385.278,26.7795 383.278,16.6128 378.5,7C 380.065,3.93287 382.398,1.76621 385.5,0.5 Z M 379.5,53.5 C 382.167,53.5 384.833,53.5 387.5,53.5C 388.92,66.523 390.586,79.523 392.5,92.5C 391.785,98.2084 388.452,101.208 382.5,101.5C 373.104,98.5985 367.27,92.2652 365,82.5C 360.879,68.0738 365.712,58.4071 379.5,53.5 Z"/></g>
<g><path style="opacity:0.934" fill="#000000" d="M 501.5,3.5 C 514.056,7.12698 517.056,14.7936 510.5,26.5C 509.335,27.5836 508.002,28.4169 506.5,29C 499.135,30.9484 492.968,29.1151 488,23.5C 485.3,17.7333 486.467,12.9 491.5,9C 494.767,6.8703 498.1,5.03697 501.5,3.5 Z"/></g>
<g><path style="opacity:0.955" fill="#000000" d="M 485.5,40.5 C 491.929,39.6977 497.929,40.8644 503.5,44C 504.915,48.1772 505.582,52.5106 505.5,57C 503.621,77.529 501.455,98.029 499,118.5C 490.391,122.374 483.058,120.707 477,113.5C 476.333,106.833 476.333,100.167 477,93.5C 478.667,83.8318 480.334,74.1652 482,64.5C 482.797,57.4495 482.63,50.4495 481.5,43.5C 482.901,42.4793 484.235,41.4793 485.5,40.5 Z"/></g>
<g><path style="opacity:0.955" fill="#000000" d="M 538.5,49.5 C 548.473,49.8117 553.807,54.8117 554.5,64.5C 563.536,63.1629 572.536,63.3296 581.5,65C 586.188,65.9195 589.688,68.4195 592,72.5C 593.517,78.0802 593.851,83.7469 593,89.5C 587.905,106.877 584.239,124.544 582,142.5C 578.169,146.128 573.669,147.295 568.5,146C 566.959,144.421 565.792,142.587 565,140.5C 562.742,120.064 564.242,99.8969 569.5,80C 563.849,78.5282 558.516,79.5282 553.5,83C 546.558,89.379 542.058,97.2123 540,106.5C 538.509,113.111 537.343,119.778 536.5,126.5C 525.203,130.687 517.537,127.02 513.5,115.5C 520.577,93.9359 527.244,72.2692 533.5,50.5C 535.415,50.7845 537.081,50.4511 538.5,49.5 Z"/></g>
<g><path style="opacity:0.943" fill="#000000" d="M 293.5,57.5 C 307.044,55.5208 316.877,60.5208 323,72.5C 326.235,84.4454 330.235,96.112 335,107.5C 338.011,111.52 341.844,114.353 346.5,116C 343.174,120.326 339.507,124.326 335.5,128C 329.491,129.862 323.658,129.362 318,126.5C 308.952,139.277 296.785,144.11 281.5,141C 268.612,129.68 268.279,118.014 280.5,106C 287.99,100.086 295.99,94.9191 304.5,90.5C 302.731,82.6011 298.731,76.2678 292.5,71.5C 289.65,73.4271 286.983,75.5938 284.5,78C 286.299,81.7246 287.466,85.5579 288,89.5C 281.662,96.602 274.162,98.2686 265.5,94.5C 260.434,82.9403 263.1,73.4403 273.5,66C 279.73,61.8762 286.397,59.0429 293.5,57.5 Z M 304.5,101.5 C 310.245,104.89 312.412,109.89 311,116.5C 308.081,122.025 303.581,123.858 297.5,122C 296.167,119.667 294.833,117.333 293.5,115C 297.403,110.607 301.069,106.107 304.5,101.5 Z"/></g>
<g><path style="opacity:0.944" fill="#000000" d="M 223.5,90.5 C 239.573,89.7231 249.573,97.2231 253.5,113C 252.009,117.496 249.342,121.162 245.5,124C 238.06,128.442 230.894,133.275 224,138.5C 230.045,152.29 238.878,154.123 250.5,144C 254.548,139.62 258.215,134.954 261.5,130C 262.167,129.333 262.833,129.333 263.5,130C 265,132.167 266.5,134.333 268,136.5C 267.401,151.168 260.235,161.335 246.5,167C 222.375,172.19 205.875,163.357 197,140.5C 192.49,116.511 201.323,99.8439 223.5,90.5 Z M 217.5,105.5 C 223.079,106.746 226.746,110.08 228.5,115.5C 227.441,118.068 225.774,120.235 223.5,122C 221.208,123.29 219.208,124.957 217.5,127C 216.552,127.483 215.552,127.649 214.5,127.5C 213.508,123.518 212.508,119.518 211.5,115.5C 213.092,111.911 215.092,108.578 217.5,105.5 Z"/></g>
<g><path style="opacity:0.944" fill="#000000" d="M 672.5,120.5 C 672.5,124.167 672.5,127.833 672.5,131.5C 669.352,138.657 664.352,144.324 657.5,148.5C 646.255,142.961 635.089,137.294 624,131.5C 616.537,143.76 619.37,152.927 632.5,159C 638.103,160.124 643.769,160.79 649.5,161C 650.428,161.388 651.095,162.055 651.5,163C 648.771,170.057 643.605,173.557 636,173.5C 618.582,171.751 606.582,162.751 600,146.5C 596.115,127.442 602.282,112.608 618.5,102C 637.959,94.2394 654.792,98.0727 669,113.5C 670.213,115.925 671.379,118.259 672.5,120.5 Z M 647.5,107.5 C 654.955,113.031 655.289,119.198 648.5,126C 641.522,126.229 635.522,123.895 630.5,119C 636.232,115.144 641.899,111.31 647.5,107.5 Z"/></g>
<g><path style="opacity:0.968" fill="#c88bb8" d="M -0.5,212.5 C -0.5,210.5 -0.5,208.5 -0.5,206.5C 13.0261,155.806 45.0261,122.972 95.5,108C 136.248,100.636 168.415,113.802 192,147.5C 202.13,166.278 205.797,186.278 203,207.5C 197.305,246.414 179.138,277.914 148.5,302C 137.888,309.638 126.221,315.138 113.5,318.5C 112.833,318.167 112.167,317.833 111.5,317.5C 116.817,306.75 118.983,295.417 118,283.5C 116.056,276.45 112.222,270.617 106.5,266C 99.8773,261.772 93.044,257.939 86,254.5C 85.5154,246.361 82.3488,239.527 76.5,234C 70.9903,232.084 65.4903,230.25 60,228.5C 54.662,203.251 39.8287,194.751 15.5,203C 9.75767,205.597 4.42433,208.763 -0.5,212.5 Z M 96.5,135.5 C 138.807,139.638 165.307,162.304 176,203.5C 179.434,225.529 173.434,244.529 158,260.5C 123.5,226 89,191.5 54.5,157C 65.9966,144.752 79.9966,137.586 96.5,135.5 Z"/></g>
<g><path style="opacity:0.981" fill="#000000" d="M 427.5,127.5 C 449.464,127.542 469.797,133.376 488.5,145C 528.6,170.933 561.934,203.767 588.5,243.5C 561.345,264.483 539.845,290.15 524,320.5C 517.285,333.929 511.118,347.596 505.5,361.5C 472.268,361.066 454.268,377.4 451.5,410.5C 453.055,437.292 466.721,454.292 492.5,461.5C 495.756,467.769 497.923,474.436 499,481.5C 498.764,525.705 503.43,569.371 513,612.5C 515.815,621.447 519.315,630.113 523.5,638.5C 511.788,651.203 497.788,660.703 481.5,667C 461.784,675.554 441.284,681.388 420,684.5C 418.289,684.561 416.956,683.894 416,682.5C 415.167,498.499 415.333,314.499 416.5,130.5C 420.263,129.385 423.93,128.385 427.5,127.5 Z"/></g>
<g><path style="opacity:0.991" fill="#000000" d="M 409.5,129.5 C 410.5,129.5 411.5,129.5 412.5,129.5C 412.822,314.51 412.489,499.51 411.5,684.5C 391.948,684.612 373.281,680.612 355.5,672.5C 355.167,671.667 354.833,670.833 354.5,670C 366.613,595.087 361.946,521.254 340.5,448.5C 344.911,444.78 349.578,441.28 354.5,438C 368.03,426.979 375.696,412.812 377.5,395.5C 376.19,379.351 368.524,367.185 354.5,359C 348.403,355.618 342.07,352.784 335.5,350.5C 332.484,315.134 328.984,279.801 325,244.5C 321.413,219.985 315.246,196.151 306.5,173C 306.667,172.167 306.833,171.333 307,170.5C 318.573,159.605 331.74,151.105 346.5,145C 366.82,136.503 387.82,131.336 409.5,129.5 Z"/></g>
<g><path style="opacity:0.987" fill="#000000" d="M 291.5,179.5 C 293.592,179.561 295.092,180.561 296,182.5C 307.264,200.284 314.597,219.617 318,240.5C 320.065,252.418 321.398,264.418 322,276.5C 322.538,301.505 322.372,326.505 321.5,351.5C 295.276,356.555 281.276,372.389 279.5,399C 279.87,411.9 284.036,423.4 292,433.5C 297.077,439.082 302.577,444.082 308.5,448.5C 301.676,473.809 290.842,497.142 276,518.5C 264.365,533.135 249.698,543.468 232,549.5C 218.09,523.437 208.757,495.77 204,466.5C 193.717,409.216 196.383,352.549 212,296.5C 225.647,248.469 252.147,209.469 291.5,179.5 Z"/></g>
<g><path style="opacity:0.987" fill="#000000" d="M 593.5,260.5 C 594.675,260.281 595.675,260.614 596.5,261.5C 626.425,325.472 636.258,392.472 626,462.5C 618.842,516.031 598.508,563.697 565,605.5C 557.5,613 550,620.5 542.5,628C 540.606,629.404 538.606,630.57 536.5,631.5C 532.656,630.166 529.489,627.832 527,624.5C 517.298,597.657 511.298,569.99 509,541.5C 506.365,515.178 506.032,488.845 508,462.5C 540.586,451.338 554.253,428.672 549,394.5C 545.941,383.525 539.441,375.359 529.5,370C 525.365,367.597 521.032,365.763 516.5,364.5C 529.521,328.3 550.188,297.133 578.5,271C 583.403,267.248 588.403,263.748 593.5,260.5 Z"/></g>
<g><path style="opacity:0.983" fill="#000000" d="M 336.5,448.5 C 342.532,464.616 347.032,481.282 350,498.5C 358.397,549.974 359.73,601.641 354,653.5C 353.523,659.355 352.357,665.022 350.5,670.5C 329.757,659.799 310.757,646.633 293.5,631C 273.564,611.746 255.897,590.746 240.5,568C 276.837,536.854 304.004,499.02 322,454.5C 327.038,452.771 331.871,450.771 336.5,448.5 Z"/></g>
<g><path style="opacity:0.968" fill="#c88bb8" d="M 203.5,604.5 C 213.3,603.973 222.966,604.806 232.5,607C 260.986,615.985 286.153,630.485 308,650.5C 334.673,684.567 338.673,721.234 320,760.5C 304.893,789.066 281.059,803.4 248.5,803.5C 219.148,802.161 191.815,793.994 166.5,779C 150.88,770.207 136.546,759.707 123.5,747.5C 135.461,747.425 147.128,745.592 158.5,742C 167.153,738.21 172.653,731.71 175,722.5C 176.092,716.218 176.758,709.884 177,703.5C 191.404,696.744 197.738,685.411 196,669.5C 223.127,649.165 223.294,628.665 196.5,608C 198.925,606.787 201.259,605.621 203.5,604.5 Z M 260.5,644.5 C 289.084,659.671 300.584,683.338 295,715.5C 288.136,744.108 271.636,764.941 245.5,778C 225.257,785.79 206.257,783.456 188.5,771C 212.903,729.023 236.903,686.856 260.5,644.5 Z"/></g>
<g><path style="opacity:0.938" fill="#000000" d="M 422.5,703.5 C 436.208,703.043 441.041,709.376 437,722.5C 432,730.878 425.167,732.712 416.5,728C 407.556,717.34 409.556,709.173 422.5,703.5 Z"/></g>
<g><path style="opacity:0.955" fill="#000000" d="M 345.5,721.5 C 351.364,720.743 356.697,722.076 361.5,725.5C 362.871,729.477 364.704,733.144 367,736.5C 377.248,730.561 386.914,731.228 396,738.5C 398.318,745.681 397.985,752.681 395,759.5C 391.958,761.889 388.458,762.889 384.5,762.5C 382.241,762.468 380.075,762.134 378,761.5C 377.667,758.5 377.333,755.5 377,752.5C 376.576,750.385 375.409,749.552 373.5,750C 369.154,753.867 365.654,758.367 363,763.5C 356.652,776.028 350.485,788.528 344.5,801C 336.854,802.567 331.021,800.067 327,793.5C 327.548,782.292 329.548,771.292 333,760.5C 336.707,747.216 340.874,734.216 345.5,721.5 Z"/></g>
<g><path style="opacity:0.947" fill="#000000" d="M 565.5,724.5 C 582.56,725.007 592.893,733.507 596.5,750C 595.689,754.619 593.356,758.285 589.5,761C 580.167,764.667 570.833,768.333 561.5,772C 561.043,772.414 560.709,772.914 560.5,773.5C 566.464,788.467 576.131,791.3 589.5,782C 592.688,778.812 595.855,775.645 599,772.5C 604.941,776.802 605.941,782.136 602,788.5C 589.796,800.01 575.296,804.51 558.5,802C 543.039,798.202 534.206,788.369 532,772.5C 530.865,756.268 536.699,743.101 549.5,733C 554.768,729.868 560.101,727.035 565.5,724.5 Z M 558.5,740.5 C 561.667,740.4 564.667,741.067 567.5,742.5C 569.319,745.457 570.653,748.624 571.5,752C 566.414,754.96 561.247,757.794 556,760.5C 553.481,753.341 554.314,746.675 558.5,740.5 Z"/></g>
<g><path style="opacity:0.955" fill="#000000" d="M 413.5,739.5 C 420.498,738.915 426.331,741.249 431,746.5C 431.167,750 431.333,753.5 431.5,757C 429.937,773.378 427.937,789.712 425.5,806C 426.169,809.499 426.336,812.999 426,816.5C 417.836,821.26 410.503,820.26 404,813.5C 403.004,809.569 402.504,805.569 402.5,801.5C 403.681,787.749 405.514,774.082 408,760.5C 408.728,755.467 408.561,750.467 407.5,745.5C 407.667,744.833 407.833,744.167 408,743.5C 409.812,742.023 411.645,740.69 413.5,739.5 Z"/></g>
<g><path style="opacity:0.951" fill="#000000" d="M 484.5,820.5 C 483.167,820.5 481.833,820.5 480.5,820.5C 475.991,819.936 471.825,818.269 468,815.5C 459.691,793.571 451.191,771.738 442.5,750C 446.418,747.123 450.585,744.623 455,742.5C 459.656,743.161 463.656,745.161 467,748.5C 470.172,752.841 472.839,757.508 475,762.5C 479.094,775.637 482.428,788.97 485,802.5C 488.646,789.915 491.98,777.248 495,764.5C 496.23,757.555 496.73,750.555 496.5,743.5C 500.086,742.306 503.753,741.306 507.5,740.5C 512.581,741.539 516.914,743.872 520.5,747.5C 518.953,767.353 514.12,786.353 506,804.5C 501.334,813.395 494.167,818.729 484.5,820.5 Z"/></g>
</svg>
