<?xml version="1.0" encoding="UTF-8"?>
<!DOCTYPE svg PUBLIC "-//W3C//DTD SVG 1.1//EN" "http://www.w3.org/Graphics/SVG/1.1/DTD/svg11.dtd">
<svg xmlns="http://www.w3.org/2000/svg" version="1.1" width="530px" height="525px" style="shape-rendering:geometricPrecision; text-rendering:geometricPrecision; image-rendering:optimizeQuality; fill-rule:evenodd; clip-rule:evenodd" xmlns:xlink="http://www.w3.org/1999/xlink">
<g><path style="opacity:1" fill="#181715" d="M 297.5,95.5 C 300.273,96.6572 303.273,97.3239 306.5,97.5C 308.515,98.9238 310.848,99.5905 313.5,99.5C 315.522,101.693 318.189,102.693 321.5,102.5C 321.833,102.5 322.167,102.5 322.5,102.5C 324.32,104.448 326.654,105.448 329.5,105.5C 330.5,105.5 331.5,105.5 332.5,105.5C 333.209,106.404 334.209,106.737 335.5,106.5C 336.514,107.674 337.847,108.34 339.5,108.5C 341.5,109.833 343.5,111.167 345.5,112.5C 345.973,113.906 346.973,114.573 348.5,114.5C 349.167,114.5 349.5,114.833 349.5,115.5C 349.973,116.906 350.973,117.573 352.5,117.5C 354.573,118.3 356.24,119.633 357.5,121.5C 357.833,122.5 358.5,123.167 359.5,123.5C 360.5,123.833 361.167,124.5 361.5,125.5C 362.167,126.833 363.167,127.833 364.5,128.5C 366.167,130.833 368.167,132.833 370.5,134.5C 371.167,134.833 371.833,135.167 372.5,135.5C 373.5,137.167 374.833,138.5 376.5,139.5C 377.369,143.374 379.703,146.041 383.5,147.5C 383.263,148.791 383.596,149.791 384.5,150.5C 384.842,151.338 385.508,151.672 386.5,151.5C 385.939,153.066 386.606,154.399 388.5,155.5C 388.328,156.492 388.662,157.158 389.5,157.5C 389.328,158.492 389.662,159.158 390.5,159.5C 390.992,161.819 391.992,163.819 393.5,165.5C 395.331,171.659 397.331,177.659 399.5,183.5C 401.494,196.735 402.494,210.068 402.5,223.5C 401.586,233.366 400.586,243.366 399.5,253.5C 399.5,253.833 399.5,254.167 399.5,254.5C 398.833,254.5 398.5,254.833 398.5,255.5C 398.5,256.167 398.167,256.5 397.5,256.5C 396.421,254.457 394.754,253.124 392.5,252.5C 388.268,237.793 385.102,222.793 383,207.5C 379.941,196.695 376.274,186.029 372,175.5C 371.208,173.413 370.041,171.579 368.5,170C 364.833,167.667 361.167,165.333 357.5,163C 303.909,150.745 250.242,150.412 196.5,162C 191.494,164.501 186.827,167.501 182.5,171C 176.395,182.127 171.728,193.96 168.5,206.5C 166.391,222.379 163.391,238.045 159.5,253.5C 158.85,253.196 158.183,252.863 157.5,252.5C 156.148,253.524 154.815,254.524 153.5,255.5C 153.5,254.833 153.167,254.5 152.5,254.5C 152.784,252.585 152.451,250.919 151.5,249.5C 151.5,248.833 151.5,248.167 151.5,247.5C 151.737,246.209 151.404,245.209 150.5,244.5C 150.5,244.167 150.5,243.833 150.5,243.5C 150.5,243.167 150.5,242.833 150.5,242.5C 150.483,240.435 150.15,238.435 149.5,236.5C 149.5,236.167 149.5,235.833 149.5,235.5C 149.768,233.901 149.434,232.568 148.5,231.5C 147.993,215.753 148.66,200.086 150.5,184.5C 151.434,183.432 151.768,182.099 151.5,180.5C 153.867,175.07 155.867,169.404 157.5,163.5C 158.338,163.158 158.672,162.492 158.5,161.5C 159.338,161.158 159.672,160.492 159.5,159.5C 159.833,159.5 160.167,159.5 160.5,159.5C 162.366,157.999 163.699,155.999 164.5,153.5C 164.427,151.973 165.094,150.973 166.5,150.5C 167.906,150.027 168.573,149.027 168.5,147.5C 168.833,146.5 169.5,145.833 170.5,145.5C 173.323,144.008 174.99,141.674 175.5,138.5C 177.048,138.179 177.715,137.179 177.5,135.5C 177.833,135.5 178.167,135.5 178.5,135.5C 179.338,135.158 179.672,134.492 179.5,133.5C 179.833,133.5 180.167,133.5 180.5,133.5C 182.5,132.167 184.167,130.5 185.5,128.5C 189.526,124.805 193.526,121.138 197.5,117.5C 197.842,116.662 198.508,116.328 199.5,116.5C 201.404,116.262 202.738,115.262 203.5,113.5C 205.674,113.25 207.341,112.25 208.5,110.5C 208.5,110.167 208.5,109.833 208.5,109.5C 210.819,109.008 212.819,108.008 214.5,106.5C 215.167,106.5 215.833,106.5 216.5,106.5C 223.167,105.276 229.501,103.276 235.5,100.5C 235.842,99.6618 236.508,99.3284 237.5,99.5C 238.167,99.5 238.833,99.5 239.5,99.5C 243.915,99.1394 247.915,97.8061 251.5,95.5C 258.266,94.5949 264.933,93.2616 271.5,91.5C 280.112,92.3508 288.779,93.6841 297.5,95.5 Z"/></g>
<g><path style="opacity:0.071" fill="#dddddd" d="M 297.5,95.5 C 300.877,95.0679 303.877,95.7345 306.5,97.5C 303.273,97.3239 300.273,96.6572 297.5,95.5 Z"/></g>
<g><path style="opacity:0.008" fill="#f3f3f3" d="M 239.5,98.5 C 239.5,98.8333 239.5,99.1667 239.5,99.5C 238.833,99.5 238.167,99.5 237.5,99.5C 237.082,98.7784 236.416,98.2784 235.5,98C 237.066,97.235 238.399,97.4017 239.5,98.5 Z"/></g>
<g><path style="opacity:0.008" fill="#eeeeee" d="M 306.5,97.5 C 309.388,96.9898 311.721,97.6565 313.5,99.5C 310.848,99.5905 308.515,98.9238 306.5,97.5 Z"/></g>
<g><path style="opacity:0.871" fill="#686767" d="M 251.5,95.5 C 247.915,97.8061 243.915,99.1394 239.5,99.5C 239.5,99.1667 239.5,98.8333 239.5,98.5C 243.089,97.2187 247.089,96.2187 251.5,95.5 Z"/></g>
<g><path style="opacity:0.006" fill="#fdfdfd" d="M 315.5,99.5 C 315.897,98.475 316.563,98.3083 317.5,99C 316.906,99.4643 316.239,99.631 315.5,99.5 Z"/></g>
<g><path style="opacity:0.004" fill="#fdfefd" d="M 226.5,100.5 C 227.833,101.167 227.833,101.167 226.5,100.5 Z"/></g>
<g><path style="opacity:0.004" fill="#fdfefd" d="M 322.5,100.5 C 323.833,101.167 323.833,101.167 322.5,100.5 Z"/></g>
<g><path style="opacity:0.769" fill="#6e6d6c" d="M 313.5,99.5 C 314.167,99.5 314.833,99.5 315.5,99.5C 317.5,100.5 319.5,101.5 321.5,102.5C 318.189,102.693 315.522,101.693 313.5,99.5 Z"/></g>
<g><path style="opacity:0.004" fill="#fdfefd" d="M 215.5,104.5 C 214.833,103.167 214.833,103.167 215.5,104.5 Z"/></g>
<g><path style="opacity:0.749" fill="#848483" d="M 235.5,100.5 C 229.501,103.276 223.167,105.276 216.5,106.5C 216.167,105.833 215.833,105.167 215.5,104.5C 222.14,103.863 228.807,102.53 235.5,100.5 Z"/></g>
<g><path style="opacity:0.675" fill="#848383" d="M 322.5,102.5 C 324.117,103.038 325.784,103.371 327.5,103.5C 327.842,104.338 328.508,104.672 329.5,104.5C 329.5,104.833 329.5,105.167 329.5,105.5C 326.654,105.448 324.32,104.448 322.5,102.5 Z"/></g>
<g><path style="opacity:0.063" fill="#f2f2f2" d="M 327.5,103.5 C 329.338,102.322 331.005,102.655 332.5,104.5C 331.5,104.5 330.5,104.5 329.5,104.5C 329.158,103.662 328.492,103.328 327.5,103.5 Z"/></g>
<g><path style="opacity:0.004" fill="#fdfefd" d="M 334.5,103.5 C 335.833,104.167 335.833,104.167 334.5,103.5 Z"/></g>
<g><path style="opacity:0.063" fill="#efefee" d="M 332.5,105.5 C 332.5,105.167 332.5,104.833 332.5,104.5C 333.167,104.5 333.833,104.5 334.5,104.5C 334.158,105.338 333.492,105.672 332.5,105.5 Z"/></g>
<g><path style="opacity:0.016" fill="#fafbfa" d="M 214.5,106.5 C 213.833,105.167 213.833,105.167 214.5,106.5 Z"/></g>
<g><path style="opacity:0.012" fill="#fbfcfb" d="M 335.5,105.5 C 336.833,106.167 336.833,106.167 335.5,105.5 Z"/></g>
<g><path style="opacity:0.008" fill="#fcfdfc" d="M 339.5,107.5 C 340.833,108.167 340.833,108.167 339.5,107.5 Z"/></g>
<g><path style="opacity:0.008" fill="#fcfdfc" d="M 208.5,109.5 C 207.833,108.167 207.833,108.167 208.5,109.5 Z"/></g>
<g><path style="opacity:0.004" fill="#fdfefd" d="M 344.5,109.5 C 345.833,110.167 345.833,110.167 344.5,109.5 Z"/></g>
<g><path style="opacity:0.31" fill="#b4b4b4" d="M 208.5,110.5 C 207.341,112.25 205.674,113.25 203.5,113.5C 204.659,111.75 206.326,110.75 208.5,110.5 Z"/></g>
<g><path style="opacity:0.004" fill="#fdfefd" d="M 347.5,111.5 C 348.833,112.167 348.833,112.167 347.5,111.5 Z"/></g>
<g><path style="opacity:0.114" fill="#c2c2c2" d="M 345.5,112.5 C 346.167,112.5 346.833,112.5 347.5,112.5C 347.833,113.167 348.167,113.833 348.5,114.5C 346.973,114.573 345.973,113.906 345.5,112.5 Z"/></g>
<g><path style="opacity:0.475" fill="#a8a8a7" d="M 203.5,113.5 C 202.738,115.262 201.404,116.262 199.5,116.5C 200.262,114.738 201.596,113.738 203.5,113.5 Z"/></g>
<g><path style="opacity:0.322" fill="#b2b2b2" d="M 349.5,115.5 C 351.027,115.427 352.027,116.094 352.5,117.5C 350.973,117.573 349.973,116.906 349.5,115.5 Z"/></g>
<g><path style="opacity:0.059" fill="#cfcfcf" d="M 197.5,117.5 C 193.526,121.138 189.526,124.805 185.5,128.5C 187.284,126.052 188.618,123.385 189.5,120.5C 192.354,119.974 195.021,118.974 197.5,117.5 Z"/></g>
<g><path style="opacity:0.004" fill="#e2e2e2" d="M 357.5,121.5 C 358.833,121.5 359.5,122.167 359.5,123.5C 358.5,123.167 357.833,122.5 357.5,121.5 Z"/></g>
<g><path style="opacity:0.024" fill="#c6c6c5" d="M 361.5,125.5 C 363.5,125.5 364.5,126.5 364.5,128.5C 363.167,127.833 362.167,126.833 361.5,125.5 Z"/></g>
<g><path style="opacity:0.016" fill="#c3c2c2" d="M 364.5,128.5 C 366.932,129.75 369.266,131.25 371.5,133C 370.944,133.383 370.611,133.883 370.5,134.5C 368.167,132.833 366.167,130.833 364.5,128.5 Z"/></g>
<g><path style="opacity:0.565" fill="#a2a2a1" d="M 185.5,128.5 C 184.167,130.5 182.5,132.167 180.5,133.5C 181.167,130.833 182.833,129.167 185.5,128.5 Z"/></g>
<g><path style="opacity:0.2" fill="#d1d1d1" d="M 177.5,134.5 C 177.842,133.662 178.508,133.328 179.5,133.5C 179.672,134.492 179.338,135.158 178.5,135.5C 178.5,134.833 178.167,134.5 177.5,134.5 Z"/></g>
<g><path style="opacity:0.047" fill="#f3f4f3" d="M 372.5,134.5 C 373.833,135.167 373.833,135.167 372.5,134.5 Z"/></g>
<g><path style="opacity:0.004" fill="#fdfefd" d="M 174.5,138.5 C 173.833,137.167 173.833,137.167 174.5,138.5 Z"/></g>
<g><path style="opacity:0.875" fill="#909090" d="M 177.5,134.5 C 177.5,134.833 177.5,135.167 177.5,135.5C 177.715,137.179 177.048,138.179 175.5,138.5C 175.989,137.005 176.655,135.671 177.5,134.5 Z"/></g>
<g><path style="opacity:0.012" fill="#fbfcfb" d="M 376.5,138.5 C 377.833,139.167 377.833,139.167 376.5,138.5 Z"/></g>
<g><path style="opacity:0.004" fill="#fdfefd" d="M 378.5,141.5 C 377.833,140.167 377.833,140.167 378.5,141.5 Z"/></g>
<g><path style="opacity:0.004" fill="#fdfefd" d="M 378.5,141.5 C 379.167,141.5 379.5,141.833 379.5,142.5C 379.167,142.167 378.833,141.833 378.5,141.5 Z"/></g>
<g><path style="opacity:0.004" fill="#fdfefd" d="M 379.5,142.5 C 380.833,143.167 380.833,143.167 379.5,142.5 Z"/></g>
<g><path style="opacity:0.043" fill="#c2c2c2" d="M 174.5,138.5 C 174.833,138.5 175.167,138.5 175.5,138.5C 174.99,141.674 173.323,144.008 170.5,145.5C 170.961,142.697 172.295,140.363 174.5,138.5 Z"/></g>
<g><path style="opacity:0.016" fill="#fafbfa" d="M 384.5,147.5 C 383.833,146.167 383.833,146.167 384.5,147.5 Z"/></g>
<g><path style="opacity:0.004" fill="#fdfefd" d="M 384.5,147.5 C 385.833,148.167 385.833,148.167 384.5,147.5 Z"/></g>
<g><path style="opacity:0.004" fill="#fdfefd" d="M 164.5,148.5 C 165.833,149.167 165.833,149.167 164.5,148.5 Z"/></g>
<g><path style="opacity:0.004" fill="#fdfefd" d="M 164.5,149.5 C 163.833,150.167 163.833,150.167 164.5,149.5 Z"/></g>
<g><path style="opacity:0.514" fill="#999998" d="M 168.5,147.5 C 168.573,149.027 167.906,150.027 166.5,150.5C 166.427,148.973 167.094,147.973 168.5,147.5 Z"/></g>
<g><path style="opacity:0.012" fill="#fbfcfb" d="M 384.5,149.5 C 385.833,150.167 385.833,150.167 384.5,149.5 Z"/></g>
<g><path style="opacity:0.008" fill="#fcfdfc" d="M 386.5,150.5 C 387.833,151.167 387.833,151.167 386.5,150.5 Z"/></g>
<g><path style="opacity:0.004" fill="#fdfefd" d="M 162.5,151.5 C 163.833,152.167 163.833,152.167 162.5,151.5 Z"/></g>
<g><path style="opacity:0.012" fill="#fbfcfb" d="M 162.5,152.5 C 162.5,152.833 162.5,153.167 162.5,153.5C 161.83,153.019 161.83,152.685 162.5,152.5 Z"/></g>
<g><path style="opacity:1" fill="#b67947" d="M 392.5,252.5 C 384.966,290.332 376.466,327.998 367,365.5C 365,369.5 363,373.5 361,377.5C 354.849,384.472 349.183,391.805 344,399.5C 330.638,413.196 316.971,426.529 303,439.5C 302.333,438.833 301.667,438.167 301,437.5C 300.895,433.63 300.062,429.963 298.5,426.5C 298.167,427.167 297.833,427.833 297.5,428.5C 297.778,432.738 298.778,436.738 300.5,440.5C 299.855,441.646 299.022,442.646 298,443.5C 296.776,438.614 296.109,433.614 296,428.5C 294.844,427.007 294.01,427.174 293.5,429C 294.167,433.667 294.833,438.333 295.5,443C 295.37,444.059 294.87,444.892 294,445.5C 293.388,437.829 292.722,430.162 292,422.5C 291.282,421.549 290.449,421.383 289.5,422C 290.39,429.679 291.39,437.346 292.5,445C 289.691,447.056 288.358,446.223 288.5,442.5C 287.604,433.873 286.604,425.206 285.5,416.5C 285.167,417.667 284.833,418.833 284.5,420C 285.6,429.472 286.267,438.972 286.5,448.5C 283.5,448.833 282.167,447.5 282.5,444.5C 282.007,434.828 281.34,425.162 280.5,415.5C 279.556,426.003 279.889,436.336 281.5,446.5C 281.5,447.5 281.5,448.5 281.5,449.5C 279.833,449.5 278.167,449.5 276.5,449.5C 276.853,436.458 276.353,423.458 275,410.5C 274.878,423.546 274.711,436.546 274.5,449.5C 273.056,437.693 272.056,425.693 271.5,413.5C 271.639,425.466 271.305,437.466 270.5,449.5C 269.066,447.78 268.233,445.78 268,443.5C 267.832,433.483 267.332,423.483 266.5,413.5C 265.542,425.209 265.875,436.876 267.5,448.5C 264.232,450.176 262.232,449.176 261.5,445.5C 261.97,436.332 261.47,427.332 260,418.5C 258.982,421.743 258.482,425.076 258.5,428.5C 259.307,434.595 259.64,440.595 259.5,446.5C 258.5,446.5 257.5,446.5 256.5,446.5C 256.357,444.738 256.691,443.071 257.5,441.5C 256.717,436.553 256.217,431.553 256,426.5C 255.667,426.167 255.333,425.833 255,425.5C 254.667,431.833 254.333,438.167 254,444.5C 232.149,427.74 210.149,404.407 188,374.5C 185.003,365.183 182.003,355.85 179,346.5C 171.639,315.662 165.139,284.662 159.5,253.5C 163.391,238.045 166.391,222.379 168.5,206.5C 171.728,193.96 176.395,182.127 182.5,171C 186.827,167.501 191.494,164.501 196.5,162C 250.242,150.412 303.909,150.745 357.5,163C 361.167,165.333 364.833,167.667 368.5,170C 370.041,171.579 371.208,173.413 372,175.5C 376.274,186.029 379.941,196.695 383,207.5C 385.102,222.793 388.268,237.793 392.5,252.5 Z"/></g>
<g><path style="opacity:0.004" fill="#fdfefd" d="M 388.5,155.5 C 388.369,154.761 388.536,154.094 389,153.5C 389.692,154.437 389.525,155.103 388.5,155.5 Z"/></g>
<g><path style="opacity:0.012" fill="#fbfcfb" d="M 161.5,155.5 C 160.833,154.167 160.833,154.167 161.5,155.5 Z"/></g>
<g><path style="opacity:0.82" fill="#6f6f6e" d="M 162.5,153.5 C 163.167,153.5 163.833,153.5 164.5,153.5C 163.699,155.999 162.366,157.999 160.5,159.5C 161.234,158.292 161.567,156.959 161.5,155.5C 162.338,155.158 162.672,154.492 162.5,153.5 Z"/></g>
<g><path style="opacity:0.004" fill="#fdfefd" d="M 389.5,156.5 C 390.833,157.167 390.833,157.167 389.5,156.5 Z"/></g>
<g><path style="opacity:0.004" fill="#fdfefd" d="M 159.5,159.5 C 158.833,158.167 158.833,158.167 159.5,159.5 Z"/></g>
<g><path style="opacity:0.004" fill="#fdfefd" d="M 390.5,158.5 C 391.833,159.167 391.833,159.167 390.5,158.5 Z"/></g>
<g><path style="opacity:0.008" fill="#fcfdfc" d="M 158.5,161.5 C 157.833,160.167 157.833,160.167 158.5,161.5 Z"/></g>
<g><path style="opacity:0.004" fill="#fdfefd" d="M 157.5,163.5 C 156.833,162.167 156.833,162.167 157.5,163.5 Z"/></g>
<g><path style="opacity:0.004" fill="#fdfefd" d="M 393.5,164.5 C 394.833,165.167 394.833,165.167 393.5,164.5 Z"/></g>
<g><path style="opacity:0.004" fill="#fdfefd" d="M 151.5,180.5 C 150.833,179.167 150.833,179.167 151.5,180.5 Z"/></g>
<g><path style="opacity:0.004" fill="#fdfefd" d="M 399.5,182.5 C 400.833,183.167 400.833,183.167 399.5,182.5 Z"/></g>
<g><path style="opacity:0.004" fill="#fdfefd" d="M 150.5,184.5 C 149.833,183.167 149.833,183.167 150.5,184.5 Z"/></g>
<g><path style="opacity:1" fill="#0b0603" d="M 336.5,218.5 C 345.12,217.64 352.786,219.973 359.5,225.5C 359.669,224.603 360.002,223.603 360.5,222.5C 363.807,224.64 366.974,226.974 370,229.5C 370.333,228.833 370.667,228.167 371,227.5C 373.158,228.826 374.992,230.493 376.5,232.5C 374.635,233.666 372.968,233.333 371.5,231.5C 370.672,232.415 369.672,233.081 368.5,233.5C 349.089,226.948 329.756,227.282 310.5,234.5C 308.603,234.272 307.27,233.272 306.5,231.5C 305.239,236.485 303.906,236.319 302.5,231C 303.006,227.982 304.006,225.148 305.5,222.5C 306.308,224.423 306.808,226.423 307,228.5C 307.36,226.579 308.194,224.912 309.5,223.5C 310.251,224.376 310.751,225.376 311,226.5C 312.171,224.384 313.671,223.718 315.5,224.5C 317.167,223.333 318.833,222.167 320.5,221C 326.005,220.339 331.338,219.506 336.5,218.5 Z"/></g>
<g><path style="opacity:1" fill="#0c0704" d="M 202.5,218.5 C 211.871,218.838 221.205,219.671 230.5,221C 232.528,223.303 234.861,224.137 237.5,223.5C 238.48,224.981 239.647,226.315 241,227.5C 241.197,222.822 242.197,222.488 244,226.5C 244.219,225.062 244.719,223.729 245.5,222.5C 248.372,226.476 249.039,230.809 247.5,235.5C 246.914,235.291 246.414,234.957 246,234.5C 245.172,225.19 244.672,225.19 244.5,234.5C 240.039,233.944 235.706,232.777 231.5,231C 215.241,227.11 199.241,227.943 183.5,233.5C 182.5,233.167 181.5,232.833 180.5,232.5C 181.506,231.604 181.506,230.938 180.5,230.5C 179.579,232.756 177.912,233.756 175.5,233.5C 175.351,232.448 175.517,231.448 176,230.5C 177.512,229.743 178.846,228.743 180,227.5C 180.414,227.957 180.914,228.291 181.5,228.5C 184.213,226.618 187.047,224.951 190,223.5C 190.945,223.905 191.612,224.572 192,225.5C 195.604,223.254 199.104,220.92 202.5,218.5 Z"/></g>
<g><path style="opacity:0.392" fill="#c2c2c2" d="M 148.5,231.5 C 149.434,232.568 149.768,233.901 149.5,235.5C 149.167,235.5 148.833,235.5 148.5,235.5C 147.314,234.039 147.314,232.705 148.5,231.5 Z"/></g>
<g><path style="opacity:0.058" fill="#d7d6d6" d="M 402.5,223.5 C 402.419,231.347 402.419,239.014 402.5,246.5C 402.234,249.345 401.234,251.678 399.5,253.5C 400.586,243.366 401.586,233.366 402.5,223.5 Z"/></g>
<g><path style="opacity:0.012" fill="#ececec" d="M 148.5,235.5 C 148.5,236.167 148.833,236.5 149.5,236.5C 150.15,238.435 150.483,240.435 150.5,242.5C 149.167,242.833 149.167,243.167 150.5,243.5C 150.5,243.833 150.5,244.167 150.5,244.5C 149.503,244.53 148.836,244.03 148.5,243C 148.296,240.463 148.296,237.963 148.5,235.5 Z"/></g>
<g><path style="opacity:0.012" fill="#e8e8e8" d="M 150.5,244.5 C 151.404,245.209 151.737,246.209 151.5,247.5C 150.662,247.842 150.328,248.508 150.5,249.5C 149.609,248.739 148.942,247.739 148.5,246.5C 148.846,245.304 149.346,245.304 150,246.5C 150.464,245.906 150.631,245.239 150.5,244.5 Z"/></g>
<g><path style="opacity:1" fill="#110a05" d="M 205.5,248.5 C 217.002,246.582 227.168,249.249 236,256.5C 237.657,260.645 240.157,263.312 243.5,264.5C 243.854,266.562 244.021,268.562 244,270.5C 241.989,266.998 240.656,266.998 240,270.5C 235.614,267.237 231.781,263.403 228.5,259C 220.267,256.175 211.934,255.842 203.5,258C 195.777,260.745 188.277,263.912 181,267.5C 177.096,266.937 173.263,265.771 169.5,264C 168.112,263.111 168.278,262.611 170,262.5C 172.05,263.791 174.217,264.291 176.5,264C 175.289,263.107 175.289,262.274 176.5,261.5C 186.017,256.561 195.684,252.228 205.5,248.5 Z"/></g>
<g><path style="opacity:1" fill="#0e0804" d="M 330.5,248.5 C 340.681,247.629 350.348,249.462 359.5,254C 365.421,257.447 371.421,260.613 377.5,263.5C 379.258,262.554 380.925,262.554 382.5,263.5C 381.975,264.192 381.308,264.692 380.5,265C 375.873,266.157 371.207,266.99 366.5,267.5C 366.719,266.325 366.386,265.325 365.5,264.5C 354.343,257.877 342.343,255.377 329.5,257C 323.839,259.482 319.172,263.316 315.5,268.5C 313.958,269.747 312.458,269.747 311,268.5C 309.488,269.257 308.154,270.257 307,271.5C 308.441,269.363 308.775,267.03 308,264.5C 309.016,263.366 309.683,263.699 310,265.5C 314.299,256.623 321.132,250.956 330.5,248.5 Z"/></g>
<g><path style="opacity:0.039" fill="#ececec" d="M 150.5,249.5 C 150.833,249.5 151.167,249.5 151.5,249.5C 152.451,250.919 152.784,252.585 152.5,254.5C 149.869,253.575 149.202,251.909 150.5,249.5 Z"/></g>
<g><path style="opacity:1" fill="#0a0807" d="M 159.5,253.5 C 165.139,284.662 171.639,315.662 179,346.5C 182.003,355.85 185.003,365.183 188,374.5C 210.149,404.407 232.149,427.74 254,444.5C 254.333,438.167 254.667,431.833 255,425.5C 255.333,425.833 255.667,426.167 256,426.5C 256.217,431.553 256.717,436.553 257.5,441.5C 256.691,443.071 256.357,444.738 256.5,446.5C 257.5,446.5 258.5,446.5 259.5,446.5C 259.435,446.938 259.601,447.272 260,447.5C 260.278,446.584 260.778,445.918 261.5,445.5C 262.232,449.176 264.232,450.176 267.5,448.5C 265.875,436.876 265.542,425.209 266.5,413.5C 267.332,423.483 267.832,433.483 268,443.5C 268.233,445.78 269.066,447.78 270.5,449.5C 271.305,437.466 271.639,425.466 271.5,413.5C 272.056,425.693 273.056,437.693 274.5,449.5C 275.167,449.5 275.833,449.5 276.5,449.5C 278.167,449.5 279.833,449.5 281.5,449.5C 281.5,448.5 281.5,447.5 281.5,446.5C 281.328,445.508 281.662,444.842 282.5,444.5C 282.167,447.5 283.5,448.833 286.5,448.5C 287.167,446.5 287.833,444.5 288.5,442.5C 288.358,446.223 289.691,447.056 292.5,445C 291.39,437.346 290.39,429.679 289.5,422C 290.449,421.383 291.282,421.549 292,422.5C 292.722,430.162 293.388,437.829 294,445.5C 294.87,444.892 295.37,444.059 295.5,443C 294.833,438.333 294.167,433.667 293.5,429C 294.01,427.174 294.844,427.007 296,428.5C 296.109,433.614 296.776,438.614 298,443.5C 299.022,442.646 299.855,441.646 300.5,440.5C 298.778,436.738 297.778,432.738 297.5,428.5C 297.833,427.833 298.167,427.167 298.5,426.5C 300.062,429.963 300.895,433.63 301,437.5C 301.667,438.167 302.333,438.833 303,439.5C 316.971,426.529 330.638,413.196 344,399.5C 349.183,391.805 354.849,384.472 361,377.5C 363,373.5 365,369.5 367,365.5C 376.466,327.998 384.966,290.332 392.5,252.5C 394.754,253.124 396.421,254.457 397.5,256.5C 397.5,257.167 397.5,257.833 397.5,258.5C 397.343,259.873 397.51,261.207 398,262.5C 401.846,258.703 406.346,257.37 411.5,258.5C 411.751,260.17 412.418,261.67 413.5,263C 412.748,263.671 412.414,264.504 412.5,265.5C 409.663,264.384 406.996,264.884 404.5,267C 400.439,269.973 396.939,273.473 394,277.5C 390.261,295.932 386.095,314.265 381.5,332.5C 382.18,333.86 382.847,335.193 383.5,336.5C 382.9,337.9 381.9,338.9 380.5,339.5C 378.282,353.705 375.116,367.705 371,381.5C 365.023,387.145 359.357,393.145 354,399.5C 352.14,417.136 350.64,434.803 349.5,452.5C 352.885,453.689 356.052,455.356 359,457.5C 359.68,464.379 361.013,471.046 363,477.5C 363.093,473.752 363.26,470.086 363.5,466.5C 369.049,464.657 374.716,463.324 380.5,462.5C 381.263,463.268 382.263,463.768 383.5,464C 383.167,464.333 382.833,464.667 382.5,465C 383.756,465.417 384.423,466.25 384.5,467.5C 378.709,467.965 373.042,468.965 367.5,470.5C 367.194,473.385 367.527,476.052 368.5,478.5C 368.369,479.239 368.536,479.906 369,480.5C 385.372,474.649 402.205,472.982 419.5,475.5C 424.084,475.211 426.751,477.211 427.5,481.5C 426.609,482.11 425.609,482.443 424.5,482.5C 413.287,485.443 401.954,487.943 390.5,490C 388.956,490.29 387.623,490.956 386.5,492C 387.044,492.717 387.711,493.217 388.5,493.5C 388.443,494.609 388.11,495.609 387.5,496.5C 379.557,490.943 371.057,486.276 362,482.5C 359.516,487.909 361.349,491.243 367.5,492.5C 371.345,496.845 375.345,501.012 379.5,505C 386.365,509.597 393.365,513.93 400.5,518C 402.345,519.128 404.345,519.628 406.5,519.5C 406.088,517.027 407.088,515.694 409.5,515.5C 410.873,515.343 412.207,515.51 413.5,516C 412.316,517.145 412.316,518.312 413.5,519.5C 419.786,520.287 426.786,521.121 434.5,522C 437.457,522.279 440.123,523.113 442.5,524.5C 426.833,524.5 411.167,524.5 395.5,524.5C 390.816,520.156 385.482,516.823 379.5,514.5C 378.5,514.667 377.5,514.833 376.5,515C 373.909,518.074 371.576,521.241 369.5,524.5C 366.167,524.5 362.833,524.5 359.5,524.5C 363.024,522.136 365.69,518.969 367.5,515C 366.638,510.468 363.972,507.468 359.5,506C 356.893,505.182 354.226,504.682 351.5,504.5C 334.806,507.668 318.14,510.502 301.5,513C 303.841,516.517 305.508,520.35 306.5,524.5C 305.167,524.5 303.833,524.5 302.5,524.5C 301.616,520.308 300.283,516.308 298.5,512.5C 292.441,512.772 286.441,513.439 280.5,514.5C 271.528,514.05 262.195,513.383 252.5,512.5C 252.255,516.866 250.922,520.866 248.5,524.5C 247.167,524.5 245.833,524.5 244.5,524.5C 245.564,520.24 247.23,516.24 249.5,512.5C 233.548,509.951 217.381,507.284 201,504.5C 193.834,504.999 188.001,507.999 183.5,513.5C 185.494,518.489 188.827,522.156 193.5,524.5C 190.5,524.5 187.5,524.5 184.5,524.5C 183.404,521.968 182.071,519.635 180.5,517.5C 175.737,507.961 172.071,497.961 169.5,487.5C 170.396,485.199 170.562,482.866 170,480.5C 162.404,492.036 154.57,503.37 146.5,514.5C 143.529,517.808 140.529,521.141 137.5,524.5C 135.5,524.5 133.5,524.5 131.5,524.5C 132.168,515.486 134.834,507.153 139.5,499.5C 142.559,495.063 145.392,490.397 148,485.5C 149.019,484.313 150.186,483.313 151.5,482.5C 152.583,483.365 152.749,484.365 152,485.5C 148.576,490.022 145.409,494.689 142.5,499.5C 139.169,505.334 136.502,511.5 134.5,518C 134.833,518.5 135.167,519 135.5,519.5C 142.578,513.997 148.244,507.33 152.5,499.5C 157.804,492.914 162.638,485.914 167,478.5C 167.944,470.844 168.277,463.178 168,455.5C 164.66,462.852 160.827,469.852 156.5,476.5C 155.719,475.271 155.219,473.938 155,472.5C 153.855,473.636 152.688,474.636 151.5,475.5C 147.482,477.101 144.316,479.768 142,483.5C 136.667,494.833 131.333,506.167 126,517.5C 124.231,519.945 122.398,522.278 120.5,524.5C 118.167,524.5 115.833,524.5 113.5,524.5C 116.201,521.394 119.035,518.394 122,515.5C 127.782,504.15 132.782,492.484 137,480.5C 143.039,474.63 149.539,469.296 156.5,464.5C 159.837,459.157 163.17,453.824 166.5,448.5C 177.707,443.781 189.374,440.781 201.5,439.5C 200.239,425.714 199.072,412.047 198,398.5C 193.672,393.173 189.006,388.173 184,383.5C 182.414,381.33 181.08,378.996 180,376.5C 176.372,364.654 173.372,352.654 171,340.5C 167.405,348.719 162.238,349.719 155.5,343.5C 148.196,335.192 140.862,326.859 133.5,318.5C 122.516,298.179 123.516,278.345 136.5,259C 140.055,257.741 143.722,257.741 147.5,259C 149.911,260.955 152.411,262.789 155,264.5C 155.122,262.718 154.622,261.052 153.5,259.5C 153.5,258.167 153.5,256.833 153.5,255.5C 154.815,254.524 156.148,253.524 157.5,252.5C 158.183,252.863 158.85,253.196 159.5,253.5 Z"/></g>
<g><path style="opacity:0.141" fill="#d3d3d3" d="M 152.5,254.5 C 153.167,254.5 153.5,254.833 153.5,255.5C 153.5,256.833 153.5,258.167 153.5,259.5C 150.746,257.826 150.413,256.159 152.5,254.5 Z"/></g>
<g><path style="opacity:0.129" fill="#eae9e8" d="M 399.5,254.5 C 400.598,255.601 400.765,256.934 400,258.5C 399.23,259.598 398.397,259.598 397.5,258.5C 397.5,257.833 397.5,257.167 397.5,256.5C 398.167,256.5 398.5,256.167 398.5,255.5C 399.167,255.5 399.5,255.167 399.5,254.5 Z"/></g>
<g><path style="opacity:1" fill="#b27645" d="M 141.5,264.5 C 148.419,265.57 153.585,269.236 157,275.5C 161.648,293.889 165.815,312.389 169.5,331C 168.368,334.261 166.701,337.261 164.5,340C 162.833,340.667 161.167,340.667 159.5,340C 152.362,332.193 145.195,324.359 138,316.5C 133.283,310.014 131.116,302.681 131.5,294.5C 132.14,289.8 132.973,285.134 134,280.5C 135.343,284.361 136.843,284.361 138.5,280.5C 140.586,278.977 142.252,279.31 143.5,281.5C 142.254,285.254 140.754,288.921 139,292.5C 138.333,294.167 138.333,295.833 139,297.5C 141.681,292.801 144.347,288.135 147,283.5C 149.513,287.397 150.013,291.564 148.5,296C 149.706,298.9 150.372,301.734 150.5,304.5C 149.855,306.432 148.521,307.599 146.5,308C 148.49,311.99 151.657,314.49 156,315.5C 157.115,318.155 157.782,320.821 158,323.5C 155.097,321.053 152.43,318.386 150,315.5C 149.333,316.833 149.333,318.167 150,319.5C 152.19,321.388 154.023,323.555 155.5,326C 157.65,327.59 159.983,328.257 162.5,328C 163.766,324.491 163.599,320.991 162,317.5C 160.989,316.663 159.822,316.33 158.5,316.5C 158.649,315.448 158.483,314.448 158,313.5C 156.075,311.787 153.908,310.453 151.5,309.5C 153.315,305.377 155.315,301.377 157.5,297.5C 156.92,293.436 156.087,289.436 155,285.5C 150.481,281.978 146.315,278.145 142.5,274C 141.056,273.219 139.723,273.386 138.5,274.5C 137.376,275.914 136.376,277.414 135.5,279C 134.833,279.667 134.167,279.667 133.5,279C 136.05,274.064 138.717,269.23 141.5,264.5 Z"/></g>
<g><path style="opacity:1" fill="#b27645" d="M 412.5,265.5 C 419.843,278.75 421.676,292.75 418,307.5C 410.927,317.91 403.094,327.743 394.5,337C 392.769,338.63 390.769,339.797 388.5,340.5C 387.5,340.167 386.5,339.833 385.5,339.5C 385.058,338.261 384.391,337.261 383.5,336.5C 382.847,335.193 382.18,333.86 381.5,332.5C 386.095,314.265 390.261,295.932 394,277.5C 396.939,273.473 400.439,269.973 404.5,267C 406.996,264.884 409.663,264.384 412.5,265.5 Z"/></g>
<g><path style="opacity:1" fill="#0d0704" d="M 408.5,273.5 C 412.526,274.354 415.193,276.854 416.5,281C 416.167,281.5 415.833,282 415.5,282.5C 414.167,281.5 412.833,280.5 411.5,279.5C 409.709,279.962 408.709,281.129 408.5,283C 409.597,286.692 411.097,290.192 413,293.5C 413.667,294.833 413.667,296.167 413,297.5C 410.274,293.381 408.107,289.048 406.5,284.5C 404.876,284.36 403.71,285.027 403,286.5C 402.566,293.512 402.066,300.512 401.5,307.5C 402.5,307.5 403.5,307.5 404.5,307.5C 403.833,309.5 403.167,311.5 402.5,313.5C 396.432,313.591 393.598,316.591 394,322.5C 396.679,320.654 398.845,318.321 400.5,315.5C 401.72,315.887 402.387,316.72 402.5,318C 400.305,322.861 396.805,326.361 392,328.5C 387.241,325.796 386.408,322.129 389.5,317.5C 390.325,316.614 391.325,316.281 392.5,316.5C 392.973,312.362 395.307,310.362 399.5,310.5C 398.138,304.913 396.471,299.413 394.5,294C 394.871,291.144 395.371,288.311 396,285.5C 400.722,281.942 404.889,277.942 408.5,273.5 Z"/></g>
<g><path style="opacity:1" fill="#1d140d" d="M 270.5,281.5 C 272.335,282.122 273.502,283.456 274,285.5C 275.967,289.401 277.3,293.401 278,297.5C 274.685,292.537 272.185,287.204 270.5,281.5 Z"/></g>
<g><path style="opacity:1" fill="#251a11" d="M 261.5,281.5 C 262.497,281.47 263.164,281.97 263.5,283C 265.519,287.704 266.686,292.537 267,297.5C 264.857,292.256 263.024,286.923 261.5,281.5 Z"/></g>
<g><path style="opacity:1" fill="#20160e" d="M 279.5,286.5 C 282.367,289.233 283.867,292.566 284,296.5C 281.676,293.52 280.176,290.187 279.5,286.5 Z"/></g>
<g><path style="opacity:1" fill="#392618" d="M 286.5,289.5 C 288.96,291.398 289.96,293.731 289.5,296.5C 287.673,294.513 286.673,292.179 286.5,289.5 Z"/></g>
<g><path style="opacity:1" fill="#1a120b" d="M 264.5,278.5 C 266.173,279.343 267.34,280.676 268,282.5C 270.237,288.871 272.237,295.204 274,301.5C 269.727,294.288 266.561,286.622 264.5,278.5 Z"/></g>
<g><path style="opacity:1" fill="#120b06" d="M 413.5,299.5 C 416.747,306.712 414.58,312.045 407,315.5C 406.5,315.167 406,314.833 405.5,314.5C 407.5,312.167 409.5,309.833 411.5,307.5C 412.169,304.803 412.836,302.137 413.5,299.5 Z"/></g>
<g><path style="opacity:1" fill="#0b0603" d="M 136.5,299.5 C 138,304.809 140.834,309.476 145,313.5C 145.688,314.332 145.521,314.998 144.5,315.5C 138.018,311.871 135.352,306.538 136.5,299.5 Z"/></g>
<g><path style="opacity:1" fill="#160f08" d="M 252.5,310.5 C 252.631,311.376 252.298,312.043 251.5,312.5C 248.832,311.485 248.166,309.818 249.5,307.5C 250.288,308.77 251.288,309.77 252.5,310.5 Z"/></g>
<g><path style="opacity:1" fill="#20170f" d="M 256.5,310.5 C 257.867,308.115 259.201,308.448 260.5,311.5C 260.167,311.833 259.833,312.167 259.5,312.5C 258.482,311.807 257.482,311.141 256.5,310.5 Z"/></g>
<g><path style="opacity:1" fill="#171009" d="M 256.5,310.5 C 256.631,311.376 256.298,312.043 255.5,312.5C 254.482,311.807 253.482,311.141 252.5,310.5C 251.972,309.153 251.805,307.819 252,306.5C 253.371,308.041 254.871,309.375 256.5,310.5 Z"/></g>
<g><path style="opacity:1" fill="#140d07" d="M 299.5,311.5 C 301.624,312.031 303.124,313.365 304,315.5C 306.446,320.725 308.613,326.058 310.5,331.5C 309.315,335.356 306.982,338.356 303.5,340.5C 303.167,340.167 302.833,339.833 302.5,339.5C 305.225,337.278 306.891,334.445 307.5,331C 304.936,324.773 301.936,318.773 298.5,313C 299.056,312.617 299.389,312.117 299.5,311.5 Z"/></g>
<g><path style="opacity:0.999" fill="#191716" d="M 411.5,258.5 C 414.449,259.614 416.615,261.614 418,264.5C 425.09,278.918 427.09,293.918 424,309.5C 416.011,324.152 405.511,336.652 392.5,347C 390.833,347.667 389.167,347.667 387.5,347C 385.422,344.327 383.088,341.827 380.5,339.5C 381.9,338.9 382.9,337.9 383.5,336.5C 384.391,337.261 385.058,338.261 385.5,339.5C 386.5,339.833 387.5,340.167 388.5,340.5C 390.769,339.797 392.769,338.63 394.5,337C 403.094,327.743 410.927,317.91 418,307.5C 421.676,292.75 419.843,278.75 412.5,265.5C 412.414,264.504 412.748,263.671 413.5,263C 412.418,261.67 411.751,260.17 411.5,258.5 Z"/></g>
<g><path style="opacity:1" fill="#130c07" d="M 245.5,312.5 C 246.497,312.47 247.164,312.97 247.5,314C 244.972,318.593 242.639,323.26 240.5,328C 241.824,332.664 244.657,336.164 249,338.5C 249.749,339.635 249.583,340.635 248.5,341.5C 239.928,337.17 236.761,330.504 239,321.5C 241.666,318.824 243.833,315.824 245.5,312.5 Z"/></g>
<g><path style="opacity:1" fill="#0d0704" d="M 297.5,330.5 C 299.861,330.674 302.194,331.007 304.5,331.5C 304.5,332.5 304.5,333.5 304.5,334.5C 298.332,336.46 292.999,339.96 288.5,345C 286.833,345.833 285.167,346.667 283.5,347.5C 282.479,346.998 282.312,346.332 283,345.5C 288.051,340.59 292.885,335.59 297.5,330.5 Z"/></g>
<g><path style="opacity:1" fill="#110b06" d="M 250.5,333.5 C 258.645,333.406 264.978,336.739 269.5,343.5C 269.167,343.833 268.833,344.167 268.5,344.5C 265.696,342.862 263.029,341.029 260.5,339C 257.109,338.509 253.776,337.676 250.5,336.5C 249.438,335.575 249.438,334.575 250.5,333.5 Z"/></g>
<g><path style="opacity:1" fill="#3d150e" d="M 333.5,349.5 C 335.045,350.23 335.878,351.563 336,353.5C 340.418,355.7 339.918,356.534 334.5,356C 332.542,353.997 332.209,351.831 333.5,349.5 Z"/></g>
<g><path style="opacity:1" fill="#150e07" d="M 317.5,355.5 C 316.602,354.842 315.602,354.176 314.5,353.5C 319.983,351.712 324.983,352.546 329.5,356C 325.525,355.983 321.525,355.816 317.5,355.5 Z"/></g>
<g><path style="opacity:1" fill="#160e08" d="M 317.5,355.5 C 314.155,357.217 310.488,358.717 306.5,360C 300.109,359.638 293.776,359.472 287.5,359.5C 284.96,358.146 283.46,356.146 283,353.5C 285.646,356.246 288.812,357.413 292.5,357C 290.74,356.035 290.406,354.868 291.5,353.5C 295.546,357.091 300.212,358.257 305.5,357C 303.579,356.64 301.912,355.806 300.5,354.5C 299.167,353.833 299.167,353.167 300.5,352.5C 305.918,354.88 311.585,355.88 317.5,355.5 Z"/></g>
<g><path style="opacity:1" fill="#19110a" d="M 258.5,361.5 C 263.367,360.069 268.033,358.069 272.5,355.5C 273.748,357.597 273.248,359.264 271,360.5C 265.656,364.231 259.822,365.565 253.5,364.5C 255.36,363.675 257.026,362.675 258.5,361.5 Z"/></g>
<g><path style="opacity:1" fill="#150e08" d="M 287.5,359.5 C 286.796,361.344 285.463,361.844 283.5,361C 280.967,359.967 279.301,358.133 278.5,355.5C 278.833,355.167 279.167,354.833 279.5,354.5C 281.223,357.694 283.889,359.361 287.5,359.5 Z"/></g>
<g><path style="opacity:1" fill="#191109" d="M 239.5,357.5 C 240.675,357.281 241.675,357.614 242.5,358.5C 238.786,360.767 234.786,362.434 230.5,363.5C 229.784,362.689 228.95,362.022 228,361.5C 225.153,362.694 222.32,362.694 219.5,361.5C 222.775,360.763 225.942,359.763 229,358.5C 229.915,359.328 230.581,360.328 231,361.5C 234.206,360.754 237.039,359.42 239.5,357.5 Z"/></g>
<g><path style="opacity:1" fill="#3b130c" d="M 210.5,359.5 C 212.441,361.011 212.941,363.011 212,365.5C 211.29,366.973 210.124,367.64 208.5,367.5C 208.584,364.673 209.25,362.006 210.5,359.5 Z"/></g>
<g><path style="opacity:1" fill="#1c130c" d="M 258.5,361.5 C 254.385,362.591 250.219,363.591 246,364.5C 242.795,363.736 239.628,363.402 236.5,363.5C 241.65,361.092 246.65,358.425 251.5,355.5C 252.521,356.002 252.688,356.668 252,357.5C 249.92,359.123 247.754,360.623 245.5,362C 251.435,361.3 257.101,359.467 262.5,356.5C 263.506,356.938 263.506,357.604 262.5,358.5C 261.099,359.521 259.765,360.521 258.5,361.5 Z"/></g>
<g><path style="opacity:1" fill="#110b06" d="M 309.5,370.5 C 314.621,370.216 317.621,372.55 318.5,377.5C 305.484,376.552 292.484,376.219 279.5,376.5C 273.971,378.139 268.304,379.139 262.5,379.5C 255.465,378.598 248.465,378.265 241.5,378.5C 240.047,376.356 240.38,374.523 242.5,373C 257.999,374.043 273.499,374.543 289,374.5C 296.154,374.163 302.988,372.83 309.5,370.5 Z"/></g>
<g><path style="opacity:1" fill="#18100a" d="M 270.5,388.5 C 276.073,392.125 281.573,392.458 287,389.5C 288.824,390.749 288.657,391.915 286.5,393C 282.167,393.667 277.833,393.667 273.5,393C 272.167,392 270.833,391 269.5,390C 270.056,389.617 270.389,389.117 270.5,388.5 Z"/></g>
<g><path style="opacity:1" fill="#b67947" d="M 205.5,408.5 C 218.001,422.167 231.334,435 245.5,447C 255.89,452.194 265.223,458.861 273.5,467C 270.563,466.989 267.73,467.155 265,467.5C 256.935,466.172 248.769,465.339 240.5,465C 230.407,462.469 220.407,459.635 210.5,456.5C 209.719,455.271 209.219,453.938 209,452.5C 207.501,437.829 206.334,423.162 205.5,408.5 Z"/></g>
<g><path style="opacity:1" fill="#271b12" d="M 261.5,445.5 C 260.778,445.918 260.278,446.584 260,447.5C 259.601,447.272 259.435,446.938 259.5,446.5C 259.64,440.595 259.307,434.595 258.5,428.5C 258.482,425.076 258.982,421.743 260,418.5C 261.47,427.332 261.97,436.332 261.5,445.5 Z"/></g>
<g><path style="opacity:1" fill="#362416" d="M 282.5,444.5 C 281.662,444.842 281.328,445.508 281.5,446.5C 279.889,436.336 279.556,426.003 280.5,415.5C 281.34,425.162 282.007,434.828 282.5,444.5 Z"/></g>
<g><path style="opacity:1" fill="#382617" d="M 276.5,449.5 C 275.833,449.5 275.167,449.5 274.5,449.5C 274.711,436.546 274.878,423.546 275,410.5C 276.353,423.458 276.853,436.458 276.5,449.5 Z"/></g>
<g><path style="opacity:1" fill="#3a2717" d="M 288.5,442.5 C 287.833,444.5 287.167,446.5 286.5,448.5C 286.267,438.972 285.6,429.472 284.5,420C 284.833,418.833 285.167,417.667 285.5,416.5C 286.604,425.206 287.604,433.873 288.5,442.5 Z"/></g>
<g><path style="opacity:1" fill="#af7444" d="M 342.5,441.5 C 343.357,446.059 343.024,450.726 341.5,455.5C 339.588,457.156 337.588,457.489 335.5,456.5C 338.033,451.555 340.366,446.555 342.5,441.5 Z"/></g>
<g><path style="opacity:1" fill="#8d7779" d="M 198.5,445.5 C 199.833,445.5 201.167,445.5 202.5,445.5C 202.5,447.833 202.5,450.167 202.5,452.5C 199.361,453.193 196.361,454.36 193.5,456C 192.874,456.75 192.374,457.584 192,458.5C 190.071,471.412 189.238,484.246 189.5,497C 186.462,499.703 183.795,502.703 181.5,506C 180.517,506.591 179.85,506.257 179.5,505C 173.43,493.463 172.264,481.296 176,468.5C 176.561,466.275 177.561,464.275 179,462.5C 183.978,457.505 189.478,453.339 195.5,450C 197.141,448.871 198.141,447.371 198.5,445.5 Z"/></g>
<g><path style="opacity:1" fill="#dedede" d="M 176.5,446.5 C 179.173,446.684 179.84,447.851 178.5,450C 176.029,450.706 173.695,450.373 171.5,449C 173.491,448.626 175.158,447.793 176.5,446.5 Z"/></g>
<g><path style="opacity:1" fill="#191414" d="M 201.5,457.5 C 215.699,463.566 230.366,468.233 245.5,471.5C 245.334,480.839 245.5,490.173 246,499.5C 247.19,502.194 247.356,504.861 246.5,507.5C 233.091,505.876 219.757,503.71 206.5,501C 203.24,500.025 200.073,498.858 197,497.5C 197.151,487.398 196.651,477.231 195.5,467C 195.227,462.235 197.227,459.068 201.5,457.5 Z"/></g>
<g><path style="opacity:1" fill="#191414" d="M 348.5,457.5 C 350.936,457.317 353.103,457.984 355,459.5C 355.499,467.512 355.333,475.512 354.5,483.5C 353.07,483.579 351.736,483.246 350.5,482.5C 349.5,482.833 348.833,483.5 348.5,484.5C 350.071,486.415 352.071,487.415 354.5,487.5C 354.274,490.249 354.607,492.916 355.5,495.5C 355.023,496.478 354.357,497.311 353.5,498C 337.815,502.77 321.815,505.937 305.5,507.5C 305.362,495.57 305.362,483.57 305.5,471.5C 320.803,469.621 335.136,464.954 348.5,457.5 Z"/></g>
<g><path style="opacity:1" fill="#fdfcfc" d="M 473.5,494.5 C 473.631,495.376 473.298,496.043 472.5,496.5C 467.937,496.339 464.104,494.672 461,491.5C 458.536,490.839 456.036,490.339 453.5,490C 447.64,485.75 440.974,483.75 433.5,484C 431.277,483.434 429.277,482.6 427.5,481.5C 426.751,477.211 424.084,475.211 419.5,475.5C 419.119,474.069 418.119,473.236 416.5,473C 399.996,471.128 383.996,472.961 368.5,478.5C 367.527,476.052 367.194,473.385 367.5,470.5C 373.042,468.965 378.709,467.965 384.5,467.5C 397.381,467.715 410.214,467.049 423,465.5C 435.993,469.053 448.827,473.22 461.5,478C 466.366,482.91 470.366,488.41 473.5,494.5 Z"/></g>
<g><path style="opacity:1" fill="#ddbabc" d="M 152.5,499.5 C 149.416,499.271 146.082,499.271 142.5,499.5C 145.409,494.689 148.576,490.022 152,485.5C 152.749,484.365 152.583,483.365 151.5,482.5C 150.186,483.313 149.019,484.313 148,485.5C 145.392,490.397 142.559,495.063 139.5,499.5C 139.343,498.127 139.51,496.793 140,495.5C 144.056,488.948 147.889,482.281 151.5,475.5C 152.688,474.636 153.855,473.636 155,472.5C 155.219,473.938 155.719,475.271 156.5,476.5C 160.827,469.852 164.66,462.852 168,455.5C 168.277,463.178 167.944,470.844 167,478.5C 162.638,485.914 157.804,492.914 152.5,499.5 Z"/></g>
<g><path style="opacity:1" fill="#fafafa" d="M 253.5,508.5 C 253.008,506.181 252.008,504.181 250.5,502.5C 249.526,492.582 249.193,482.582 249.5,472.5C 253.131,472.16 256.464,472.994 259.5,475C 271.167,475.667 282.833,475.667 294.5,475C 296.939,473.39 299.606,472.556 302.5,472.5C 302.197,479.786 302.03,487.119 302,494.5C 301.842,499.297 300.676,503.797 298.5,508C 283.504,509.667 268.504,509.833 253.5,508.5 Z"/></g>
<g><path style="opacity:1" fill="#e8ced0" d="M 419.5,475.5 C 402.205,472.982 385.372,474.649 369,480.5C 368.536,479.906 368.369,479.239 368.5,478.5C 383.996,472.961 399.996,471.128 416.5,473C 418.119,473.236 419.119,474.069 419.5,475.5 Z"/></g>
<g><path style="opacity:1" fill="#f4f2f3" d="M 151.5,475.5 C 147.889,482.281 144.056,488.948 140,495.5C 139.51,496.793 139.343,498.127 139.5,499.5C 134.834,507.153 132.168,515.486 131.5,524.5C 127.833,524.5 124.167,524.5 120.5,524.5C 122.398,522.278 124.231,519.945 126,517.5C 131.333,506.167 136.667,494.833 142,483.5C 144.316,479.768 147.482,477.101 151.5,475.5 Z"/></g>
<g><path style="opacity:1" fill="#ddb4b7" d="M 397.5,478.5 C 404.689,477.441 412.023,477.608 419.5,479C 414.765,480.29 409.765,481.79 404.5,483.5C 402.45,481.453 400.117,479.786 397.5,478.5 Z"/></g>
<g><path style="opacity:0.999" fill="#131313" d="M 380.5,462.5 C 397.504,463.31 414.504,463.477 431.5,463C 442.045,466.737 452.711,470.071 463.5,473C 469.333,480.833 475.167,488.667 481,496.5C 483.714,499.215 486.714,501.549 490,503.5C 490.798,505.259 490.631,506.926 489.5,508.5C 479.879,504.97 470.046,502.303 460,500.5C 459.558,502.679 458.558,503.345 457,502.5C 443.078,504.222 429.245,506.722 415.5,510C 415.167,510.333 414.833,510.667 414.5,511C 416.848,513.354 417.514,516.021 416.5,519C 415.552,519.483 414.552,519.649 413.5,519.5C 412.316,518.312 412.316,517.145 413.5,516C 412.207,515.51 410.873,515.343 409.5,515.5C 409.918,514.778 410.584,514.278 411.5,514C 410.051,512.883 408.384,512.216 406.5,512C 400.558,506.212 394.225,501.046 387.5,496.5C 388.11,495.609 388.443,494.609 388.5,493.5C 393.98,497.079 399.314,500.912 404.5,505C 412.453,505.079 420.119,503.912 427.5,501.5C 439.084,500.43 450.584,498.764 462,496.5C 467.158,497.786 472.325,498.619 477.5,499C 475.93,497.603 474.596,496.103 473.5,494.5C 470.366,488.41 466.366,482.91 461.5,478C 448.827,473.22 435.993,469.053 423,465.5C 410.214,467.049 397.381,467.715 384.5,467.5C 384.423,466.25 383.756,465.417 382.5,465C 382.833,464.667 383.167,464.333 383.5,464C 382.263,463.768 381.263,463.268 380.5,462.5 Z"/></g>
<g><path style="opacity:1" fill="#dfb7bb" d="M 424.5,482.5 C 424.209,486.278 422.876,489.612 420.5,492.5C 421.098,493.795 421.598,495.128 422,496.5C 424.617,497.351 426.451,499.018 427.5,501.5C 420.119,503.912 412.453,505.079 404.5,505C 399.314,500.912 393.98,497.079 388.5,493.5C 387.711,493.217 387.044,492.717 386.5,492C 387.623,490.956 388.956,490.29 390.5,490C 401.954,487.943 413.287,485.443 424.5,482.5 Z"/></g>
<g><path style="opacity:1" fill="#dcb4b7" d="M 387.5,496.5 C 394.225,501.046 400.558,506.212 406.5,512C 408.384,512.216 410.051,512.883 411.5,514C 410.584,514.278 409.918,514.778 409.5,515.5C 407.088,515.694 406.088,517.027 406.5,519.5C 404.345,519.628 402.345,519.128 400.5,518C 393.365,513.93 386.365,509.597 379.5,505C 375.345,501.012 371.345,496.845 367.5,492.5C 361.349,491.243 359.516,487.909 362,482.5C 371.057,486.276 379.557,490.943 387.5,496.5 Z"/></g>
<g><path style="opacity:1" fill="#f1dfe0" d="M 427.5,481.5 C 429.277,482.6 431.277,483.434 433.5,484C 440.974,483.75 447.64,485.75 453.5,490C 456.036,490.339 458.536,490.839 461,491.5C 464.104,494.672 467.937,496.339 472.5,496.5C 473.298,496.043 473.631,495.376 473.5,494.5C 474.596,496.103 475.93,497.603 477.5,499C 472.325,498.619 467.158,497.786 462,496.5C 450.584,498.764 439.084,500.43 427.5,501.5C 426.451,499.018 424.617,497.351 422,496.5C 421.598,495.128 421.098,493.795 420.5,492.5C 422.876,489.612 424.209,486.278 424.5,482.5C 425.609,482.443 426.609,482.11 427.5,481.5 Z"/></g>
<g><path style="opacity:1" fill="#f0e7e7" d="M 180.5,517.5 C 174.893,512.327 169.726,506.66 165,500.5C 158.626,504.946 152.459,509.613 146.5,514.5C 154.57,503.37 162.404,492.036 170,480.5C 170.562,482.866 170.396,485.199 169.5,487.5C 172.071,497.961 175.737,507.961 180.5,517.5 Z"/></g>
<g><path style="opacity:1" fill="#fdfcfc" d="M 180.5,517.5 C 182.071,519.635 183.404,521.968 184.5,524.5C 168.833,524.5 153.167,524.5 137.5,524.5C 140.529,521.141 143.529,517.808 146.5,514.5C 152.459,509.613 158.626,504.946 165,500.5C 169.726,506.66 174.893,512.327 180.5,517.5 Z"/></g>
<g><path style="opacity:1" fill="#edddde" d="M 152.5,499.5 C 148.244,507.33 142.578,513.997 135.5,519.5C 135.167,519 134.833,518.5 134.5,518C 136.502,511.5 139.169,505.334 142.5,499.5C 146.082,499.271 149.416,499.271 152.5,499.5 Z"/></g>
<g><path style="opacity:1" fill="#191414" d="M 244.5,524.5 C 227.5,524.5 210.5,524.5 193.5,524.5C 188.827,522.156 185.494,518.489 183.5,513.5C 188.001,507.999 193.834,504.999 201,504.5C 217.381,507.284 233.548,509.951 249.5,512.5C 247.23,516.24 245.564,520.24 244.5,524.5 Z"/></g>
<g><path style="opacity:1" fill="#191414" d="M 359.5,524.5 C 341.833,524.5 324.167,524.5 306.5,524.5C 305.508,520.35 303.841,516.517 301.5,513C 318.14,510.502 334.806,507.668 351.5,504.5C 354.226,504.682 356.893,505.182 359.5,506C 363.972,507.468 366.638,510.468 367.5,515C 365.69,518.969 363.024,522.136 359.5,524.5 Z"/></g>
<g><path style="opacity:1" fill="#909090" d="M 250.5,502.5 C 252.008,504.181 253.008,506.181 253.5,508.5C 251.031,507.393 250.031,505.393 250.5,502.5 Z"/></g>
<g><path style="opacity:1" fill="#191515" d="M 302.5,524.5 C 284.5,524.5 266.5,524.5 248.5,524.5C 250.922,520.866 252.255,516.866 252.5,512.5C 262.195,513.383 271.528,514.05 280.5,514.5C 286.441,513.439 292.441,512.772 298.5,512.5C 300.283,516.308 301.616,520.308 302.5,524.5 Z"/></g>
<g><path style="opacity:1" fill="#dab0b4" d="M 395.5,524.5 C 386.833,524.5 378.167,524.5 369.5,524.5C 371.576,521.241 373.909,518.074 376.5,515C 377.5,514.833 378.5,514.667 379.5,514.5C 385.482,516.823 390.816,520.156 395.5,524.5 Z"/></g>
</svg>
