<?xml version="1.0" encoding="UTF-8"?>
<!DOCTYPE svg PUBLIC "-//W3C//DTD SVG 1.1//EN" "http://www.w3.org/Graphics/SVG/1.1/DTD/svg11.dtd">
<svg xmlns="http://www.w3.org/2000/svg" version="1.1" width="529px" height="525px" style="shape-rendering:geometricPrecision; text-rendering:geometricPrecision; image-rendering:optimizeQuality; fill-rule:evenodd; clip-rule:evenodd" xmlns:xlink="http://www.w3.org/1999/xlink">
<g><path style="opacity:0.612" fill="#b3b3b3" d="M 295.5,83.5 C 293.473,83.6621 291.473,83.4955 289.5,83C 288.944,82.6174 288.611,82.1174 288.5,81.5C 288.435,81.0618 288.601,80.7284 289,80.5C 291.045,81.9265 293.212,82.9265 295.5,83.5 Z"/></g>
<g><path style="opacity:1" fill="#161513" d="M 288.5,81.5 C 288.611,82.1174 288.944,82.6174 289.5,83C 291.473,83.4955 293.473,83.6621 295.5,83.5C 301.752,83.5915 307.919,82.9248 314,81.5C 317.592,80.9167 321.092,81.5834 324.5,83.5C 325.167,84.8333 326.167,85.8333 327.5,86.5C 328.167,87.8333 329.167,88.8333 330.5,89.5C 332.026,91.13 334.026,91.9633 336.5,92C 337.88,93.9252 339.38,95.7585 341,97.5C 341.333,96.8333 341.667,96.1667 342,95.5C 348.312,102.149 355.479,107.649 363.5,112C 367.77,113.075 372.103,113.575 376.5,113.5C 376.5,114.167 376.833,114.5 377.5,114.5C 377.842,115.338 378.508,115.672 379.5,115.5C 379.833,115.5 380.167,115.5 380.5,115.5C 382.833,118.003 384.999,120.669 387,123.5C 387.936,126.792 387.436,129.792 385.5,132.5C 384.808,131.975 384.308,131.308 384,130.5C 383.235,132.066 383.402,133.399 384.5,134.5C 384.5,135.167 384.833,135.5 385.5,135.5C 385.5,135.833 385.5,136.167 385.5,136.5C 385.328,137.492 385.662,138.158 386.5,138.5C 386.833,139.5 387.5,140.167 388.5,140.5C 388.833,141.5 389.5,142.167 390.5,142.5C 390.5,142.833 390.5,143.167 390.5,143.5C 390.969,146.643 392.636,148.977 395.5,150.5C 395.833,150.5 396.167,150.5 396.5,150.5C 398.311,156.127 401.144,161.127 405,165.5C 405.667,172.833 405.667,180.167 405,187.5C 403.128,190.205 402.295,193.205 402.5,196.5C 404.176,209.315 403.51,221.981 400.5,234.5C 400.479,236.602 400.813,238.768 401.5,241C 399.749,248.109 398.582,255.275 398,262.5C 403.843,256.984 409.843,256.651 416,261.5C 424.615,276.568 427.282,292.568 424,309.5C 421.894,312.608 420.228,315.941 419,319.5C 411.843,328.322 404.343,336.822 396.5,345C 393.535,347.33 390.368,347.83 387,346.5C 385.886,350.294 384.72,353.96 383.5,357.5C 382.212,355.025 382.545,352.692 384.5,350.5C 383.855,349.268 383.689,347.935 384,346.5C 382.102,348.684 379.936,349.017 377.5,347.5C 385.502,315.65 390.336,283.316 392,250.5C 390.954,252.09 389.787,253.59 388.5,255C 387.517,255.591 386.85,255.257 386.5,254C 389.214,247.056 390.047,239.89 389,232.5C 385.512,224.19 381.512,216.19 377,208.5C 376,204.833 375,201.167 374,197.5C 367.067,196.225 364.733,192.225 367,185.5C 368.938,179.853 370.771,174.187 372.5,168.5C 371.441,165.44 369.441,163.44 366.5,162.5C 366.67,161.178 366.337,160.011 365.5,159C 361.5,158.667 357.5,158.333 353.5,158C 349.355,156.144 345.522,153.977 342,151.5C 337.884,151.062 337.384,152.229 340.5,155C 338.613,155.163 337.113,154.329 336,152.5C 334.337,157.669 331.004,161.336 326,163.5C 325.5,163.167 325,162.833 324.5,162.5C 328.473,157.512 327.806,153.012 322.5,149C 316.366,148.1 310.366,148.6 304.5,150.5C 305.879,151.863 305.713,152.863 304,153.5C 297.066,156.703 290.566,156.036 284.5,151.5C 283.692,151.808 283.025,152.308 282.5,153C 283.938,153.219 285.271,153.719 286.5,154.5C 283.725,157.044 280.391,158.544 276.5,159C 270.189,160.065 263.856,160.398 257.5,160C 254.442,158.782 251.776,156.949 249.5,154.5C 246.029,157.202 242.029,158.536 237.5,158.5C 238.167,160.819 238.334,163.153 238,165.5C 233.844,166.715 229.678,166.548 225.5,165C 221.359,163.25 217.359,161.584 213.5,160C 215.801,163.135 218.801,165.302 222.5,166.5C 223.386,167.325 223.719,168.325 223.5,169.5C 211.46,172.551 202.293,168.884 196,158.5C 194.333,161.5 192.667,164.5 191,167.5C 186.93,171.244 182.597,174.578 178,177.5C 177.283,181.565 175.617,185.231 173,188.5C 171.516,193.769 170.349,199.102 169.5,204.5C 170.911,207.96 171.578,211.626 171.5,215.5C 171.167,216.833 170.833,218.167 170.5,219.5C 169.122,224.428 167.955,229.428 167,234.5C 165.89,236.037 164.39,236.703 162.5,236.5C 163.434,234.761 163.434,233.095 162.5,231.5C 161.128,235.079 159.128,238.246 156.5,241C 155.216,241.684 154.049,241.517 153,240.5C 151.883,226.222 151.05,211.889 150.5,197.5C 149.18,202.074 148.513,206.74 148.5,211.5C 147.662,211.842 147.328,212.508 147.5,213.5C 146.833,214.167 146.167,214.833 145.5,215.5C 144.85,207.678 144.183,199.845 143.5,192C 144.323,183.185 147.656,175.519 153.5,169C 151.109,168.713 148.776,168.213 146.5,167.5C 145.614,166.675 145.281,165.675 145.5,164.5C 157.89,162.813 163.89,156.146 163.5,144.5C 164.404,143.791 164.737,142.791 164.5,141.5C 165.272,140.306 166.272,139.306 167.5,138.5C 168.833,137.833 169.833,136.833 170.5,135.5C 173.718,132.338 177.385,129.504 181.5,127C 185.733,123.096 189.233,118.596 192,113.5C 202.025,103.431 214.192,98.0973 228.5,97.5C 230.79,98.8668 232.456,98.2002 233.5,95.5C 234.167,95.5 234.5,95.1667 234.5,94.5C 235.791,94.7373 236.791,94.404 237.5,93.5C 238.492,93.6716 239.158,93.3382 239.5,92.5C 241.434,91.8897 243.101,90.8897 244.5,89.5C 246.296,88.2073 247.963,86.7073 249.5,85C 252.576,84.6543 255.576,83.9876 258.5,83C 268.326,82.3675 278.326,81.8675 288.5,81.5 Z"/></g>
<g><path style="opacity:0.247" fill="#cecece" d="M 324.5,83.5 C 326.5,83.5 327.5,84.5 327.5,86.5C 326.167,85.8333 325.167,84.8333 324.5,83.5 Z"/></g>
<g><path style="opacity:0.004" fill="#fdfefd" d="M 244.5,89.5 C 243.833,88.1667 243.833,88.1667 244.5,89.5 Z"/></g>
<g><path style="opacity:0.008" fill="#fcfdfc" d="M 330.5,88.5 C 331.833,89.1667 331.833,89.1667 330.5,88.5 Z"/></g>
<g><path style="opacity:0.004" fill="#fdfefd" d="M 239.5,92.5 C 238.833,91.1667 238.833,91.1667 239.5,92.5 Z"/></g>
<g><path style="opacity:0.004" fill="#fdfefd" d="M 237.5,93.5 C 236.833,92.1667 236.833,92.1667 237.5,93.5 Z"/></g>
<g><path style="opacity:0.004" fill="#fdfefd" d="M 234.5,94.5 C 233.833,93.1667 233.833,93.1667 234.5,94.5 Z"/></g>
<g><path style="opacity:0.004" fill="#fdfefd" d="M 221.5,96.5 C 222.833,97.1667 222.833,97.1667 221.5,96.5 Z"/></g>
<g><path style="opacity:0.8" fill="#717070" d="M 233.5,95.5 C 232.456,98.2002 230.79,98.8668 228.5,97.5C 230.411,97.4257 231.578,96.4257 232,94.5C 232.383,95.056 232.883,95.3893 233.5,95.5 Z"/></g>
<g><path style="opacity:0.087" fill="#e6e6e6" d="M 376.5,113.5 C 378.435,112.291 380.435,112.458 382.5,114C 393.366,120.9 397.866,130.734 396,143.5C 395.682,145.061 394.849,146.228 393.5,147C 394.044,147.717 394.711,148.217 395.5,148.5C 395.5,149.167 395.5,149.833 395.5,150.5C 392.636,148.977 390.969,146.643 390.5,143.5C 391.833,143.167 391.833,142.833 390.5,142.5C 389.5,142.167 388.833,141.5 388.5,140.5C 387.5,140.167 386.833,139.5 386.5,138.5C 385.662,138.158 385.328,137.492 385.5,136.5C 386.833,136.167 386.833,135.833 385.5,135.5C 385.539,133.776 385.206,133.443 384.5,134.5C 383.402,133.399 383.235,132.066 384,130.5C 384.308,131.308 384.808,131.975 385.5,132.5C 387.436,129.792 387.936,126.792 387,123.5C 384.999,120.669 382.833,118.003 380.5,115.5C 380.167,114.167 379.833,114.167 379.5,115.5C 378.508,115.672 377.842,115.338 377.5,114.5C 378.557,113.794 378.224,113.461 376.5,113.5 Z"/></g>
<g><path style="opacity:0.039" fill="#e4e4e4" d="M 170.5,135.5 C 169.833,136.833 168.833,137.833 167.5,138.5C 167.685,136.804 168.519,135.471 170,134.5C 170.399,134.728 170.565,135.062 170.5,135.5 Z"/></g>
<g><path style="opacity:0.004" fill="#fdfefd" d="M 164.5,141.5 C 163.833,140.167 163.833,140.167 164.5,141.5 Z"/></g>
<g><path style="opacity:0.004" fill="#fdfefd" d="M 163.5,144.5 C 162.833,143.167 162.833,143.167 163.5,144.5 Z"/></g>
<g><path style="opacity:0.004" fill="#fdfefd" d="M 395.5,147.5 C 396.833,148.167 396.833,148.167 395.5,147.5 Z"/></g>
<g><path style="opacity:1" fill="#e3bf96" d="M 377.5,347.5 C 374.06,358.918 369.56,369.918 364,380.5C 355.286,391.425 346.453,402.258 337.5,413C 335.431,414.874 333.098,415.874 330.5,416C 331.635,411.252 331.802,406.419 331,401.5C 330.208,392.754 329.041,384.087 327.5,375.5C 326.304,376.559 325.637,377.893 325.5,379.5C 326.648,381.627 327.648,383.794 328.5,386C 327.726,388.405 327.226,390.905 327,393.5C 326.667,390.5 326.333,387.5 326,384.5C 325.465,382.729 324.631,382.396 323.5,383.5C 323.759,388.848 323.259,394.182 322,399.5C 318.418,401.594 317.585,404.594 319.5,408.5C 317.922,409.072 316.422,409.406 315,409.5C 313.766,412.42 312.766,415.42 312,418.5C 311.51,417.207 311.343,415.873 311.5,414.5C 310.5,414.5 309.5,414.5 308.5,414.5C 307.545,418.594 306.378,422.594 305,426.5C 304.299,423.673 303.299,421.006 302,418.5C 302.053,420.936 301.887,423.269 301.5,425.5C 300.064,421.177 298.064,417.177 295.5,413.5C 293.565,412.437 291.899,411.103 290.5,409.5C 289.614,410.325 289.281,411.325 289.5,412.5C 287.1,411.073 286.433,411.573 287.5,414C 284.574,414.218 281.74,414.718 279,415.5C 277.948,413.189 276.115,411.856 273.5,411.5C 272.148,412.518 271.148,413.851 270.5,415.5C 270.167,415 269.833,414.5 269.5,414C 270.856,412.433 271.523,410.6 271.5,408.5C 270.022,408.238 268.689,408.571 267.5,409.5C 266.692,411.925 265.692,414.258 264.5,416.5C 263.777,414.836 264.11,413.169 265.5,411.5C 264.998,410.479 264.332,410.312 263.5,411C 262.667,412.5 261.5,413.667 260,414.5C 259.1,417.718 257.933,420.718 256.5,423.5C 256.762,422.022 256.429,420.689 255.5,419.5C 253.179,422.394 252.012,425.727 252,429.5C 247.846,423.05 244.846,416.05 243,408.5C 242.111,407.112 241.611,407.278 241.5,409C 244.733,415.862 244.233,417.029 240,412.5C 239.299,409.673 238.299,407.006 237,404.5C 236.833,405 236.667,405.5 236.5,406C 237.33,407.465 237.496,408.965 237,410.5C 232.368,401.044 230.201,391.044 230.5,380.5C 229.07,380.579 227.736,380.246 226.5,379.5C 226.167,380.5 225.833,381.5 225.5,382.5C 226.415,386.144 226.581,389.81 226,393.5C 224.342,399.131 222.842,404.797 221.5,410.5C 221.56,412.921 221.893,415.254 222.5,417.5C 222.103,418.525 221.437,418.692 220.5,418C 196.527,398.95 180.36,374.45 172,344.5C 163.343,308.792 160.176,272.792 162.5,236.5C 164.39,236.703 165.89,236.037 167,234.5C 167.955,229.428 169.122,224.428 170.5,219.5C 173.074,225.005 173.074,230.672 170.5,236.5C 171.274,237.711 172.107,237.711 173,236.5C 173.912,234.341 174.745,232.175 175.5,230C 177.134,229.506 178.801,229.34 180.5,229.5C 181.097,230.139 181.93,230.472 183,230.5C 187.041,229.585 190.874,228.919 194.5,228.5C 200.636,231.28 206.969,232.28 213.5,231.5C 219.948,234.28 226.614,236.447 233.5,238C 239.705,241.113 246.038,243.613 252.5,245.5C 252.119,243.058 252.786,242.391 254.5,243.5C 255.23,242.066 256.23,240.9 257.5,240C 252.587,237.092 248.253,233.425 244.5,229C 230.475,225.086 216.142,222.586 201.5,221.5C 193.851,221.913 186.518,223.579 179.5,226.5C 178.193,227.153 176.86,227.82 175.5,228.5C 174.3,224.008 172.967,219.675 171.5,215.5C 171.578,211.626 170.911,207.96 169.5,204.5C 170.349,199.102 171.516,193.769 173,188.5C 175.617,185.231 177.283,181.565 178,177.5C 182.597,174.578 186.93,171.244 191,167.5C 192.667,164.5 194.333,161.5 196,158.5C 202.293,168.884 211.46,172.551 223.5,169.5C 223.719,168.325 223.386,167.325 222.5,166.5C 218.801,165.302 215.801,163.135 213.5,160C 217.359,161.584 221.359,163.25 225.5,165C 229.678,166.548 233.844,166.715 238,165.5C 238.334,163.153 238.167,160.819 237.5,158.5C 242.029,158.536 246.029,157.202 249.5,154.5C 251.776,156.949 254.442,158.782 257.5,160C 263.856,160.398 270.189,160.065 276.5,159C 280.391,158.544 283.725,157.044 286.5,154.5C 285.271,153.719 283.938,153.219 282.5,153C 283.025,152.308 283.692,151.808 284.5,151.5C 290.566,156.036 297.066,156.703 304,153.5C 305.713,152.863 305.879,151.863 304.5,150.5C 310.366,148.6 316.366,148.1 322.5,149C 327.806,153.012 328.473,157.512 324.5,162.5C 325,162.833 325.5,163.167 326,163.5C 331.004,161.336 334.337,157.669 336,152.5C 337.113,154.329 338.613,155.163 340.5,155C 337.384,152.229 337.884,151.062 342,151.5C 345.522,153.977 349.355,156.144 353.5,158C 357.5,158.333 361.5,158.667 365.5,159C 366.337,160.011 366.67,161.178 366.5,162.5C 369.441,163.44 371.441,165.44 372.5,168.5C 370.771,174.187 368.938,179.853 367,185.5C 364.733,192.225 367.067,196.225 374,197.5C 375,201.167 376,204.833 377,208.5C 381.512,216.19 385.512,224.19 389,232.5C 390.047,239.89 389.214,247.056 386.5,254C 386.85,255.257 387.517,255.591 388.5,255C 389.787,253.59 390.954,252.09 392,250.5C 390.336,283.316 385.502,315.65 377.5,347.5 Z"/></g>
<g><path style="opacity:0.008" fill="#fcfdfc" d="M 397.5,150.5 C 396.833,149.167 396.833,149.167 397.5,150.5 Z"/></g>
<g><path style="opacity:0.004" fill="#fdfefd" d="M 397.5,150.5 C 398.833,151.167 398.833,151.167 397.5,150.5 Z"/></g>
<g><path style="opacity:1" fill="#dab890" d="M 197.5,152.5 C 199.295,155.404 201.128,158.404 203,161.5C 204.938,164.106 207.438,165.939 210.5,167C 202.186,165.848 197.853,161.015 197.5,152.5 Z"/></g>
<g><path style="opacity:0.004" fill="#fdfefd" d="M 398.5,152.5 C 399.833,153.167 399.833,153.167 398.5,152.5 Z"/></g>
<g><path style="opacity:1" fill="#ba9d7b" d="M 253.5,155.5 C 253.56,154.957 253.893,154.624 254.5,154.5C 257.05,155.942 259.716,157.108 262.5,158C 259.206,158.36 256.206,157.527 253.5,155.5 Z"/></g>
<g><path style="opacity:1" fill="#c6a783" d="M 373.5,172.5 C 374.124,172.917 374.457,173.584 374.5,174.5C 372.218,180.679 370.551,187.013 369.5,193.5C 369.375,186.312 370.708,179.312 373.5,172.5 Z"/></g>
<g><path style="opacity:0.169" fill="#d0d0d0" d="M 148.5,211.5 C 149.486,215.97 149.819,220.637 149.5,225.5C 148.549,224.081 148.216,222.415 148.5,220.5C 148.5,219.833 148.167,219.5 147.5,219.5C 147.5,217.5 147.5,215.5 147.5,213.5C 147.328,212.508 147.662,211.842 148.5,211.5 Z"/></g>
<g><path style="opacity:1" fill="#372e25" d="M 171.5,215.5 C 172.967,219.675 174.3,224.008 175.5,228.5C 176.86,227.82 178.193,227.153 179.5,226.5C 179.47,227.497 179.97,228.164 181,228.5C 184.152,227.22 187.319,226.387 190.5,226C 187.428,227.858 184.095,229.024 180.5,229.5C 178.801,229.34 177.134,229.506 175.5,230C 174.745,232.175 173.912,234.341 173,236.5C 172.107,237.711 171.274,237.711 170.5,236.5C 173.074,230.672 173.074,225.005 170.5,219.5C 170.833,218.167 171.167,216.833 171.5,215.5 Z"/></g>
<g><path style="opacity:1" fill="#0d0b08" d="M 373.5,227.5 C 372.833,228.167 372.167,228.833 371.5,229.5C 371.167,229.5 370.833,229.5 370.5,229.5C 367.224,230.53 363.89,230.197 360.5,228.5C 354.558,230.035 348.558,231.368 342.5,232.5C 341.446,232.32 340.446,231.987 339.5,231.5C 328.192,234.713 317.192,238.713 306.5,243.5C 306.5,241.5 306.5,239.5 306.5,237.5C 305.257,236.263 304.257,236.596 303.5,238.5C 304.246,239.736 304.579,241.07 304.5,242.5C 304.5,243.5 304.5,244.5 304.5,245.5C 301.762,246.035 299.928,245.035 299,242.5C 297.455,243.821 296.289,243.488 295.5,241.5C 298.378,237.051 301.711,233.051 305.5,229.5C 319.75,225.133 334.417,222.467 349.5,221.5C 358.035,221.803 366.035,223.803 373.5,227.5 Z"/></g>
<g><path style="opacity:0.647" fill="#6a6a69" d="M 147.5,213.5 C 147.5,215.5 147.5,217.5 147.5,219.5C 148.167,219.5 148.5,219.833 148.5,220.5C 148.216,222.415 148.549,224.081 149.5,225.5C 149.167,226.833 148.833,228.167 148.5,229.5C 146.302,225.203 145.302,220.536 145.5,215.5C 146.167,214.833 146.833,214.167 147.5,213.5 Z"/></g>
<g><path style="opacity:1" fill="#0c0907" d="M 180.5,229.5 C 184.095,229.024 187.428,227.858 190.5,226C 187.319,226.387 184.152,227.22 181,228.5C 179.97,228.164 179.47,227.497 179.5,226.5C 186.518,223.579 193.851,221.913 201.5,221.5C 216.142,222.586 230.475,225.086 244.5,229C 248.253,233.425 252.587,237.092 257.5,240C 256.23,240.9 255.23,242.066 254.5,243.5C 252.786,242.391 252.119,243.058 252.5,245.5C 246.038,243.613 239.705,241.113 233.5,238C 226.614,236.447 219.948,234.28 213.5,231.5C 206.969,232.28 200.636,231.28 194.5,228.5C 190.874,228.919 187.041,229.585 183,230.5C 181.93,230.472 181.097,230.139 180.5,229.5 Z"/></g>
<g><path style="opacity:1" fill="#76634e" d="M 370.5,229.5 C 367.689,229.174 365.022,228.341 362.5,227C 365.539,226.736 368.206,227.569 370.5,229.5 Z"/></g>
<g><path style="opacity:1" fill="#7c6952" d="M 373.5,227.5 C 374.901,227.971 376.234,228.638 377.5,229.5C 375.599,230.231 373.599,230.231 371.5,229.5C 372.167,228.833 372.833,228.167 373.5,227.5 Z"/></g>
<g><path style="opacity:0.004" fill="#fdfefd" d="M 148.5,232.5 C 147.833,233.167 147.833,233.167 148.5,232.5 Z"/></g>
<g><path style="opacity:1" fill="#27221c" d="M 288.5,235.5 C 289.497,235.47 290.164,235.97 290.5,237C 290.733,241.477 292.733,244.81 296.5,247C 290.362,245.939 287.695,242.106 288.5,235.5 Z"/></g>
<g><path style="opacity:1" fill="#dcb991" d="M 306.5,237.5 C 305.833,239.167 305.167,240.833 304.5,242.5C 304.579,241.07 304.246,239.736 303.5,238.5C 304.257,236.596 305.257,236.263 306.5,237.5 Z"/></g>
<g><path style="opacity:1" fill="#29231c" d="M 260.5,235.5 C 263.67,240.904 262.337,245.237 256.5,248.5C 255.5,248.167 254.833,247.5 254.5,246.5C 259.352,244.467 261.352,240.801 260.5,235.5 Z"/></g>
<g><path style="opacity:1" fill="#74624c" d="M 306.5,237.5 C 306.5,239.5 306.5,241.5 306.5,243.5C 305.833,244.167 305.167,244.833 304.5,245.5C 304.5,244.5 304.5,243.5 304.5,242.5C 305.167,240.833 305.833,239.167 306.5,237.5 Z"/></g>
<g><path style="opacity:1" fill="#26201a" d="M 317.5,243.5 C 318.376,243.369 319.043,243.702 319.5,244.5C 315.584,248.545 314.917,248.212 317.5,243.5 Z"/></g>
<g><path style="opacity:1" fill="#42382c" d="M 231.5,242.5 C 236.842,245.512 240.842,249.846 243.5,255.5C 243.167,255.833 242.833,256.167 242.5,256.5C 239.276,251.332 235.61,246.665 231.5,242.5 Z"/></g>
<g><path style="opacity:0.004" fill="#fdfefd" d="M 151.5,249.5 C 150.833,250.167 150.833,250.167 151.5,249.5 Z"/></g>
<g><path style="opacity:1" fill="#0e0c0a" d="M 243.5,266.5 C 239.39,262.741 234.724,259.741 229.5,257.5C 229.501,260.234 229.334,263.234 229,266.5C 228.302,267.691 227.469,268.691 226.5,269.5C 225.637,270.463 224.97,270.463 224.5,269.5C 227.231,266.041 228.231,262.041 227.5,257.5C 221.084,257.427 215.084,258.76 209.5,261.5C 204.381,264.211 199.048,266.544 193.5,268.5C 196.221,270.734 199.221,272.401 202.5,273.5C 195.798,275.287 189.631,273.954 184,269.5C 183.333,268.5 183.333,267.5 184,266.5C 196.34,260.079 209.173,254.913 222.5,251C 225.899,250.454 229.232,250.787 232.5,252C 236.64,256.14 240.806,260.306 245,264.5C 245.528,265.816 245.028,266.483 243.5,266.5 Z"/></g>
<g><path style="opacity:1" fill="#0a0807" d="M 348.5,273.5 C 352.117,272.336 355.45,270.503 358.5,268C 355.106,266.925 351.772,265.758 348.5,264.5C 343.25,261.382 337.583,259.049 331.5,257.5C 329.825,257.868 328.825,258.868 328.5,260.5C 327.596,259.791 327.263,258.791 327.5,257.5C 320.11,257.862 314.11,260.862 309.5,266.5C 308.5,266.5 307.5,266.5 306.5,266.5C 307.091,263.386 308.758,260.886 311.5,259C 315.11,257.056 318.443,254.723 321.5,252C 325.167,251.333 328.833,251.333 332.5,252C 345.498,256.331 358.164,261.498 370.5,267.5C 364.687,272.581 357.854,274.914 350,274.5C 349.235,274.43 348.735,274.097 348.5,273.5 Z"/></g>
<g><path style="opacity:1" fill="#625240" d="M 312.5,249.5 C 313.043,249.56 313.376,249.893 313.5,250.5C 306.268,258.383 305.934,258.049 312.5,249.5 Z"/></g>
<g><path style="opacity:1" fill="#e2d5d1" d="M 328.5,260.5 C 331.833,260.5 333.5,262.167 333.5,265.5C 327.854,265.151 327.187,266.651 331.5,270C 335.815,271.842 340.148,271.842 344.5,270C 346.439,268.568 347.772,266.735 348.5,264.5C 351.772,265.758 355.106,266.925 358.5,268C 355.45,270.503 352.117,272.336 348.5,273.5C 334.886,273.838 321.886,271.504 309.5,266.5C 314.11,260.862 320.11,257.862 327.5,257.5C 327.263,258.791 327.596,259.791 328.5,260.5 Z"/></g>
<g><path style="opacity:1" fill="#dcccc7" d="M 243.5,266.5 C 238.246,268.04 232.58,269.706 226.5,271.5C 226.5,270.833 226.5,270.167 226.5,269.5C 227.469,268.691 228.302,267.691 229,266.5C 229.334,263.234 229.501,260.234 229.5,257.5C 234.724,259.741 239.39,262.741 243.5,266.5 Z"/></g>
<g><path style="opacity:1" fill="#2e221b" d="M 226.5,269.5 C 226.5,270.167 226.5,270.833 226.5,271.5C 223.946,272.388 221.279,272.721 218.5,272.5C 215.535,270.55 212.535,268.55 209.5,266.5C 211.297,265.305 212.297,263.638 212.5,261.5C 211.5,261.5 210.5,261.5 209.5,261.5C 215.084,258.76 221.084,257.427 227.5,257.5C 228.231,262.041 227.231,266.041 224.5,269.5C 224.97,270.463 225.637,270.463 226.5,269.5 Z"/></g>
<g><path style="opacity:1" fill="#dccfcc" d="M 209.5,261.5 C 210.5,261.5 211.5,261.5 212.5,261.5C 212.297,263.638 211.297,265.305 209.5,266.5C 212.535,268.55 215.535,270.55 218.5,272.5C 213.187,273.098 207.854,273.431 202.5,273.5C 199.221,272.401 196.221,270.734 193.5,268.5C 199.048,266.544 204.381,264.211 209.5,261.5 Z"/></g>
<g><path style="opacity:1" fill="#debb92" d="M 408.5,264.5 C 409.552,264.351 410.552,264.517 411.5,265C 419.783,278.202 421.95,292.369 418,307.5C 416.365,310.632 414.532,313.632 412.5,316.5C 405.812,324.518 398.812,332.185 391.5,339.5C 390.277,340.614 388.944,340.781 387.5,340C 389.816,336.615 390.816,332.782 390.5,328.5C 392.677,328.414 394.677,327.747 396.5,326.5C 398.333,324.167 400.167,321.833 402,319.5C 402.783,317.681 402.283,316.348 400.5,315.5C 398.534,317.968 396.368,320.301 394,322.5C 393.598,316.591 396.432,313.591 402.5,313.5C 403.167,311.5 403.833,309.5 404.5,307.5C 403.5,307.5 402.5,307.5 401.5,307.5C 402.066,300.512 402.566,293.512 403,286.5C 403.71,285.027 404.876,284.36 406.5,284.5C 408.107,289.048 410.274,293.381 413,297.5C 413.667,296.167 413.667,294.833 413,293.5C 411.097,290.192 409.597,286.692 408.5,283C 408.709,281.129 409.709,279.962 411.5,279.5C 415.851,283.871 417.018,283.204 415,277.5C 413.001,273.575 410.168,272.741 406.5,275C 403.903,278.719 400.737,281.886 397,284.5C 396.113,279.928 396.78,275.595 399,271.5C 402.068,268.917 405.235,266.584 408.5,264.5 Z"/></g>
<g><path style="opacity:1" fill="#312720" d="M 348.5,264.5 C 347.772,266.735 346.439,268.568 344.5,270C 340.148,271.842 335.815,271.842 331.5,270C 327.187,266.651 327.854,265.151 333.5,265.5C 333.5,262.167 331.833,260.5 328.5,260.5C 328.825,258.868 329.825,257.868 331.5,257.5C 337.583,259.049 343.25,261.382 348.5,264.5 Z"/></g>
<g><path style="opacity:1" fill="#443a2d" d="M 368.5,271.5 C 370.549,271.706 370.883,272.539 369.5,274C 365.057,275.972 360.557,277.805 356,279.5C 355.5,279.167 355,278.833 354.5,278.5C 359.446,276.531 364.113,274.198 368.5,271.5 Z"/></g>
<g><path style="opacity:1" fill="#4c4032" d="M 181.5,271.5 C 186.644,274.217 191.978,276.55 197.5,278.5C 192.224,278.581 187.224,277.081 182.5,274C 181.748,273.329 181.414,272.496 181.5,271.5 Z"/></g>
<g><path style="opacity:1" fill="#473c2f" d="M 183.5,277.5 C 186.147,278.665 188.814,279.832 191.5,281C 187.917,281.705 185.251,280.538 183.5,277.5 Z"/></g>
<g><path style="opacity:1" fill="#5d4e3d" d="M 366.5,277.5 C 367.289,277.783 367.956,278.283 368.5,279C 367.167,279.667 365.833,280.333 364.5,281C 366.271,281.535 366.604,282.369 365.5,283.5C 363.954,282.316 362.287,281.316 360.5,280.5C 362.594,279.482 364.594,278.482 366.5,277.5 Z"/></g>
<g><path style="opacity:1" fill="#1c1814" d="M 280.5,286.5 C 282.368,289.158 283.368,292.324 283.5,296C 283.355,297.226 283.022,298.393 282.5,299.5C 284.167,301.667 285.833,303.833 287.5,306C 287,306.5 286.5,307 286,307.5C 282.976,305.268 280.809,302.434 279.5,299C 279.755,297.674 280.422,296.674 281.5,296C 280.549,292.943 280.216,289.777 280.5,286.5 Z"/></g>
<g><path style="opacity:1" fill="#d7b58e" d="M 394.5,297.5 C 397.134,301.395 398.801,305.728 399.5,310.5C 397.278,310.178 395.444,310.845 394,312.5C 394.051,307.522 394.218,302.522 394.5,297.5 Z"/></g>
<g><path style="opacity:1" fill="#14110e" d="M 413.5,299.5 C 416.747,306.712 414.58,312.045 407,315.5C 406.5,315.167 406,314.833 405.5,314.5C 407.5,312.167 409.5,309.833 411.5,307.5C 412.169,304.803 412.836,302.137 413.5,299.5 Z"/></g>
<g><path style="opacity:0.999" fill="#12110f" d="M 162.5,236.5 C 160.176,272.792 163.343,308.792 172,344.5C 180.36,374.45 196.527,398.95 220.5,418C 221.437,418.692 222.103,418.525 222.5,417.5C 223.782,418.708 223.782,420.042 222.5,421.5C 220.577,419.824 218.244,419.49 215.5,420.5C 212.311,419.486 209.478,417.82 207,415.5C 207.051,432.229 208.217,448.896 210.5,465.5C 231.885,476.719 248.052,493.052 259,514.5C 260.15,517.768 260.984,521.101 261.5,524.5C 260.167,524.5 258.833,524.5 257.5,524.5C 256.743,517.986 254.576,511.986 251,506.5C 238.641,488.144 222.308,474.477 202,465.5C 199.415,476.592 196.415,487.592 193,498.5C 186.644,507.345 180.144,516.012 173.5,524.5C 170.833,524.5 168.167,524.5 165.5,524.5C 173.209,516.132 180.709,507.466 188,498.5C 193.482,485.041 197.149,471.041 199,456.5C 200.067,455.809 201.234,455.309 202.5,455C 201.204,439.225 200.037,423.391 199,407.5C 183.215,390.269 172.382,370.269 166.5,347.5C 162.327,347.581 158.661,346.248 155.5,343.5C 147.509,334.673 139.676,325.673 132,316.5C 122.921,296.848 124.255,277.848 136,259.5C 139.617,257.654 143.45,257.487 147.5,259C 148.817,260.659 150.483,261.826 152.5,262.5C 153.377,258.001 153.043,253.667 151.5,249.5C 150.421,243.718 149.421,238.051 148.5,232.5C 148.5,231.5 148.5,230.5 148.5,229.5C 148.833,228.167 149.167,226.833 149.5,225.5C 149.819,220.637 149.486,215.97 148.5,211.5C 148.513,206.74 149.18,202.074 150.5,197.5C 151.05,211.889 151.883,226.222 153,240.5C 154.049,241.517 155.216,241.684 156.5,241C 159.128,238.246 161.128,235.079 162.5,231.5C 163.434,233.095 163.434,234.761 162.5,236.5 Z"/></g>
<g><path style="opacity:1" fill="#c9a984" d="M 155.5,298.5 C 156.748,299.334 157.415,300.667 157.5,302.5C 158.338,307.179 158.838,311.846 159,316.5C 157.935,312.704 155.435,310.37 151.5,309.5C 153.238,305.951 154.571,302.284 155.5,298.5 Z"/></g>
<g><path style="opacity:1" fill="#dcba91" d="M 139.5,279.5 C 141.346,279.222 142.68,279.889 143.5,281.5C 142.254,285.254 140.754,288.921 139,292.5C 138.333,294.167 138.333,295.833 139,297.5C 141.602,293.294 143.936,288.961 146,284.5C 146.667,283.167 147.333,283.167 148,284.5C 147.995,291.541 148.828,298.208 150.5,304.5C 149.855,306.432 148.521,307.599 146.5,308C 148.49,311.99 151.657,314.49 156,315.5C 157.115,318.155 157.782,320.821 158,323.5C 155.097,321.053 152.43,318.386 150,315.5C 149.333,316.833 149.333,318.167 150,319.5C 152.19,321.388 154.023,323.555 155.5,326C 157.664,326.914 159.664,328.081 161.5,329.5C 162.352,333.131 163.019,336.798 163.5,340.5C 159.853,340.378 157.019,338.712 155,335.5C 147.297,327.762 140.297,319.429 134,310.5C 130.834,300.501 130.834,290.501 134,280.5C 134.419,281.672 135.085,282.672 136,283.5C 137.032,281.973 138.199,280.64 139.5,279.5 Z"/></g>
<g><path style="opacity:1" fill="#0d0b09" d="M 136.5,299.5 C 138,304.809 140.834,309.476 145,313.5C 145.688,314.332 145.521,314.998 144.5,315.5C 138.018,311.871 135.352,306.538 136.5,299.5 Z"/></g>
<g><path style="opacity:1" fill="#debb92" d="M 141.5,264.5 C 153.56,266.933 158.394,274.267 156,286.5C 151.147,282.645 146.647,278.478 142.5,274C 141.056,273.219 139.723,273.386 138.5,274.5C 137.376,275.914 136.376,277.414 135.5,279C 134.833,279.667 134.167,279.667 133.5,279C 136.05,274.064 138.717,269.23 141.5,264.5 Z"/></g>
<g><path style="opacity:1" fill="#201b16" d="M 283.5,317.5 C 284.776,318.386 284.776,319.386 283.5,320.5C 278.715,323.68 273.715,324.18 268.5,322C 271.833,321.667 275.167,321.333 278.5,321C 280.584,320.303 282.251,319.136 283.5,317.5 Z"/></g>
<g><path style="opacity:1" fill="#171411" d="M 289.5,328.5 C 291.49,328.993 291.49,330.16 289.5,332C 291.871,332.735 294.205,333.568 296.5,334.5C 297.333,333.5 298.167,332.5 299,331.5C 299.703,336.727 298.37,341.394 295,345.5C 294.13,344.892 293.63,344.059 293.5,343C 294.856,341.433 295.523,339.6 295.5,337.5C 293.533,337.739 291.699,337.406 290,336.5C 287.213,338.955 285.046,341.955 283.5,345.5C 280.409,342.918 279.909,339.918 282,336.5C 284.294,333.527 286.794,330.86 289.5,328.5 Z"/></g>
<g><path style="opacity:1" fill="#110f0c" d="M 261.5,332.5 C 267.936,333.431 270.769,337.098 270,343.5C 268.13,341.595 266.63,339.428 265.5,337C 262.015,336.674 258.682,337.174 255.5,338.5C 255.868,334.799 257.868,332.799 261.5,332.5 Z"/></g>
<g><path style="opacity:1" fill="#1a1713" d="M 248.5,322.5 C 249.5,322.5 250.5,322.5 251.5,322.5C 251.425,325.407 250.591,328.073 249,330.5C 248.333,332.5 248.333,334.5 249,336.5C 251.57,338.869 254.404,340.869 257.5,342.5C 258.833,343.167 258.833,343.833 257.5,344.5C 245.143,341.096 242.143,333.762 248.5,322.5 Z"/></g>
<g><path style="opacity:1" fill="#0a0807" d="M 383.5,357.5 C 382.037,361.777 380.537,366.111 379,370.5C 375.333,377.5 371.667,384.5 368,391.5C 362.6,397.561 357.6,403.894 353,410.5C 351.806,424.798 350.639,439.131 349.5,453.5C 349.667,455.5 349.833,457.5 350,459.5C 352.167,461.83 353.834,464.497 355,467.5C 361.655,482.813 368.322,498.146 375,513.5C 378.676,517.343 382.509,521.009 386.5,524.5C 383.5,524.5 380.5,524.5 377.5,524.5C 373.171,517.848 369.338,510.848 366,503.5C 362.554,493.275 358.554,483.275 354,473.5C 344.948,484.885 336.281,496.551 328,508.5C 324.901,513.42 323.068,518.753 322.5,524.5C 320.833,524.5 319.167,524.5 317.5,524.5C 318.662,516.512 321.495,509.179 326,502.5C 331.833,495.333 337.667,488.167 343.5,481C 342.806,476.532 342.14,472.032 341.5,467.5C 342.203,459.014 342.703,450.347 343,441.5C 337.787,453.443 330.953,464.276 322.5,474C 316.185,479.394 308.852,481.394 300.5,480C 294.021,477.591 287.688,474.925 281.5,472C 265.061,460.766 249.728,448.099 235.5,434C 228.595,429.725 221.928,425.225 215.5,420.5C 218.244,419.49 220.577,419.824 222.5,421.5C 223.782,420.042 223.782,418.708 222.5,417.5C 221.893,415.254 221.56,412.921 221.5,410.5C 222.842,404.797 224.342,399.131 226,393.5C 226.581,389.81 226.415,386.144 225.5,382.5C 225.833,381.5 226.167,380.5 226.5,379.5C 227.736,380.246 229.07,380.579 230.5,380.5C 230.201,391.044 232.368,401.044 237,410.5C 237.496,408.965 237.33,407.465 236.5,406C 236.667,405.5 236.833,405 237,404.5C 238.299,407.006 239.299,409.673 240,412.5C 244.233,417.029 244.733,415.862 241.5,409C 241.611,407.278 242.111,407.112 243,408.5C 244.846,416.05 247.846,423.05 252,429.5C 252.012,425.727 253.179,422.394 255.5,419.5C 256.429,420.689 256.762,422.022 256.5,423.5C 257.933,420.718 259.1,417.718 260,414.5C 261.5,413.667 262.667,412.5 263.5,411C 264.332,410.312 264.998,410.479 265.5,411.5C 264.11,413.169 263.777,414.836 264.5,416.5C 265.692,414.258 266.692,411.925 267.5,409.5C 268.689,408.571 270.022,408.238 271.5,408.5C 271.523,410.6 270.856,412.433 269.5,414C 269.833,414.5 270.167,415 270.5,415.5C 271.148,413.851 272.148,412.518 273.5,411.5C 276.115,411.856 277.948,413.189 279,415.5C 281.74,414.718 284.574,414.218 287.5,414C 286.433,411.573 287.1,411.073 289.5,412.5C 289.281,411.325 289.614,410.325 290.5,409.5C 291.899,411.103 293.565,412.437 295.5,413.5C 298.064,417.177 300.064,421.177 301.5,425.5C 301.887,423.269 302.053,420.936 302,418.5C 303.299,421.006 304.299,423.673 305,426.5C 306.378,422.594 307.545,418.594 308.5,414.5C 309.5,414.5 310.5,414.5 311.5,414.5C 311.343,415.873 311.51,417.207 312,418.5C 312.766,415.42 313.766,412.42 315,409.5C 316.422,409.406 317.922,409.072 319.5,408.5C 317.585,404.594 318.418,401.594 322,399.5C 323.259,394.182 323.759,388.848 323.5,383.5C 324.631,382.396 325.465,382.729 326,384.5C 326.333,387.5 326.667,390.5 327,393.5C 327.226,390.905 327.726,388.405 328.5,386C 327.648,383.794 326.648,381.627 325.5,379.5C 325.637,377.893 326.304,376.559 327.5,375.5C 329.041,384.087 330.208,392.754 331,401.5C 331.802,406.419 331.635,411.252 330.5,416C 333.098,415.874 335.431,414.874 337.5,413C 346.453,402.258 355.286,391.425 364,380.5C 369.56,369.918 374.06,358.918 377.5,347.5C 379.936,349.017 382.102,348.684 384,346.5C 383.689,347.935 383.855,349.268 384.5,350.5C 382.545,352.692 382.212,355.025 383.5,357.5 Z"/></g>
<g><path style="opacity:1" fill="#211d17" d="M 278.5,354.5 C 280.476,355.427 280.809,356.76 279.5,358.5C 278.571,357.311 278.238,355.978 278.5,354.5 Z"/></g>
<g><path style="opacity:1" fill="#13100e" d="M 308.5,364.5 C 308.414,365.496 308.748,366.329 309.5,367C 301.489,365.907 300.989,366.741 308,369.5C 310.541,368.336 313.041,368.503 315.5,370C 317.037,371.11 317.703,372.61 317.5,374.5C 314.327,374.599 311.327,373.932 308.5,372.5C 304.68,374.145 300.68,374.811 296.5,374.5C 298.562,373.224 300.896,372.39 303.5,372C 300.822,370.116 297.989,369.616 295,370.5C 292.653,367.325 289.487,365.658 285.5,365.5C 282.347,366.579 279.347,367.912 276.5,369.5C 272.911,368.702 269.578,367.369 266.5,365.5C 264.603,365.728 263.27,366.728 262.5,368.5C 261.126,367.289 259.626,366.289 258,365.5C 254.394,368.053 250.561,370.22 246.5,372C 255.928,374.219 265.428,376.052 275,377.5C 279.833,376.766 284.666,376.1 289.5,375.5C 290.043,375.56 290.376,375.893 290.5,376.5C 286.691,379.839 282.191,381.505 277,381.5C 265.434,378.653 253.767,376.32 242,374.5C 237.873,375.662 233.706,376.162 229.5,376C 228.354,373.443 229.354,372.11 232.5,372C 231.747,370.513 230.914,370.346 230,371.5C 229.508,370.451 229.674,369.451 230.5,368.5C 233.98,365.728 237.647,363.228 241.5,361C 242.701,360.097 243.535,358.931 244,357.5C 245.676,358.061 247.009,359.061 248,360.5C 250.078,357.646 252.245,357.312 254.5,359.5C 257.521,357.577 260.854,356.577 264.5,356.5C 264.343,357.873 264.51,359.207 265,360.5C 266.708,358.457 268.708,356.79 271,355.5C 272.676,356.061 274.009,357.061 275,358.5C 275.419,357.328 276.085,356.328 277,355.5C 277.667,357.167 277.667,358.833 277,360.5C 275.594,359.332 274.428,359.665 273.5,361.5C 272.858,358.203 271.691,357.869 270,360.5C 269.51,361.793 269.343,363.127 269.5,364.5C 274.333,364.625 279,363.792 283.5,362C 282.331,359.993 281.665,357.827 281.5,355.5C 283.5,355.5 285.5,355.5 287.5,355.5C 287.151,358.463 288.151,360.796 290.5,362.5C 290.833,362.167 291.167,361.833 291.5,361.5C 290.253,359.677 289.586,357.677 289.5,355.5C 292.777,355.422 295.277,356.756 297,359.5C 299.234,358.295 300.901,358.961 302,361.5C 302.249,360.376 302.749,359.376 303.5,358.5C 305.185,360.571 306.852,362.571 308.5,364.5 Z"/></g>
<g><path style="opacity:1" fill="#100d0a" d="M 317.5,364.5 C 314.77,366.915 311.77,366.915 308.5,364.5C 307.566,362.761 307.566,361.095 308.5,359.5C 309.192,360.025 309.692,360.692 310,361.5C 310.561,360.978 311.228,360.645 312,360.5C 313.431,362.438 315.265,363.771 317.5,364.5 Z"/></g>
<g><path style="opacity:1" fill="#0e0b08" d="M 317.5,364.5 C 317.281,363.325 317.614,362.325 318.5,361.5C 320.661,362.035 322.661,362.868 324.5,364C 322.333,365.723 320,365.89 317.5,364.5 Z"/></g>
<g><path style="opacity:1" fill="#dccec9" d="M 296.5,374.5 C 293.941,374.198 291.607,374.532 289.5,375.5C 284.666,376.1 279.833,376.766 275,377.5C 265.428,376.052 255.928,374.219 246.5,372C 250.561,370.22 254.394,368.053 258,365.5C 259.626,366.289 261.126,367.289 262.5,368.5C 263.27,366.728 264.603,365.728 266.5,365.5C 269.578,367.369 272.911,368.702 276.5,369.5C 279.347,367.912 282.347,366.579 285.5,365.5C 289.487,365.658 292.653,367.325 295,370.5C 297.989,369.616 300.822,370.116 303.5,372C 300.896,372.39 298.562,373.224 296.5,374.5 Z"/></g>
<g><path style="opacity:1" fill="#201b17" d="M 324.5,365.5 C 326.384,366.382 327.717,367.882 328.5,370C 327.888,371.303 327.554,372.47 327.5,373.5C 324.828,371.575 323.828,368.908 324.5,365.5 Z"/></g>
<g><path style="opacity:1" fill="#100d0a" d="M 268.5,392.5 C 274.499,393.034 280.499,393.701 286.5,394.5C 281.329,396.431 275.995,396.931 270.5,396C 269.177,395.184 268.511,394.017 268.5,392.5 Z"/></g>
<g><path style="opacity:1" fill="#c9a984" d="M 289.5,412.5 C 291.238,414.119 291.738,416.119 291,418.5C 290.187,416.564 289.687,414.564 289.5,412.5 Z"/></g>
<g><path style="opacity:1" fill="#e4c096" d="M 215.5,420.5 C 221.928,425.225 228.595,429.725 235.5,434C 249.728,448.099 265.061,460.766 281.5,472C 287.688,474.925 294.021,477.591 300.5,480C 308.852,481.394 316.185,479.394 322.5,474C 330.953,464.276 337.787,453.443 343,441.5C 342.703,450.347 342.203,459.014 341.5,467.5C 342.14,472.032 342.806,476.532 343.5,481C 337.667,488.167 331.833,495.333 326,502.5C 321.495,509.179 318.662,516.512 317.5,524.5C 298.833,524.5 280.167,524.5 261.5,524.5C 260.984,521.101 260.15,517.768 259,514.5C 248.052,493.052 231.885,476.719 210.5,465.5C 208.217,448.896 207.051,432.229 207,415.5C 209.478,417.82 212.311,419.486 215.5,420.5 Z"/></g>
<g><path style="opacity:1" fill="#927b60" d="M 256.5,423.5 C 256.808,425.924 256.474,428.257 255.5,430.5C 254.394,427.934 254.727,425.6 256.5,423.5 Z"/></g>
<g><path style="opacity:1" fill="#2a2222" d="M 257.5,524.5 C 229.5,524.5 201.5,524.5 173.5,524.5C 180.144,516.012 186.644,507.345 193,498.5C 196.415,487.592 199.415,476.592 202,465.5C 222.308,474.477 238.641,488.144 251,506.5C 254.576,511.986 256.743,517.986 257.5,524.5 Z"/></g>
<g><path style="opacity:1" fill="#2a2222" d="M 377.5,524.5 C 359.167,524.5 340.833,524.5 322.5,524.5C 323.068,518.753 324.901,513.42 328,508.5C 336.281,496.551 344.948,484.885 354,473.5C 358.554,483.275 362.554,493.275 366,503.5C 369.338,510.848 373.171,517.848 377.5,524.5 Z"/></g>
</svg>
