<?xml version="1.0" encoding="UTF-8"?>
<svg id="Calque_2" data-name="Calque 2" xmlns="http://www.w3.org/2000/svg" viewBox="0 0 672.66 819.65">
  <defs>
    <style>
      .cls-1, .cls-2 {
        stroke-width: 0px;
      }

      .cls-2 {
        fill: none;
      }
    </style>
  </defs>
  <g id="Calque_1-2" data-name="Calque 1">
    <g>
      <path class="cls-1" d="m293.66,179.98c33.48,46.45,29.82,116.36,27.27,170.66-51.91,11.68-54.7,71.4-12.64,97.4-10.59,38.65-33.06,89.34-76.29,100.6-54.83-106.26-46.81-295.97,61.66-368.66Z"/>
      <path class="cls-1" d="m124.21,747.22c37.21,1.43,54.96-9.05,53.49-43.5,14.72-6.44,20.98-17.53,18.77-33.27,27.65-20.92,28.66-41.21,1.4-62.04,24.48-15.49,88.8,21.13,107.23,40.12,24.86,25.61,33.06,63.91,20.74,97.56-35.53,97.08-146.59,51.41-201.63,1.13Zm136.94-103.4c-24.3,42.46-48.66,85-72.94,127.41,74.41,53.37,159.34-84.84,72.94-127.41Z"/>
      <path class="cls-1" d="m112.34,318.29c15.06-35.16,6.5-50.92-25.23-63.37-4.03-19.98-6.3-22.29-25.99-25.79-7.64-37.19-35.64-35.97-61.12-17.47,12.77-77.63,110.58-141.76,176.99-81.5,60.22,54.63,9.73,171.15-64.65,188.14Zm-58.74-161.22c34.91,34.91,69.79,69.79,104.66,104.67,63.78-64.4-41.3-172.53-104.66-104.67Z"/>
      <path class="cls-1" d="m384.92,37.91c1.92-11.74-.92-21.32-5.4-31.16,5.63-6.95,12.68-6.96,21.88-4.21,13.08,33.06,11.68,72.74,19.11,107.61-6.57,6.98-15.01,5.35-24.17.78-46.51,35.13-83.35-59.16-11.43-73.02Zm3.2,15.35c-46.36-4.08-16.61,71.01,5.82,42.66-1.89-13.88-3.8-27.87-5.82-42.66Z"/>
      <path class="cls-1" d="m570.02,78.83c-24.21-3.59-32.51,28.18-33.12,47.47-11.99,3.55-13.92,2.77-22.61-10.1,6.55-20.68,13.39-42.28,20.48-64.65q8.58-1.85,18.01,4.56c.76,3.32,1.64,7.18,2.18,9.54,67.48-9.74,25.43,38.68,27.92,76.25-33.43,24.52-11.44-61.21-12.87-63.07Z"/>
      <path class="cls-1" d="m292.78,70.59c-2.96,2.36-5.57,4.43-8.32,6.62,1.35,4.38,2.5,8.11,3.58,11.62-6.06,7.6-13.13,8.32-20.76,6.43-15.03-22.23,21.4-42.12,41.08-36.09,24.86,7.62,14.04,51.11,37.62,56.68-10.38,14.32-12.69,15.12-28.22,10.24-8.63,11.1-19.5,18.66-34.98,14.81-26.67-22.35,4.42-39.8,22.84-49.57-2.98-7.43-3.47-15.48-12.83-20.75Zm4.68,52.43c7.92,1.45,12.49-.63,15.19-7.35-.31-4.91.08-10.53-7.39-14.55-4.13,4.6-8.27,9.21-12.32,13.71,1.99,3.62,3.18,5.78,4.51,8.19Z"/>
      <path class="cls-1" d="m658.05,148.04c-11.46-5.73-22.66-11.34-34.5-17.26-2.01,5.02-3.49,8.72-4.7,11.74,3.46,19.4,18.44,18.44,32.67,19.17-6.98,29.38-71.83-3.28-46.22-45.14,26.39-43.16,97.92,1.12,52.76,31.49Zm-28.51-29.5c6.69,6.32,12.56,9.22,21,7.9,1.35-3.46,2.75-7.04,4.78-12.24-2.04-2.24-4-4.4-6.63-7.29-7.3,4.44-12.68,7.7-19.15,11.63Z"/>
      <path class="cls-1" d="m568.19,725.21c15.89,2.15,25.73,9.46,28.24,26.15-6.2,15.71-24.7,12.61-35.99,21.13q2.18,9.92,13.39,15.83c11.44.4,18.49-7.05,25.63-15.5,21.82,18.19-36.63,43.72-57.1,19.74-22.52-26.37-2.85-59.92,25.83-67.36Zm-9.02,14.5c-5.86,6.98-6.76,13.52-3,21.6,6.05-2.98,11.27-5.54,16.17-7.95q-2.35-12.09-13.17-13.65Z"/>
      <path class="cls-1" d="m253.31,113.26c-5.46,13.79-21.93,15.45-30.35,26.2,10.81,18.44,22.79,15.73,40.17-9.78,1.96,3.25,3.71,6.14,5.27,8.72-6.24,38.03-53.1,39.38-68.43,7.26-18.83-39.42,37.82-81.26,53.34-32.41Zm-38.02,16.58c5.72-4.74,10.5-8.69,14.62-12.1-1.01-8.11-5.02-11.15-12.15-12.91-2.31,3.22-4.78,6.64-7.01,9.74,1.57,5.31,2.82,9.52,4.53,15.26Z"/>
      <path class="cls-1" d="m485.6,805.71c4.55-22.35,13.02-40.55,12.14-61.16q10.84-4.74,22.29,2.35c-2.74,27.7-11.27,87.42-50.58,69.43-7.94-20.57-16.48-42.7-25.6-66.33,3.83-2.19,8.02-4.59,11.21-6.41,22.22.96,25.71,46.07,30.54,62.12Z"/>
      <path class="cls-1" d="m458.34,112.18c-6.03,5.42-12.52,4.42-20.57-.67-8.81-34.97,4.18-72.47-1.95-107.99,6.19-4.89,12.86-4.24,21.53-.79,7.78,35.09.99,73.54.99,109.45Z"/>
      <path class="cls-1" d="m345.78,800.27c-6.6,1.78-13.08.63-18.86-8.34,3.59-23.28,12.07-45.45,17.85-68.3,5.56-4.67,11.08-.05,17.34,2.68,1.27,3.89,2.5,7.68,3.83,11.74,10.5-5.23,20.98-8.74,30.4,1.75,3.57,18.63-.94,24.57-17.47,21.77,0-42.43-32.12,35.62-33.1,38.69Z"/>
      <path class="cls-1" d="m478.02,113.42c-3.83-23.88,9.22-46.12,4.87-69.89,6.72-4.37,13.28-3.75,21.65,1.94,2.76,24.36-4.81,47.77-4.81,72.25-7.27,4.13-14.5,4.24-21.7-4.3Z"/>
      <path class="cls-1" d="m430.88,746.51c3.59,24.06-8.17,46.42-4.38,69.71q-11.66,4.53-21.85-2.87c-4.79-23,7.6-45.56,3.89-69.29,9.68-6.13,10.55-6.08,22.34,2.44Z"/>
      <path class="cls-1" d="m411.02,718.32c1.77-9.46,7.68-12.85,15.68-14.62,28.26,3.9-.34,47.2-15.68,14.62Z"/>
      <path class="cls-1" d="m502.96,4.35c2.99,1.46,6.53,3.19,9.6,4.69,9.22,40.25-53.35,11.55-9.6-4.69Z"/>
      <path class="cls-2" d="m350.32,480.98s0,0,0,.01c.21.95.43,1.93.64,2.92.06-.97-.13-1.95-.64-2.93Z"/>
      <path class="cls-1" d="m337.51,449.52c-4.51,2.06-9.29,3.79-14.34,5.09-21.27,47.69-42.47,79.88-81.9,113.55,27.15,38.71,64.89,80.4,110.18,101.77,18.68-115.46-8.48-204.27-13.94-220.41Z"/>
      <path class="cls-1" d="m306.92,172.46c23.93,59.23,22.89,115.41,28.73,177.72,62.19,18.57,49.52,74.78,5.56,97.53,1.06,3.11,3.09,9.41,5.5,18.5.3-.03,1.31,3.92,1.52,5.93.68,2.76,1.38,5.71,2.09,8.86,0,0,0,0,0-.01.5.98.7,1.96.64,2.93,8.66,39.86,17.53,107.5,4.36,187.8,17.62,7.78,36.34,12.47,56.01,12.68.32-4.53.57-9.08.85-13.62.17-2.79.36-5.57.52-8.36V130.54c-35.88.48-87.8,19.75-105.78,41.91Z"/>
      <path class="cls-1" d="m537.32,631.42c102.31-82.16,116.38-258.92,58.32-370.56-42.2,22.36-76.59,92.63-78.05,102.67,25.88,11.24,29.8,19.65,32.84,33.11,4.5,36.23-11.98,55.94-42.17,66.49-.61,9.72-5.25,97.11,19.6,160.63,2.8,3.27,5.93,5.88,9.45,7.67Z"/>
      <path class="cls-1" d="m482.78,364.1h0c6.71-2.31,13.6-2.85,22.44-1.85,18.19-46.81,41.51-88.69,83-118.23-17.89-29.59-66.36-83.66-114.38-105.81-2.17,31.06-11.46,181.8,8.93,225.88Z"/>
      <path class="cls-1" d="m506.24,575.85c-6.46-35.62-7.28-70.67-6.94-92.41-1.46-7.21-3.4-14.32-5.99-21.31-52.85-11.46-53.8-82.95-11.45-97.61-20.58-44.49-11.11-196.55-8.99-226.77-19.49-8.81-38.87-12.32-56.06-6.68v550.99c.52.73,1.06,1.4,1.64,1.96,38.5-3.67,89.52-25.73,104.82-45.59-10.73-20.32-15.02-41.37-17.01-62.57Z"/>
    </g>
  </g>
</svg>